<?xml version="1.0" encoding="UTF-8"?>
<svg id="Capa_2" data-name="Capa 2" xmlns="http://www.w3.org/2000/svg" viewBox="0 0 1080 1080">
  <defs>
    <style>
      .cls-1 {
        fill: #021a54;
      }

      .cls-2, .cls-3 {
        fill: #faf2e7;
      }

      .cls-3 {
        font-family: Now-Bold, Now;
        font-size: 65.07px;
        font-weight: 700;
      }
    </style>
  </defs>
  <g id="Capa_1-2" data-name="Capa 1">
    <g>
      <rect class="cls-1" width="1080" height="1080"/>
      <g>
        <g>
          <path class="cls-2" d="M495.24,408.41c-5.7-9.24-13.37-17.33-22.77-24.04-1.54-1.1-3.35-1.68-5.25-1.68-.2,0-.4.02-.6.04-.76-1.89-2.15-3.52-4.02-4.55-9.36-5.16-20-9.21-31.78-12.12,3.84-2.73,4.76-7.16,2.71-13.19-.71-2.08-1.51-4.44-1.27-7.32.26-3.12,1.5-4.79,4.07-7.97,2.84-3.52,6.73-8.33,6.98-15.87.33-9.97-5.83-17.88-9.53-21.71-4.78-4.94-9.2-7.44-13.14-7.44-1.88,0-3.68.53-5.23,1.54-.58.38-1.33.96-2.04,1.77-2.36-7.39-6.95-13.19-10.13-16.56-3.34-3.54-9.86-9.47-16-9.47-1.82,0-3.58.48-5.09,1.39-7.38,4.42-3.91,12.65-2.77,15.35,1.51,3.58,3.57,8.48,2.33,13.7-.63,2.67-1.71,3.78-3.86,6.01-1.59,1.64-3.5,3.62-5.31,6.4-1.99-5.67-5.59-10.11-8.09-12.69-4.78-4.94-9.2-7.44-13.14-7.44-1.88,0-3.68.53-5.23,1.54-2.11,1.38-6.59,5.48-2.57,13.69.73,1.49,1.55,3.17,1.74,5.36.29,3.4-1.22,5.76-4.16,9.99-3.16,4.56-7.5,10.8-6.92,19.53.66,9.93,8.13,19.69,15.39,23.56-.52.15-1.05.29-1.57.45-7.86,2.32-18.63,5.49-29.71,11.33l-.17.09c-1.7.95-3.01,2.39-3.79,4.07-.15,0-.3-.01-.45-.01-1.83,0-3.6.55-5.11,1.59-9.68,6.64-17.41,14.84-22.97,24.35-13.51,23.07-11.25,39.07-6.98,48.43.78,1.7,1.67,3.31,2.71,4.84-.59,1-.98,1.82-1.17,2.21-2.31,4.83-2.33,9.13-2.34,11.19-.04,6.67,1.98,12.16,3.68,15.6,1.77,3.57,5.45,9.37,9.38,13.67.02.03.05.05.08.09.03.22-.04.64-.07.8l-.02.12c-1.42,8.06-1.65,49.58,1.44,74.99,1.2,9.89,2.7,22.2,7.73,37.07.21.62.44,1.3.7,2.05l.07.19c1.69,4.9,4.25,12.3,6.75,22.6,2.11,8.67,2.28,11.62,2.34,12.59.2,3.35.05,6.31-2.26,20.61-.42,2.63-.95,5.77-1.56,9.34-.77,4.52.47,9.12,3.43,12.62,2.95,3.5,7.27,5.51,11.85,5.51h145.85c4.45,0,8.69-1.91,11.63-5.24,2.94-3.33,4.31-7.77,3.76-12.18-.96-7.67-2.05-15.59-3.24-23.54-1.22-8.2-2.58-16.64-4.06-25.1,2.14-2.79,4.16-5.68,6-8.61,4.49-7.12,10.07-15.99,12.13-28.41,1.56-9.39,3.33-20.04-3.74-28.08-.85-.97-1.75-1.79-2.55-2.52-.41-.37-.77-.71-1.1-1.04.69-1.28,1.07-2.73,1.08-4.27.04-10.29.08-20.58.12-30.87,0,0,.08-21.07.12-31.4,1.18-1.14,2.2-2.29,3.11-3.32.75-.84,1.39-1.57,2.03-2.19,3.87-3.79,7.73-10.12,9.38-15.4,1.9-6.09,1.59-12.95-.89-19.82,1.55-2.74,2.76-5.62,3.61-8.62,5.49-19.35-5.01-36.34-9.49-43.6Z"/>
          <text class="cls-3" transform="translate(414.49 788.85)"><tspan x="0" y="0">COFFEE</tspan></text>
          <g>
            <g>
              <path class="cls-2" d="M546.02,517.63c-6.71-1.39-11.34-4.4-13.66-9.03-3.24-6.02-3.7-10.18-4.17-38.42-.23-15.28,0-37.26.69-49.3,1.62-40.04,4.86-53.23,13.66-57.86,3.01-1.39,5.09-1.85,13.42-2.08,8.79-.23,10.65,0,14.58,1.39,4.4,1.62,9.49,5.79,9.49,7.87,0,.46,1.85-.23,4.4-1.62,9.03-4.86,19.21-6.71,30.09-5.32,16.66,2.08,26.62,9.03,33.79,23.61,8.1,15.97,8.33,40.04.93,54.62-3.47,6.94-8.1,12.27-13.66,15.74l-5.09,3.24,4.86,4.63c9.95,9.72,14.35,19.67,12.73,27.77-2.55,12.27-16.66,24.53-28,24.76-10.88,0-20.14-8.56-31.94-29.62l-3.24-5.55-.23,10.65c-.23,12.27-1.39,15.28-6.94,19.9-4.86,3.93-9.72,5.32-20.83,5.09-5.09,0-9.95-.23-10.88-.46ZM603.19,423.9c3.93-3.24,5.79-7.64,5.79-13.42,0-6.48-2.08-11.8-5.79-13.89-3.47-2.08-5.79-2.08-9.26,0-7.64,4.4-8.56,19.21-1.62,26.62,3.01,3.47,7.17,3.7,10.88.69Z"/>
              <path class="cls-2" d="M713.98,516.71c-25.46-6.02-45.59-27.77-53-56.7-1.62-6.71-5.55-27.08,2.78-50.92,4.4-12.5,12.96-25.23,21.99-32.86,12.96-10.65,25.69-15.28,41.2-15.28,18.05,0,31.48,5.79,45.59,19.44,21.29,20.83,29.39,54.85,20.14,85.4-7.64,25.69-27.31,45.36-50.69,50.92-8.1,1.85-20.14,1.85-28,0ZM734.34,462.78c9.26-3.47,14.35-15.51,13.42-30.78-.46-8.79-2.08-13.89-5.55-18.05-6.94-8.33-19.9-8.1-26.38.69-6.48,8.33-7.64,25.23-3.01,37.03,3.93,9.72,12.96,14.35,21.52,11.11Z"/>
            </g>
            <g>
              <path class="cls-2" d="M589.92,702.33c-14.32-1.51-22.86-4.77-30.65-11.81-14.32-13.57-16.58-40.7-3.77-46.73,4.77-2.26,14.82-2.01,28.39,1.26,13.06,3.01,16.08,3.01,18.09,1,1.76-2.01,1.76-4.02-.25-7.29-1.51-2.01-5.02-4.02-16.83-9.55-23.62-11.05-31.4-17.08-37.18-28.64-4.02-8.29-5.53-14.57-5.02-23.11,2.01-27.38,18.84-42.46,50.25-45.47,15.33-1.26,28.64.75,39.19,6.03,6.53,3.27,13.82,10.8,15.83,15.83,2.76,7.79,1.01,21.1-3.77,27.38-4.52,5.78-13.32,6.53-27.64,2.01-5.28-1.76-11.81-3.27-14.82-3.52-4.77-.25-5.78-.25-7.54,1.51-2.51,2.26-3.02,7.54-.75,10.55.75,1.01,8.29,5.02,17.08,9.04,18.84,8.54,27.38,13.82,36.18,22.11,9.55,9.04,13.06,17.08,13.06,30.4-.25,13.82-4.27,24.12-13.06,33.16-9.04,9.04-18.34,13.32-33.92,15.58-8.79,1.26-12.31,1.26-22.86.25Z"/>
              <path class="cls-2" d="M696.44,702.33c-18.34-1.76-23.62-6.03-25.88-20.1-1.01-8.04-1.01-105.52.25-119.34.5-5.53,1.51-11.56,2.01-13.32,2.26-5.28,7.29-9.55,13.82-12.31,15.33-6.03,52.76-7.54,72.1-2.76,16.08,4.02,20.1,9.04,20.1,24.87,0,8.79-1.51,14.57-5.02,18.09-4.77,4.52-8.29,5.28-30.4,5.28-19.6,0-19.85,0-21.35,1.76-2.01,2.51-2.26,9.3-.5,11.81,1.51,2.01,10.05,2.51,20.6,1.26,8.29-1,12.56-.25,15.07,2.51,3.77,4.02,3.77,24.87,0,28.89-2.76,3.01-7.79,3.52-18.34,2.51-15.07-1.51-19.34.25-19.34,8.54s5.02,9.3,30.65,4.52c16.33-3.01,20.1-2.76,25.12,2.01,4.02,3.77,6.03,10.3,6.53,21.35.75,16.08-2.51,24.62-11.05,29.14-8.79,4.77-12.06,5.02-42.71,5.28-15.33.25-29.65,0-31.66,0Z"/>
            </g>
          </g>
        </g>
        <g>
          <path class="cls-1" d="M475.62,568.17c-.58-1.48-.48-1.79-1.29-4.46,0,0-1.59-5.2-4.03-10-4.2-8.24-13.49-15.74-15.01-16.94-1.78-10.1-4.34-18.11-6.45-23.72-3.99-10.62-6.02-11.77-7.42-11.94-3.6-.45-7.21,4.92-12.9,13.39-2.85,4.23-4.98,7.99-6.45,10.8-5.56-.34-12.55-.27-20.49.97-6.91,1.08-12.83,2.79-17.59,4.52-3.18-3.88-8.03-9.49-14.52-15.81-9.5-9.26-11.62-9.44-12.9-9.19-6.03,1.14-8.27,14.35-10.28,26.23-1.04,6.14-2.39,14.5-1.33,25.55.58,6.05,1.38,14.43,5.65,24.04,3.35,7.56,5.75,15.51,8.71,23.23.32.85,1.54,3.3.48,5-.48.77-1.41,1.36-2.34,1.37-.66,0-2.11-.28-3.95-3.47-10.78-18.69-14.36-40.17-14.36-40.17-3.58-21.55-5.38-32.32-5.48-34.69-1.61-36.33-1.62-37.11-1.62-37.11,0-.34,0-3.64-.96-8.17-.29-1.4-.68-2.91-1.17-4.5-.09-.29-.19-.59-.29-.88,0,0-2.15-6.35-7.58-11.29-.57-.52-1.54-1.31-2.91-1.45-1.11-.11-2.85.17-3.79,1.37-1.03,1.33-.38,2.89-.5,4.98-.05.77-.2,1.61-.58,2.53-.14.36-.34.76-.65,1.11-.16.19-.36.36-.61.5-.87.47-2,.36-2.73-.04-1.05-.56-1.73-1.96-1.95-3.57h0c-.19-1.36-.05-2.87.49-4.14.54-1.3,2.03-3.63,2.9-5,.5-.77.81-1.23.73-1.85-.2-1.49-2.57-2.5-4.34-2.67-.16-.02-3.13-.25-5.26,1.93-.82.84-1.26,1.78-1.54,2.72-.18.59-.29,1.17-.4,1.72-.18.9-.23,1.68-.23,2.37,0,2.24.58,3.49-.41,4.8-.87,1.15-2.57,1.84-3.63,1.37-1.78-.79-1.59-4.79-1.21-6.78.17-.91.46-1.8.72-2.51.24-.66.47-1.15.57-1.36.41-.89.8-1.54,1.1-2.06.5-.84.78-1.32.59-1.89-.36-1.05-2.1-1.6-3.47-1.54-.39.02-.77.1-1.13.21-1.23.39-2.28,1.27-3.11,2.25-1.2,1.39-1.96,2.97-2.21,3.51-1.4,2.92-1.45,5.54-1.45,7.34-.03,5.14,1.61,9.25,2.74,11.53,1.54,3.12,4.81,8.15,7.91,11.54.35.38,1.11,1.19,1.69,2.5,1.25,2.78.69,5.49.56,6.21-1.14,6.46-1.51,47.47,1.51,72.33,1.18,9.74,2.58,21.28,7.32,35.28,1.56,4.62,4.71,13.13,7.74,25.6,2.21,9.07,2.48,12.54,2.58,14.19.26,4.29,0,8-2.36,22.59-.43,2.66-.96,5.83-1.57,9.43-.68,3.95,2.36,7.57,6.37,7.57h145.85c3.89,0,6.9-3.4,6.42-7.27-.96-7.63-2.03-15.41-3.21-23.33-1.32-8.87-2.73-17.54-4.22-25.98-.32-1.81.15-3.67,1.29-5.12,1.78-2.27,3.94-5.21,6.16-8.75,4.35-6.91,9.1-14.47,10.86-25.06,1.37-8.24,2.64-15.83-1.61-20.65-1.97-2.24-5.44-4.23-7.42-9.26ZM414.52,577.55c-2.72,7.1-11.08,8.44-12.37,8.64-6.27,1-13.39-1.45-17.15-6.93-.77-1.12-3.21-4.8-2.58-9.68.81-6.3,6.08-9.64,6.93-10.16,7.06-4.3,17.71-2.17,22.75,4.68.59.81,4.93,6.9,2.42,13.46ZM437.57,581.26c-.35,1.01-.93,1.63-1.38,2.08-.73.75-2.25,2.31-4.46,2.29-1.74-.02-2.95-.99-3.82-1.69-.74-.59-1.94-1.57-2.26-3.22-.1-.49-.23-1.23.08-1.94.89-2.02,4.65-2,6.53-1.98,2.19,0,4.54.02,5.34,1.5.61,1.11.1,2.61-.03,2.97ZM463.89,572.08c-.75,1.35-3.89,6.39-10,7.1-6.29.72-10.56-3.75-11.46-4.76-4.36-4.88-3.61-10.88-3.46-11.94.16-1.08.59-3.89,2.74-6.61.45-.58,3.85-4.74,9.68-5.08,7.48-.44,11.87,5.87,12.1,6.21,3.21,4.8,2.83,10.77.4,15.08Z"/>
          <path class="cls-1" d="M403.39,562.8c-.16-.09-2.42-1.39-4.59-.48-3.61,1.52-3.37,7.69-3.32,8.71.07,1.66.27,6.74,3.8,8.26,1.72.75,4.02.55,5.56-.68,2.12-1.69,1.94-4.68,1.77-7.58-.16-2.75-.38-6.54-3.22-8.23Z"/>
          <path class="cls-1" d="M454.14,557.62c-.44-.4-1.51-1.34-2.92-1.27-1.46.08-2.46,1.2-2.79,1.57-3.55,4.01-.24,13.45,2.55,14.47,1.17.43,2.25.25,2.25.25,0,0,.87-.14,1.65-.66,2.31-1.54,3.41-10.68-.75-14.36Z"/>
          <path class="cls-1" d="M464.5,482.4c-4.99,2.39-9.83,4.29-14.64,5.8.26,1.43.37,2.97.21,4.58-.2,1.92-.68,3.05-.22,5.05.49,2.12,1.48,2.85,2.46,5.06.91,2.06,1.08,3.74,1.3,6.23.14,1.54.27,4.01.39,7.27h0c2.14,6.42,3.66,12.58,4.74,18.34,4.12,3.11,10.25,8.63,14.91,17.27,2.29,4.25,3.69,8.26,4.57,11.6.08-20.83.17-41.66.24-62.49,0-1.05.17-2.63,1.07-4.19.57-1,1.23-1.6,1.57-1.94,1.85-1.76,3.4-3.81,5.22-5.59,2.82-2.76,5.85-7.73,7.07-11.63,1.6-5.15.62-10.25-.78-14.1-7.47,8.84-18.61,14.19-28.11,18.75Z"/>
          <polygon class="cls-1" points="478.22 563.61 478.22 563.61 478.22 563.61 478.22 563.61"/>
          <path class="cls-1" d="M372.63,387.8c-2.1,1.42-6.21,4.18-11.55,8.14,6.91,2.79,14.72,6.64,22.84,12.08,2.2,1.47,4.53,3.13,6.93,5h0c6.28-5.11,14.1-10.47,23.93-15.13,1.75-.83,3.45-1.58,5.12-2.27-8.6-6.43-13.85-9.54-16.68-11.15-4.61-2.63-8.89-4.78-12.56-6.48-5.95,2.55-12.05,5.76-18.04,9.82Z"/>
          <path class="cls-1" d="M422.64,384.46c3.42,2.08,6.89,4.2,10.4,6.68,6.59-1.79,13.03-2.94,20.03-4.2,1.71-.31,3.43-.59,5.16-.86-17.61-9.71-36.7-13.21-47.73-14.67,0,0,0,0,0,0-2.84.7-5.8,1.51-8.84,2.48,6.3,2.58,13.47,6.02,20.97,10.57Z"/>
          <path class="cls-1" d="M487.55,413.15c-5.49-8.89-12.58-15.9-20.33-21.43-7.38,1.86-15.68,4.28-24.26,7.54,0,0,0,0,0,0,1.47,1.4,2.94,2.91,4.41,4.55,10.74,11.95,17.85,26.51,15.93,27.98-1.74,1.34-9.7-8.99-31.84-27.1-.16-.13-.32-.26-.48-.39-6.64,3.09-13.27,6.73-19.63,11.04-3.63,2.46-6.94,4.75-9.95,6.87,0,0,0,0,0,0,3.58,3.51,7.16,7.48,10.6,11.95,6.77,8.81,13.54,20.3,11.94,21.62-1.41,1.16-8.27-6.36-21.3-17.1-2.8-2.31-6.67-5.48-11.45-9.1-8.81,6.51-12.96,10.07-12.96,10.07-10.71,9.19-18.68,17.5-20.22,16.25-1.53-1.24,4.46-11.04,5.81-13.24,5.54-9.05,11.34-14.99,13.33-16.99,1.11-1.11,2.31-2.32,3.62-3.58-5.21-3.55-11.06-7.25-17.49-10.83-1.49-.83-6.31-3.49-13.17-6.72-2.97,2.45-6.1,5.12-9.3,8.01-12.84,11.59-19.92,20.21-21.35,19.15-1.57-1.16,4.22-13.55,12.75-24.31,2.22-2.8,4.52-5.35,6.88-7.7-4.69-1.92-9.81-3.83-15.16-5.53-3.51-1.11-6.92-2.1-10.05-2.96-7.68,5.27-14.87,12.2-20.29,21.46-2.79,4.76-13.97,23.88-6.56,40.12,1.04,2.28,2.33,4.25,3.94,6.08,1.36-.75,2.67-1.05,3.77-1.11.14,0,.29,0,.44,0,2.36,0,5.06.97,6.34,3.12,2.42-1.71,5.05-1.92,6.2-1.92.42,0,.69.03.75.03,3.37.32,7.22,2.3,7.71,5.9.06.42.06.81.03,1.18.78-.23,1.61-.35,2.47-.35.3,0,.59.02.85.04,2.7.27,4.47,1.88,5.05,2.41,6.09,5.53,8.52,12.57,8.62,12.87.44,1.3.81,2.56,1.1,3.76h0c2.22.8,3.9,1.33,4.89,1.63,4.22,1.29,20.72,6.09,55.29,4.74,22.11-.87,38.2-1.51,54.36-6.59,4.63-1.45,9.27-3.28,14.05-5.57,9.81-4.71,21.13-10.14,28.03-19.25,2.25-2.97,4.04-6.35,5.13-10.22,4.4-15.51-4.65-30.18-8.49-36.39Z"/>
          <path class="cls-1" d="M348.39,391.55c8.96-6.82,18.24-11.46,26.6-15.58,1.68-.83,3.36-1.65,5.05-2.45-.24-.09-.45-.17-.64-.24-2.47-.91-4.86-1.71-7.15-2.42,0,0,0,0,0,0-9.31,1.14-16.71,3-21.67,4.46-7.48,2.21-17.79,5.24-28.07,10.65,0,0,0,0-.01,0,5.92.8,12.29,1.97,18.83,3.65,1.99.51,4.37,1.13,7.06,1.92Z"/>
          <path class="cls-1" d="M412.52,342.06c.66,9.94,11,17.81,12.83,16.78,1.36-.77-2.76-6.01-2.1-14.04.96-11.63,10.71-14.01,11.02-23.39.37-10.92-12.41-20.74-13.93-19.75-.87.57,2.67,4.28,3.23,10.72,1.13,13.12-11.83,18.12-11.06,29.69Z"/>
          <path class="cls-1" d="M343.19,342.06c.66,9.94,11,17.81,12.83,16.78,1.36-.77-2.76-6.01-2.1-14.04.96-11.63,10.71-14.01,11.02-23.39.37-10.92-12.41-20.74-13.93-19.75-.87.57,2.67,4.28,3.23,10.72,1.13,13.12-11.83,18.12-11.06,29.69Z"/>
          <path class="cls-1" d="M393.09,357.71c2.1-1.57-3.23-7.82-3.55-16.62-.57-15.69,15.48-20.2,16.3-34.53.88-15.43-16.66-29.01-19.04-27.59-1.87,1.12,6.65,10.97,3.7,23.39-2.4,10.14-9.6,9.95-13.17,21.24-2.84,8.98-1.61,19.61,3.98,26.84,3.75,4.85,9.87,8.69,11.78,7.26Z"/>
        </g>
      </g>
      <path class="cls-2" d="M115.61,411.27c-1.48-3.01-4.37-4.91-7.52-5.85-3.58-1.07-10.13-1.49-11.3,3.23-.6,2.41,1.08,4.86,2.86,6.31,3.72,3.02,10.4,4.49,14.72,1.93,1.96-1.16,2.05-3.73,1.23-5.63ZM159.51,461.69c-3.95.75-7.98.1-11.89-.53-4.45-.72-8.88-1.54-13.31-2.37-10.47-1.95-20.89-4.16-31.25-6.61-9-2.13-18.19-4.07-26.62-8-3.38-1.58-7.37-3.86-8.22-7.82-.61-2.86.04-5.76.63-8.56.62-2.99,1.28-6.06,3.12-8.57,1.13-1.53,2.57-3,4.32-3.8.58-.27,1.62-.19,2.1-.49.19-.12.07-.62.05-.81-.08-.78-.27-1.55-.46-2.31-1.54-6.35-.63-13.06,2.17-18.93,2.79-5.86,7.29-10.89,13.55-13.03,2.52-.86,5.17-1.28,7.81-1.51,8.17-.7,16.43,1.61,23.7,5.23,3.52,1.76,6.92,3.91,9.7,6.71,3.75,3.78,6.94,8.5,7.79,13.84.42,2.66.21,5.37-.1,8.03-.51,4.32-2.63,8.37-5.26,11.77-.75.97-1.55,1.96-1.92,3.15l-.27.99,13.79,3.68c2.93.78,5.86,1.56,8.78,2.37,2.37.66,4.81,1.29,6.77,2.85,2.16,1.73,4.63,4.68,4.54,7.61-.18,5.69-.78,12.74-6.31,15.87-1,.57-2.08.96-3.2,1.22ZM139.74,344c-1.32-4.62-6.7-7.36-11.18-7.78-2.29-.21-5.21.32-6.22,2.68-.86,2.03.58,4.23,1.9,5.69,2.91,3.22,8.82,7.1,13.29,4.92,2.05-1,2.81-3.4,2.2-5.51ZM182.35,402.79c-1.59,1.66-3.87,2.04-6.07,1.81-3.68-.38-7.14-2.03-10.51-3.47-1.26-.54-2.51-1.09-3.75-1.66-13.41-6.16-26.11-13.9-37.62-23.14-7.38-5.92-14.48-12.46-19.7-20.41-1.57-2.39-2.92-4.96-3.72-7.71-1.77-6.04-.23-12.35,2.46-17.86,3.41-6.99,9.12-12.21,16.61-14.48,4.2-1.27,8.61-.99,12.94-.75,15.23.85,29.91,5.77,43.79,11.84,8.1,3.54,16.24,7.21,23.53,12.25,2.62,1.81,5.16,3.85,6.18,6.99,1.47,4.52-1.28,8.47-3.25,12.32s-4.12,7.54-8.6,8.44c-4.84.98-9.64-2.74-13.61-4.96s-8.27-4.5-12.51-6.53c-2.24-1.07-4.49-2.31-6.95-2.82-2.77-.57-7.24.18-6.73,3.93.09.64.31,1.25.59,1.82,1.61,3.24,4.89,5.1,7.93,6.79,2.55,1.41,5.14,2.75,7.74,4.05,3.7,1.85,7.4,3.69,10.96,5.79,2.05,1.21,4.25,2.51,5.62,4.52,1.47,2.17,1.9,5.12,1.4,7.66-.69,3.52-2.33,6.74-3.77,9.99-.85,1.92-1.52,4.01-2.98,5.58ZM218.14,333.03c-1.29,1.05-2.74,1.94-4.39,2.3-5.46,1.18-11.32-2.2-16.1-4.4-8.53-3.91-16.39-9.08-24.39-13.93-9.42-5.71-19.03-11.22-27.72-18.03-3.23-2.54-6.51-5.08-9.27-8.14-1.46-1.62-2.87-3.57-2.86-5.85,0-1.45.54-2.84,1.05-4.18,1.1-2.88,2.65-5.55,4.46-8.03,1.41-1.93,2.93-3.82,5.16-4.81,7.42-3.28,15.93-1.81,23.64-.54,3.52.58,7.04,1.2,10.6,1.51,1.09.09,2.91.42,3.62-.68.81-1.24-1.74-2.22-2.47-2.7-3.03-1.94-6.48-3.1-9.86-4.29-5.23-1.85-14.47-4.15-13.82-11.37.21-2.39,1.31-4.61,2.42-6.7,2.41-4.52,5.45-9.05,9.79-11.92,1.48-.98,3.08-1.82,4.83-2.2,4.82-1.05,9.58,1.57,13.59,3.94,4.28,2.54,8.33,5.46,12.33,8.41,2.35,1.73,4.69,3.5,7.01,5.27,7.72,5.89,15.11,12.21,22.41,18.62,1.71,1.5,3.42,3.01,5.12,4.52,1.33,1.18,2.65,2.37,3.96,3.56,3.03,2.76,6.3,5.36,8.71,8.71,1.3,1.81,2.39,3.97,2.29,6.25-.08,1.84-.89,3.53-1.72,5.13-1.74,3.36-3.98,6.63-7.17,8.77-1.5,1-3.15,1.81-4.98,1.9-2.82.14-5.59-1.03-8.12-2.14-4.54-2-8.87-4.4-13.23-6.76-7.93-4.29-16.42-8.88-25.61-9.4-1.68-.09-4.55-.16-5.53,1.56-.64,1.13.82,2.45,1.58,3.1,2.48,2.15,5.59,3.36,8.57,4.66,4.2,1.83,8.61,3.09,12.96,4.52,5.64,1.85,11.37,3.71,16.25,7.2,3.85,2.75,6.53,7.04,5.69,11.9-.51,2.93-2.41,5.28-3.94,7.74-1.42,2.28-2.67,4.81-4.84,6.51ZM285.17,206.42c.65-2.43-.59-5.08-1.61-7.23-2.69-5.67-6.71-10.96-11.72-14.78-3.14-2.4-10.33-5.59-12.52-.36-.25.6-.38,1.24-.41,1.88-.1,2.72,1.04,5.36,2.25,7.73,2.83,5.56,7,10.57,12.09,14.2,2.8,2,7.43,4.24,10.28,1.13.69-.75,1.32-1.6,1.64-2.58ZM283.8,255.76c-2.65,1.52-5.82,2.57-8.83,1.5-3.48-1.24-6.18-4.17-8.89-6.56-5.92-5.23-11.58-10.73-17.26-16.21-7.57-7.32-14.9-14.9-21.86-22.81-4.24-4.81-8.59-9.61-11.91-15.12-.9-1.49-1.67-3.08-2.12-4.76-1.67-6.31,2.81-11.73,7.26-15.6,3.59-3.12,8.38-5.56,13.12-3.83,1.51.55,2.4-2.34,2.91-3.27,2.33-4.32,5.3-8.32,9.21-11.33,9.44-7.27,22.1-8.43,32.97-3.81,10.6,4.5,19.04,12.81,25.29,22.34,7.81,11.92,13.22,26.58,11.72,41.01-1.21,11.61-8.61,20.62-19.64,24.31l-3.66,1.1.16,1.64c.11,3.28-1.9,5.69-4.07,7.9-1.32,1.34-2.73,2.63-4.4,3.52ZM345.98,209.97c-4.8,2.1-9.62,2.9-13.81-.95-1.02-.93-1.96-1.94-2.81-3.03-2.32-2.97-4.24-6.22-6.31-9.37-3.71-5.66-7.38-11.34-11.03-17.03-4.5-7.01-8.96-14.03-13.37-21.09-2.63-4.21-5.36-8.37-7.68-12.77-1.23-2.33-2.83-4.66-3.26-7.31-.6-3.66.74-7.45,2.91-10.37,3.23-4.35,7.68-7.61,12.13-10.61,7.15-4.82,14.94-9.16,23.47-10.93,5.41-1.13,10.92-.79,14.24,4.21.93,1.4,1.69,2.9,2.4,4.42,1.52,3.27,3.25,7.28,1.99,10.91-1.07,3.08-3.72,4.85-6.42,6.39-2.36,1.35-4.78,2.59-7.19,3.85s-4.77,2.5-7.08,3.88c-1,.59-2.23,1.22-2.31,2.54-.13,2.06,1.29,5.39,3.32,6.2.98.39,2.12-.2,3.01-.57,2.53-1.05,4.82-2.58,7.04-4.15s5.06-3.52,7.77-2.16c1.18.6,1.96,1.83,2.69,2.88,1.79,2.61,3.2,5.48,4.24,8.48.45,1.29,1.01,2.76.69,4.15-.78,3.39-4.95,4.47-7.76,5.56s-7.91,2.75-6.9,6.81c.21.85.61,1.66,1.05,2.41.3.51.65,1,1.09,1.41,3.05,2.85,7.06-1.13,9.43-3,.63-.5,1.25-1,1.87-1.51.83-.68,1.66-1.37,2.49-2.06,3.29-2.73,7.11-6.31,11.69-4.26,4.11,1.84,6.37,6.54,8.31,10.33,2.65,5.2,5.78,12.24,2.61,17.89-3.45,6.13-10.31,8.44-16.07,11.75-4.13,2.38-8.32,4.67-12.41,7.11ZM460.08,164.77c-3.38.02-6.01-1.47-7.76-4.38-1.45-2.41-1.93-5.31-2.51-8.02-1.3-6.06-2.13-12.23-2.22-18.44-.08-5.68-.39-11.36-1.23-16.98-.33-2.23-.48-4.93-1.97-6.74-.57-.69-1.41-.95-2.26-.68-1.17.36-1.46,1.79-1.66,2.84-.8,4.15,1.14,8.39,2.2,12.32.99,3.64,2.86,7.56,2.12,11.41-.56,2.9-2.55,4.25-5.19,5.14s-5.3.68-7.35-1.28c-1.18-1.12-1.52-2.85-1.96-4.36-.81-2.79-1.52-5.61-2.27-8.42-.27-1.02-.55-2.04-.82-3.07-.2-.75-.41-1.5-.62-2.25-.16-.58-.33-1.16-.5-1.74-.53-1.82-1.32-6.84-4.24-5.84-2.63.89-1.72,4.79-1.32,6.78,1.47,7.26,5.44,13.74,8.77,20.25.74,1.45,1.47,2.91,2.16,4.39,2.79,5.91,6.95,14.09,3.53,20.55-1.99,3.76-5.67,5.65-9.41,7.3-2.57,1.14-5.23,2.07-7.97,2.7-1.42.32-2.95.7-4.39.27-1.21-.36-2.05-1.54-2.72-2.54-1.63-2.42-2.77-5.13-3.89-7.81-4.96-11.92-9.22-24.12-13.23-36.39-2.87-8.79-5.71-17.59-8.12-26.51-1.3-4.81-3.05-9.85-2.45-14.9.81-6.84,7.01-9.73,12.88-11.58,2.64-.83,5.4-1.64,8.19-1.18,7.05,1.16,11.44,7.43,15.17,12.93,1.27,1.88,2.52,3.77,3.93,5.55.71.9,1.56,1.93,2.77,2.08.95.12,1.7-.45,2.36-1.06,1.13-1.04,1.34-2.7,1.6-4.13.43-2.41.76-4.84,1.12-7.26.9-6.01,1.58-13.4,7.05-17.17,3.83-2.64,8.72-3.38,13.24-3.87,1.97-.22,4.06-.45,5.97.21,3.42,1.19,5.51,4.54,7.06,7.61,3.51,6.95,5.31,14.6,7.14,22.12,2.37,9.75,3.88,19.69,5.3,29.62,1.21,8.44,2.41,16.89,2.88,25.41.21,3.8.14,8.36-2.38,11.48-.7.86-1.59,1.52-2.52,2.11-1.67,1.06-3.65,1.47-5.54,1.97-2.92.78-5.87,1.58-8.91,1.59ZM522.61,93.16c3.43-3.4,3.3-9.45,1.48-13.6-.91-2.07-2.72-4.36-5.24-4.13-2.19.2-3.44,2.53-4.09,4.38-1.45,4.09-2.05,11.14,2,14.03,1.85,1.32,4.3.87,5.85-.68ZM491.27,158.61c-2.22-.6-3.64-2.42-4.48-4.46-1.42-3.42-1.61-7.26-1.95-10.9-.13-1.36-.24-2.72-.33-4.09-.99-14.86-.19-29.85,2.52-44.5,1.69-9.17,4-18.4,8.48-26.64,1.35-2.49,2.95-4.87,4.95-6.88,4.48-4.48,10.77-6.14,16.94-6.4,7.75-.33,15.07,2.19,20.6,7.72,3.1,3.11,4.99,7.1,6.85,11.02,6.51,13.8,9.08,29.06,10.36,44.15.75,8.81,1.39,17.71.42,26.53-.35,3.17-.95,6.36-3.21,8.76-3.25,3.47-8.05,2.91-12.37,3s-8.56-.06-11.48-3.55c-3.18-3.79-2.19-9.78-2.12-14.33s.03-9.41-.21-14.11c-.12-2.49-.11-5.05-.84-7.45-.82-2.69-3.55-6.29-6.61-4.05-.52.38-.95.87-1.32,1.39-2.08,2.96-2.17,6.73-2.2,10.21-.03,2.91.03,5.83.12,8.74.13,4.13.28,8.27.12,12.4-.09,2.38-.19,4.94-1.32,7.09-1.21,2.3-3.56,4.11-6.03,4.88-3.42,1.07-7.03,1.16-10.57,1.44-2.09.17-4.24.57-6.32.04ZM581.26,158.47c-5.33-1.35-10.28-3.82-13.48-8.44-3.83-5.53-5.29-13.01-4.35-19.63.44-3.08,1.62-6.9,4.71-8.29,1.5-.68,3.2-.63,4.81-.47,3.22.32,6.31,1.39,9.31,2.56.58.23,1.16.45,1.75.67,1.9.73,5.25,2.76,6.99.71,1.02-1.2.92-2.98.24-4.32-.58-1.15-1.63-1.96-2.62-2.75-1.7-1.38-3.5-2.64-5.31-3.89-7.17-4.97-14.66-10.1-17.72-18.69-1.6-4.47-2.43-9.21-1.84-13.95.4-3.22,1.14-6.42,2.41-9.41,4.74-11.12,16.76-15.51,28.14-15.15,7.66.24,15.63,2.01,21.82,6.75,3.37,2.58,6.59,6.58,7.14,10.91.68,5.27-1.14,11.98-5.07,15.7-4.25,4.03-10.73.93-15.03-1.37-2.46-1.32-5-2.59-7.76-3.1-1.43-.26-2.86-.49-4.05.55-1.58,1.39-2.06,4.41-.95,6.21.59.95,1.66,1.51,2.52,2.18,1.94,1.51,3.94,2.94,5.95,4.35,6.31,4.41,12.39,9.39,16.46,16.03,3.55,5.79,4.35,12.52,2.92,19.11s-4.6,13.54-9.89,18.25c-4.75,4.22-10.62,6.35-16.92,6.64-3.44.16-6.84-.34-10.18-1.14ZM673.24,113.46c4.38-2.03,6.31-7.77,6.01-12.29-.15-2.26-1.07-5.03-3.52-5.66-2.13-.55-4.1,1.21-5.34,2.73-2.75,3.36-5.72,9.78-2.89,13.88,1.29,1.87,3.75,2.28,5.74,1.35ZM621.54,164.36c-1.89-1.31-2.6-3.51-2.7-5.72-.17-3.7.95-7.37,1.87-10.92.34-1.32.7-2.64,1.08-3.95,4.1-14.25,9.93-28,17.39-40.82,4.72-8.11,10.07-16.08,17.13-22.35,2.1-1.86,4.38-3.55,6.92-4.75,5.75-2.73,12.26-2.16,18.18-.3,7.4,2.33,13.42,7.19,16.74,14.26,1.86,3.98,2.27,8.38,2.68,12.69,1.43,15.19-1.38,30.42-5.31,45.04-2.3,8.54-4.72,17.13-8.64,25.09-1.41,2.86-3.06,5.66-6,7.14-4.24,2.14-8.54,0-12.62-1.38s-8.01-2.97-9.56-7.24c-1.7-4.65,1.27-9.95,2.88-14.2s3.22-8.84,4.6-13.34c.73-2.38,1.62-4.79,1.75-7.29.15-2.8-1.2-7.12-4.83-6.05-.62.18-1.19.49-1.71.86-2.96,2.07-4.33,5.59-5.54,8.85-1.02,2.73-1.96,5.49-2.86,8.26-1.28,3.93-2.55,7.87-4.1,11.7-.89,2.21-1.86,4.58-3.65,6.22-1.92,1.76-4.73,2.65-7.31,2.54-3.58-.16-7-1.3-10.42-2.24-2.02-.56-4.18-.91-5.95-2.11ZM756.44,224.45c-2.33-2.47-3.06-5.42-2.11-8.69.78-2.7,2.58-5.03,4.17-7.3,3.55-5.08,7.52-9.89,12-14.17,4.11-3.92,8.06-8.01,11.6-12.46,1.4-1.76,3.28-3.71,3.59-6.04.12-.88-.27-1.68-1.04-2.12-1.06-.61-2.31.15-3.21.71-3.59,2.23-5.38,6.54-7.53,10-1.99,3.2-3.59,7.25-6.92,9.32-2.51,1.56-4.86,1.01-7.32-.32s-4.14-3.43-4.1-6.29c.02-1.63,1.06-3.06,1.86-4.4,1.5-2.49,3.08-4.93,4.63-7.39.56-.9,1.13-1.79,1.69-2.69.41-.66.82-1.32,1.23-1.99.31-.51.62-1.03.93-1.55.98-1.63,4.12-5.62,1.4-7.08-2.44-1.32-4.69,1.99-5.88,3.64-4.33,6.01-6.38,13.33-8.88,20.21-.56,1.53-1.14,3.06-1.75,4.57-2.43,6.06-5.6,14.69-12.68,16.56-4.13,1.09-8.04-.34-11.81-1.97-2.59-1.12-5.09-2.44-7.42-4.03-1.2-.82-2.53-1.69-3.19-3.04-.56-1.13-.27-2.56,0-3.73.67-2.84,1.88-5.52,3.09-8.16,5.38-11.74,11.45-23.15,17.73-34.42,4.5-8.07,9.03-16.13,13.95-23.96,2.65-4.22,5.16-8.93,9.27-11.92,5.56-4.05,11.91-1.46,17.24,1.58,2.41,1.37,4.88,2.85,6.45,5.21,3.94,5.95,2.33,13.44.83,19.91-.51,2.21-1.05,4.42-1.39,6.66-.17,1.14-.35,2.46.37,3.45.56.77,1.49.94,2.39,1.01,1.53.12,2.89-.85,4.12-1.64,2.06-1.32,4.06-2.73,6.08-4.11,5.01-3.44,10.9-7.97,17.38-6.53,4.51,1,8.36,4.05,11.79,6.99,1.53,1.31,3.15,2.69,3.99,4.57,1.48,3.31.46,7.14-.73,10.37-2.68,7.31-7.05,13.85-11.29,20.32-5.51,8.39-11.75,16.27-18.04,24.08-5.35,6.64-10.7,13.29-16.62,19.43-2.65,2.75-6.04,5.8-10.05,6.06-1.12.07-2.22-.14-3.3-.43-1.96-.52-3.64-1.72-5.33-2.78-2.55-1.61-5.14-3.23-7.23-5.44ZM851.79,221.51c4.83.2,9.16-4.05,10.94-8.23.89-2.09,1.3-4.99-.61-6.67-1.65-1.46-4.19-.76-5.98.02-3.97,1.75-9.52,6.12-8.87,11.06.3,2.26,2.33,3.73,4.52,3.82ZM782.43,243.23c-1.1-2.03-.74-4.32.18-6.34,1.53-3.37,4.2-6.13,6.64-8.87.91-1.02,1.82-2.03,2.76-3.03,10.22-10.89,21.76-20.54,34.36-28.56,7.83-4.99,16.13-9.57,25.17-11.94,2.54-.67,5.16-1.12,7.79-1.1,6.55.05,12.31,3.52,16.88,7.99,5.56,5.44,8.7,12.48,8.49,20.31-.12,4.4-1.73,8.52-3.31,12.57-5.56,14.21-14.96,26.52-25.05,37.8-3.46,3.87-7.1,7.59-10.83,11.21-2.62,2.55-5.25,5.1-8.18,7.3-2.55,1.91-5.29,3.65-8.59,3.66-4.78,0-7.67-3.91-10.7-7s-5.83-6.3-5.31-10.84c.56-4.92,5.62-8.31,8.98-11.37s6.88-6.42,10.14-9.81c1.73-1.79,3.61-3.54,4.86-5.71,1.4-2.45,2.13-6.93-1.6-7.62-.63-.12-1.28-.1-1.91,0-3.58.51-6.39,3.02-8.95,5.38-2.14,1.97-4.23,4-6.29,6.06-2.92,2.92-5.84,5.86-8.96,8.57-1.8,1.56-3.74,3.24-6.09,3.88-2.53.69-5.47.18-7.73-1.11-3.13-1.79-5.69-4.37-8.33-6.78-1.57-1.43-3.35-2.74-4.4-4.64ZM887.31,304.78c2.38.8,5.11-.27,7.31-1.16,5.83-2.34,11.35-6.02,15.47-10.78,2.58-2.98,6.22-9.98,1.14-12.48-.58-.28-1.21-.45-1.85-.52-2.71-.27-5.42.71-7.86,1.77-5.73,2.48-10.99,6.33-14.92,11.19-2.16,2.66-4.7,7.13-1.78,10.17.71.74,1.52,1.42,2.48,1.81ZM838.15,300.38c-1.35-2.74-2.18-5.95-.93-8.89,1.45-3.4,4.54-5.92,7.09-8.47,5.58-5.59,11.42-10.9,17.24-16.23,7.77-7.11,15.79-13.95,24.11-20.41,5.06-3.93,10.13-7.98,15.83-10.95,1.52-.79,3.12-1.46,4.81-1.8,6.44-1.32,11.58,3.47,15.19,8.18,2.9,3.77,5.01,8.7,3,13.32-.64,1.47,2.18,2.55,3.08,3.11,4.17,2.59,7.97,5.8,10.74,9.89,6.67,9.87,7.04,22.56,1.75,33.12-5.16,10.29-13.95,18.23-23.85,23.87-12.36,7.04-27.37,11.54-41.65,9.17-11.51-1.92-20.06-9.86-23.04-21.1l-.87-3.72-1.65.05c-3.27-.1-5.55-2.23-7.62-4.53-1.26-1.4-2.46-2.9-3.25-4.62ZM946.76,363.39c3.08,1.31,6.52.86,9.52-.45s6.27-3.41,6.77-6.83c.31-2.14-.63-3.83-2.42-4.98-5.39-3.45-13.61,1.38-16.1,6.49-1.15,2.36-.08,4.71,2.23,5.78ZM878.69,362.12c-.7-3.2-.07-6.35,2.01-8.91,2.47-3.05,5.89-5.13,9.2-7.14,3.84-2.33,7.75-4.57,11.65-6.81,9.28-5.32,18.7-10.4,28.24-15.26,8.24-4.2,16.49-8.65,25.45-11.12,3.6-1,8.12-1.86,11.34.6,2.34,1.79,3.72,4.46,5.1,6.99,1.45,2.67,2.93,5.44,3.16,8.53.14,1.88,0,3.92-.78,5.65-.28.61-1.14,1.24-1.32,1.79-.07.21.35.52.48.64.56.53,1.2.97,1.83,1.43,5.29,3.83,8.96,9.56,10.63,15.84.72,2.68,1.19,5.45,1.14,8.23-.1,6.48-3.51,12.21-7.96,16.71-8.33,8.43-21.36,13.33-33.18,12.57-4.18-.27-8.43-1.25-12.03-3.47l-2.96-1.81-1.85,3.53c-3.14,5.7-7.92,11.47-14.67,12.68-5.44.98-11.54-.29-16.16-3.34-1.58-1.04-3.12-2.4-3.83-4.21-.95-2.43-.46-5.09.5-7.44,1.71-4.18,4.69-7.78,7.51-11.25,1.04-1.27,2.12-2.51,3.21-3.75l2.57-3.04-6.32,2.8c-4.17,1.86-8.75,3.83-13.34,2.26-3.82-1.3-5.74-4.56-7.48-7.96-.79-1.55-1.8-3.04-2.14-4.78ZM905.33,427.24c-.91-5.14-.47-9.99,4.21-13.14,1.15-.77,2.35-1.45,3.61-2.02,3.47-1.56,7.12-2.67,10.7-3.94,6.38-2.27,12.78-4.49,19.19-6.7,7.83-2.7,15.67-5.36,23.53-7.96,4.72-1.56,9.4-3.23,14.22-4.45,2.55-.65,5.21-1.64,7.88-1.43,3.7.3,7.07,2.51,9.4,5.32,3.39,4.08,5.47,9.06,7.31,13.98,3.06,8.17,5.46,16.87,5.14,25.67-.14,3.96-.61,8.51-4.04,11.08-1.04.78-2.23,1.33-3.45,1.77-1.58.56-3.22.95-4.86,1.27-3.53.7-7.85,1.43-11.07-.65-2.73-1.77-3.82-4.79-4.68-7.78-.75-2.62-1.38-5.27-2.03-7.92s-1.29-5.18-2.06-7.74c-.34-1.13-.66-2.48-1.93-2.89-1.97-.63-5.56-.05-6.82,1.75-.6.85-.3,2.08-.16,3.02.41,2.71,1.36,5.3,2.35,7.84s2.24,5.78.25,8.08c-.86,1-2.24,1.46-3.44,1.91-2.97,1.11-6.09,1.79-9.24,2.1-1.36.13-2.92.33-4.19-.31-3.11-1.55-3.16-5.86-3.55-8.84s-.81-8.33-4.98-8.33c-.88,0-1.76.19-2.6.44-.57.17-1.13.4-1.62.72-3.48,2.29-.59,7.14.67,9.88.33.72.67,1.44,1.01,2.16.46.98.94,1.95,1.41,2.92,1.86,3.84,4.44,8.4,1.34,12.34-2.77,3.54-7.89,4.59-12.02,5.56-5.66,1.32-13.28,2.74-17.99-1.69-5.09-4.79-5.72-11.96-7.56-18.31-1.32-4.57-2.55-9.16-3.95-13.71Z"/>
      <path class="cls-2" d="M83.69,740.99c-.59-2.05-.86-4.1-.15-6.16,1.19-3.49,4.17-5.91,7.17-7.85,4.64-3.01,9.67-5.37,14.68-7.72,10.33-4.84,20.9-9.17,31.46-13.49,6.8-2.78,13.5-5.83,20.56-7.9,5.15-1.51,11.78-3.26,16.66-.07,2.58,1.69,3.42,4.86,4.66,7.5s3,5.45,2.53,8.58c-.26,1.7-1.03,3.18-2.17,4.45-3.19,3.57-8.07,5.08-12.2,7.24-1.04.54-2.07,1.09-3.11,1.63-3.06,1.61-8.58,3.31-9.29,7.26-.38,2.12,1.14,4.54,2.71,5.85,3.72,3.1,9.35-1.27,12.67-3.05,1.06-.57,2.11-1.14,3.16-1.71,3.95-2.11,7.94-5.19,12.56-5.53,3.31-.24,5.77,1.47,7.98,3.75,1.86,1.92,3.27,4.22,4.49,6.59,1.65,3.2,3.33,6.77,1.43,10.26-.77,1.42-1.88,2.62-2.98,3.79-3.34,3.55-7.36,6.35-11.33,9.14-5.31,3.72-10.71,7.3-16.09,10.92-9.42,6.33-18.89,12.58-28.57,18.5-3.1,1.9-6.22,3.75-9.41,5.5-1.84,1-3.67,2.12-5.71,2.64-3.2.82-6.98.17-9.48-2.07-1.99-1.77-3.36-4.11-4.81-6.31-2.2-3.32-4.46-6.69-5.77-10.49-.74-2.15-1.33-4.46-1-6.75.92-6.4,8.58-9.13,13.72-11.32,1.33-.57,2.68-1.12,4.02-1.65,3.86-1.52,7.69-3.11,11.34-5.09,1.61-.87,3.45-1.68,4.04-3.58.49-1.59-.41-3.05-1.14-4.4-.82-1.53-1.78-2.65-3.5-3.16-2.24-.68-4.19.75-6.09,1.73-3.27,1.69-6.47,3.51-9.61,5.44-4.41,2.7-9.12,5.29-14.29,6.13-2.29.37-4.82.41-6.9-.73-4.45-2.43-7.37-7.04-9.47-11.5-.99-2.09-2.29-4.09-2.76-6.38ZM131.55,825c-2.87-5.04-5.57-11.26-1.51-16.47.86-1.1,1.81-2.12,2.88-3.01,2.89-2.43,6.14-4.37,9.25-6.49,5.6-3.8,11.23-7.54,16.87-11.27,6.95-4.59,13.91-9.15,20.91-13.66,4.18-2.69,8.29-5.47,12.63-7.9,2.3-1.29,4.57-2.9,7.17-3.52,3.32-.79,6.89-.11,9.83,1.57,3.99,2.28,7.15,5.7,10.17,9.1,4.71,5.31,9.28,10.98,11.95,17.63,1.94,4.83,2.01,9.54-1.64,13.6-1.12,1.25-2.36,2.38-3.63,3.47-2.7,2.31-6.07,5.13-9.85,4.97-3.12-.13-5.4-2.14-7.41-4.33-1.74-1.89-3.36-3.9-4.95-5.92s-3.13-4.03-4.75-6c-.72-.87-1.47-1.91-2.74-1.78-2.04.2-5.14,2.03-5.69,4.14-.26,1.01.47,2.04.96,2.86,1.39,2.31,3.26,4.29,5.2,6.16s4.37,4.2,3.62,7.1c-.33,1.28-1.35,2.31-2.22,3.26-2.14,2.33-4.62,4.37-7.31,6.03-1.17.73-2.5,1.59-3.94,1.53-3.68-.15-5.75-4.36-7.43-7.07s-4.21-7.83-8.21-6.4c-.85.3-1.62.81-2.33,1.36-.43.33-.83.72-1.15,1.16-2.65,3.68,2.67,7.71,5.03,9.87.66.61,1.33,1.2,2.01,1.79.91.79,1.83,1.57,2.75,2.34,3.59,3.01,8.32,6.19,7.81,11.52-.44,4.59-4.23,8.17-7.39,11.16-4.63,4.38-10.79,8.83-17.43,6.22-8.26-3.24-13.16-11.31-18.41-17.97-3.86-4.89-7.47-9.97-11.06-15.06ZM192.23,851.37c6.47-11.55,17.19-20.77,29.17-26.26,15.1-6.92,37.47-9.64,49.18,4.9,2.18,2.7,3.78,5.82,4.95,9.08,1.8,5.06,2.5,10.68,1.93,16.03-.45,4.18-1.27,8.56-4.04,11.88-2.45,2.93-5.96,4.22-9.67,4.62s-7.46-.16-10.49-2.37c-2.26-1.65-2.84-4.13-2.34-6.79.78-4.1,2.3-9.04.21-12.99-2.4-4.54-9.19-2.93-13.01-1.56-.89.32-1.76.68-2.61,1.1-1.12.54-2.21,1.15-3.23,1.87-3.2,2.25-5.86,5.17-8.31,8.19-1.94,2.39-3.83,4.93-4.96,7.82-.96,2.47-1.33,5.63-.14,8.08,2.82,5.79,10.25,4.4,15.33,3.26,1.46-.33,2.97-.61,4.47-.46,2.89.29,5.01,2.45,6.99,4.37,3.69,3.57,8.33,8.52,6.67,14.13-1.09,3.71-4.1,6.55-7.18,8.71-7,4.92-16,7.55-24.55,6.67-5.32-.54-10.63-1.9-15.36-4.43-12.6-6.75-19.83-21.05-19.22-35.15.32-7.29,2.67-14.35,6.2-20.69ZM242.4,938.58c-1.5-1.5-2.71-3.17-3.1-5.3-.66-3.64.77-7.2,2.44-10.36,2.59-4.89,5.84-9.4,9.07-13.88,6.68-9.25,13.82-18.16,20.96-27.06,4.59-5.73,8.97-11.66,14.15-16.89,3.79-3.82,8.75-8.55,14.58-8.11,3.08.23,5.36,2.6,7.73,4.31s5.25,3.33,6.38,6.29c.62,1.61.67,3.29.29,4.97-1.06,4.68-4.59,8.35-7.16,12.24-.65.98-1.29,1.96-1.93,2.93-1.9,2.89-5.9,7.05-4.61,10.86.69,2.03,3.19,3.41,5.18,3.79,4.76.9,7.57-5.63,9.62-8.8.65-1.01,1.29-2.02,1.94-3.02,2.44-3.76,4.44-8.4,8.33-10.91,2.79-1.8,5.78-1.49,8.81-.57,2.56.78,4.9,2.11,7.12,3.59,2.99,2,6.19,4.29,6.2,8.27,0,1.61-.39,3.2-.79,4.75-1.24,4.79-3.42,9.26-5.58,13.68-2.81,5.76-5.77,11.44-8.69,17.15-5.17,10.1-10.44,20.16-16.04,30.02-1.8,3.16-3.63,6.3-5.58,9.37-1.12,1.77-2.18,3.63-3.73,5.08-2.4,2.25-5.99,3.54-9.25,2.81-2.6-.58-4.94-1.98-7.28-3.2-3.53-1.84-7.14-3.69-10.11-6.38-1.69-1.53-3.32-3.27-4.15-5.43-2.33-6.05,3.04-12.16,6.48-16.57.89-1.14,1.8-2.27,2.73-3.38,2.65-3.19,5.23-6.44,7.47-9.94.99-1.54,2.2-3.15,1.78-5.09-.35-1.62-1.83-2.46-3.11-3.29-1.45-.94-2.83-1.44-4.58-1.07-2.29.49-3.3,2.69-4.49,4.46-2.04,3.06-3.96,6.21-5.77,9.41-2.55,4.5-5.42,9.05-9.53,12.29-1.82,1.43-4.02,2.69-6.4,2.7-5.07.02-9.86-2.59-13.86-5.47-1.88-1.35-4-2.47-5.51-4.25ZM368.75,969.02c8.12-.07,12.57-9.32,14.72-15.93,1.25-3.82,2.26-8.03,1.17-12.02-1.71-6.29-8.66-8.46-13.96-4.95-6.69,4.43-10.67,13.65-11.03,21.47-.25,5.5,3.03,11.4,9.09,11.43ZM343.5,996.4c-14.51-10.9-18.54-30.64-14.03-47.55,2.87-10.78,8.93-20.68,16.69-28.64,5.65-5.8,12.51-11.01,20.21-13.74,7.66-2.71,16.05-3.36,23.67-.17,8.83,3.71,14.47,11.64,17.77,20.37,6.85,18.07,3.79,40.16-6.73,56.22-8.78,13.4-24.62,22.93-40.98,20.39-5.95-.92-11.76-3.31-16.6-6.89ZM444.65,997.25c-1.57-13.15,1.68-26.9,8.12-38.39,1.26-2.25,2.66-4.42,4.18-6.5,8.52-11.64,22.76-22.63,38.03-18.62,3.37.89,6.53,2.47,9.41,4.43,4.43,3.01,8.3,7.13,10.97,11.77,2.09,3.63,4.02,7.66,3.76,11.96-.24,3.8-2.3,6.93-5.04,9.45s-6.07,4.29-9.81,4.3c-2.79,0-4.74-1.65-5.9-4.09-1.79-3.74-3.44-8.64-7.44-10.59-4.61-2.25-9.14,3.08-11.39,6.43-.53.78-1.01,1.59-1.45,2.42-.58,1.1-1.1,2.23-1.5,3.41-1.25,3.7-1.67,7.64-1.88,11.52-.16,3.07-.19,6.24.6,9.23.68,2.56,2.24,5.33,4.66,6.6,5.7,3.01,10.85-2.5,14.25-6.44.94-1.09,1.95-2.18,3.19-2.94,2.52-1.56,5.57-1.07,8.35-.69,5.08.7,11.72,1.95,13.71,7.43,1.32,3.63.57,7.71-.62,11.27-2.72,8.1-8.4,15.56-15.81,19.92-4.61,2.71-9.7,4.75-15.01,5.51-13.66,1.95-27.62-4.79-35.5-15.93-4.47-6.31-6.96-13.83-7.89-21.47ZM571.34,1001.11c7.27-3.61,7.26-13.87,6.32-20.75-.54-3.98-1.47-8.21-4.19-11.33-4.28-4.91-11.46-3.84-14.71,1.62-4.1,6.9-3.67,16.93-.57,24.13,2.17,5.05,7.69,8.94,13.15,6.33ZM560.54,1036.75c-17.81-3.49-30.05-19.51-33.34-36.69-2.1-10.95-.95-22.5,2.55-33.05,2.55-7.69,6.48-15.36,12.23-21.17s12.97-10.02,21.23-10.46c9.56-.51,18.08,4.18,24.84,10.59,14.02,13.3,20.92,34.49,18.44,53.53-2.07,15.89-12.17,31.37-28.01,36.21-5.75,1.76-12.02,2.15-17.94,1.03ZM632.05,1029.01c-2.01-.11-4.05-.43-5.85-1.39-5.26-2.82-6.9-9.57-8.56-14.81-2.83-8.95-3.93-18.33-5.46-27.56-1.8-10.88-3.81-21.74-4.46-32.77-.24-4.09-.52-8.2-.21-12.29.15-2.04.45-4.38,1.91-5.94.86-.92,2.03-1.46,3.17-1.97,2.31-1.04,4.78-1.7,7.28-2.08,1.99-.31,3.99-.5,5.88.36,6.94,3.13,11.72,9.85,16.37,15.6,2.2,2.73,4.4,5.47,6.92,7.93.76.74,1.97,2.14,3.18,1.72,1.36-.48-.06-2.84-.35-3.64-1.21-3.37-3.16-6.42-4.99-9.47-2.76-4.61-8.15-12.16-4-17.44,1.26-1.6,3.06-2.64,4.84-3.57,3.73-1.96,7.89-3.68,12.18-3.51,1.53.06,3.07.31,4.48.95,4.24,1.93,6.7,6.61,8.79,10.52,2.36,4.42,4.4,8.99,6.41,13.57,1.17,2.68,2.33,5.36,3.47,8.05,3.81,8.94,7.2,18.05,10.43,27.21.76,2.15,1.51,4.29,2.25,6.45.58,1.68,1.14,3.36,1.7,5.05,1.83,5.56,5.58,13.45,1.21,18.76-1.47,1.78-3.56,2.94-5.58,4-4.31,2.27-9.04,4.08-13.95,4.28-2.17.09-4.42-.04-6.4-1.03-2.67-1.35-4.46-3.91-5.99-6.38-2.63-4.25-4.7-8.8-6.77-13.33-3.79-8.29-7.66-17.04-14.45-23.35-1.25-1.16-3.4-3.07-5.28-2.43-1.24.42-1.05,2.37-.93,3.37.4,3.27,1.93,6.24,3.33,9.17,2,4.17,4.62,7.99,7.17,11.84,3.29,4.98,6.87,9.97,8.43,15.82,1.39,5.22-.52,10.17-5.03,13.14-3.18,2.09-7.03,2.69-10.67,3.57-3.42.82-6.9,1.89-10.46,1.63ZM757.37,915.93c1.4-4.61-1.75-9.8-5.2-12.64-1.61-1.32-4.18-2.72-6.19-1.42-1.75,1.13-1.63,3.77-1.37,5.56.62,4.23,3.08,10.9,7.94,11.73,2.22.38,4.2-1.16,4.82-3.24ZM749.55,990.68c-7.04.95-9.69-7.13-11.7-12.32-.49-1.28-.97-2.56-1.43-3.84-5.02-14.2-8.27-28.98-10.53-43.86-1.35-8.95-2.52-18.05-1.98-27.12.16-2.66.49-5.33,1.28-7.88,1.61-5.18,5.47-8.95,10.11-11.56,5.92-3.34,12.47-3.76,18.92-1.73,4.03,1.27,7.53,3.71,11.02,6.02,12.67,8.36,23.63,19,33.76,30.25,5.91,6.56,12.01,13.16,16.4,20.88,1.66,2.93,2.87,5.98,2.01,9.38-1.43,5.61-7.15,8.52-11.6,11.45s-9.22,5.89-14.56,4.58c-5.06-1.24-7.01-7.22-9.11-11.33s-4.43-8.31-6.89-12.32c-1.3-2.12-2.52-4.39-4.35-6.12-2.21-2.09-6.35-3.61-8.2-.26-.32.58-.52,1.23-.65,1.88-.68,3.6.79,7.06,2.25,10.27,1.21,2.65,2.5,5.27,3.82,7.86,1.88,3.69,3.77,7.37,5.3,11.22.9,2.26,1.81,4.73,1.39,7.21-.52,3.1-2.77,5.93-5.22,7.79-3.73,2.84-8.06,4.73-12.3,6.67-2.5,1.14-4.99,2.51-7.74,2.9ZM879.66,903.67c-3.18,2.13-6.77,3.12-10.38,1.38-2.55-1.23-4.37-3.62-6.16-5.73-4.03-4.73-7.6-9.86-10.55-15.34-2.7-5.01-5.72-9.86-9.25-14.34-1.39-1.77-2.87-4.04-5.07-4.86-.84-.32-1.71-.11-2.33.54-.85.89-.44,2.29-.12,3.32,1.24,4.06,4.96,6.86,7.78,9.8,2.59,2.71,6.24,5.27,7.23,9.09.81,3.11-.79,5.44-2.92,7.54s-4.93,3.52-7.97,2.67c-1.59-.44-2.64-1.9-3.66-3.09-1.89-2.21-3.7-4.49-5.54-6.74-.67-.82-1.34-1.64-2.02-2.45-.5-.6-1-1.2-1.5-1.79-.39-.46-.78-.92-1.18-1.38-1.26-1.47-4.02-5.66-6.31-3.56-2.05,1.88.27,5.09,1.42,6.79,4.18,6.16,10.44,10.5,16.26,14.97,1.3,1,2.59,2.01,3.86,3.05,5.24,4.26,12.66,10.04,11.08,17.74-1.05,5.12-4.91,8.91-8.62,12.3-2.73,2.48-5.65,4.76-8.79,6.7-1.57.97-3.27,2.07-5.15,2.28-1.38.15-2.66-.61-3.72-1.4-2.35-1.75-4.23-4.06-6.05-6.34-8.05-10.1-15.3-20.81-22.41-31.58-5.09-7.71-10.18-15.43-14.97-23.34-2.58-4.25-5.6-8.53-6.75-13.45-1.41-5.99,2.1-10.08,6.55-13.51,1.84-1.42,3.75-2.84,6.11-3.19,6.54-.96,12.71,3.42,17.91,6.77,1.89,1.22,3.77,2.45,5.76,3.49.98.51,2.16,1.13,3.28.77.86-.27,1.24-1.09,1.51-1.88.48-1.41-.14-2.95-.6-4.28-.78-2.28-1.68-4.52-2.57-6.76-2.08-5.21-5.49-11.74-3.31-17.44,1.39-3.62,4.51-6.3,7.44-8.68,1.3-1.06,2.66-2.18,4.35-2.52,3.31-.66,6.77,1.11,9.57,2.66,6.78,3.76,12.78,8.75,18.77,13.63,7.78,6.34,15.06,13.26,22.23,20.28,6.09,5.96,12.22,11.93,17.6,18.56,2.58,3.18,4.93,7.17,4.17,11.42-.24,1.34-.81,2.6-1.43,3.8-1.19,2.3-3.05,4.17-4.79,6.06-2.68,2.91-5.45,5.81-8.75,8.02ZM908.37,818.88c2.09-7.83-5.61-14.62-11.4-18.46-3.36-2.23-7.15-4.3-11.28-4.33-6.54-.05-10.46,6.1-8.53,12.15,2.43,7.65,10.31,13.94,17.73,16.38,5.23,1.72,11.83.09,13.48-5.74ZM927.97,850.57c-14.35,11.09-34.49,9.65-49.56.83-9.63-5.64-17.55-14.11-23.16-23.71-4.09-6.99-7.31-15.01-7.83-23.16s1.1-16.43,6.24-22.95c5.95-7.53,15.11-10.91,24.43-11.71,19.31-1.66,39.68,7.03,52.38,21.55,10.56,12.08,15.4,29.92,8.59,45.01-2.47,5.49-6.35,10.44-11.08,14.15ZM932.58,732.97c-.99-3.18-3.61-5.47-6.54-6.88-2.77-1.34-6.55-2.6-9.47-.99-1.76.97-2.39,2.59-2.1,4.54.92,6.16,9.56,9.71,15.09,8.58,2.55-.52,3.7-2.82,3.02-5.25ZM969.1,792.77c-2.54,2.73-5.9,4.74-9.74,4.45s-7.54-2.28-10.95-4.2c-3.91-2.22-7.75-4.56-11.59-6.91-9.13-5.58-18.08-11.45-26.93-17.47-7.65-5.2-15.45-10.29-22.18-16.69-2.5-2.38-5.76-5.61-5.64-9.35.08-2.46,1.34-4.6,2.47-6.7,1.2-2.24,2.42-4.54,4.55-6.04,1.38-.97,3.02-1.74,4.72-1.91.62-.06,1.53.3,2.07.17.19-.05.16-.51.17-.66.04-.69-.03-1.38-.09-2.06-.49-5.51.97-10.99,4.14-15.52s7.92-8,13.51-9.13c2.6-.53,5.28-.63,7.93-.59,11.71.17,24.75,4.89,32.73,13.68,2.91,3.2,5.2,7.08,5.95,11.39l.66,3.64,3.94-1.41c6.14-2.18,14.07-3.91,19.83.17,4.86,3.45,7.5,9.43,8.1,15.23.27,2.59.11,5.34-1.06,7.72-3.76,7.65-13.54,8.77-21.08,9.24-1.71.11-3.43.16-5.14.18l-4.14.1,6.03,3.38c4.23,2.36,8.39,5.08,9.31,10.2s-1.51,9.3-3.87,13.38c-1.14,1.96-2.13,4.07-3.72,5.71Z"/>
    </g>
  </g>
</svg>