<?xml version="1.0" encoding="UTF-8"?>
<svg id="Capa_2" data-name="Capa 2" xmlns="http://www.w3.org/2000/svg" viewBox="0 0 1080 1080">
  <defs>
    <style>
      .cls-1 {
        fill: #faf2e7;
      }
    </style>
  </defs>
  <g id="Capa_1-2" data-name="Capa 1">
    <g>
      <rect class="cls-1" x="0" y="0" width="1080" height="1080" rx="540" ry="540"/>
      <g>
        <path d="M662.88,658.83c-.84-2.14-.7-2.6-1.88-6.46,0,0-2.3-7.55-5.84-14.5-6.09-11.96-19.57-22.82-21.76-24.57-2.59-14.65-6.3-26.26-9.36-34.39-5.79-15.41-8.72-17.07-10.77-17.32-5.22-.66-10.45,7.13-18.72,19.42-4.14,6.14-7.22,11.58-9.36,15.67-8.06-.49-18.2-.39-29.72,1.41-10.02,1.57-18.61,4.05-25.51,6.55-4.61-5.62-11.65-13.77-21.05-22.93-13.78-13.43-16.86-13.69-18.72-13.33-8.75,1.65-11.99,20.81-14.92,38.04-1.51,8.9-3.47,21.03-1.93,37.06.84,8.77,2,20.93,8.19,34.86,4.86,10.96,8.34,22.49,12.63,33.7.47,1.23,2.24,4.78.7,7.25-.7,1.11-2.04,1.98-3.4,1.99-.96.01-3.06-.4-5.73-5.03-15.64-27.11-20.82-58.25-20.82-58.25-5.2-31.25-7.8-46.88-7.95-50.3-2.34-52.68-2.35-53.82-2.35-53.82,0-.49-.01-5.27-1.39-11.85-.43-2.03-.98-4.23-1.7-6.53-.13-.41-.27-.85-.41-1.28,0,0-3.11-9.22-11-16.38-.83-.75-2.23-1.9-4.21-2.11-1.61-.16-4.14.24-5.49,1.99-1.5,1.92-.55,4.19-.73,7.23-.08,1.11-.29,2.34-.84,3.67-.21.52-.49,1.1-.94,1.6-.23.27-.52.52-.88.72-1.26.69-2.89.52-3.95-.05-1.52-.82-2.51-2.85-2.83-5.18h-.01c-.27-1.97-.07-4.16.71-6.01.79-1.89,2.94-5.26,4.2-7.25.72-1.11,1.18-1.79,1.06-2.69-.29-2.16-3.72-3.62-6.29-3.87-.23-.02-4.54-.36-7.63,2.81-1.19,1.22-1.82,2.59-2.23,3.94-.26.85-.41,1.7-.58,2.5-.26,1.31-.34,2.43-.34,3.44-.01,3.24.84,5.06-.6,6.97-1.27,1.67-3.72,2.68-5.26,1.99-2.59-1.15-2.3-6.94-1.76-9.83.25-1.32.67-2.61,1.05-3.64.35-.95.69-1.67.83-1.98.6-1.29,1.16-2.24,1.59-2.99.73-1.22,1.14-1.92.86-2.74-.52-1.52-3.05-2.33-5.03-2.23-.57.03-1.11.14-1.64.31-1.79.57-3.31,1.85-4.51,3.27-1.74,2.02-2.84,4.31-3.21,5.09-2.03,4.24-2.1,8.04-2.11,10.65-.04,7.45,2.34,13.42,3.97,16.73,2.24,4.52,6.98,11.81,11.46,16.74.5.55,1.61,1.73,2.46,3.62,1.81,4.03,1,7.96.82,9.01-1.65,9.37-2.19,68.84,2.18,104.9,1.71,14.12,3.75,30.86,10.61,51.17,2.26,6.69,6.82,19.04,11.22,37.12,3.2,13.15,3.6,18.18,3.75,20.58.37,6.22-.01,11.6-3.43,32.76-.62,3.85-1.39,8.45-2.28,13.67-.98,5.73,3.42,10.97,9.24,10.97h211.51c5.65,0,10.01-4.94,9.31-10.54-1.39-11.07-2.94-22.35-4.65-33.84-1.91-12.86-3.96-25.43-6.11-37.68-.46-2.63.22-5.33,1.87-7.43,2.59-3.3,5.71-7.56,8.93-12.69,6.31-10.02,13.2-20.99,15.76-36.34,1.99-11.96,3.82-22.95-2.34-29.95-2.86-3.25-7.88-6.14-10.77-13.43ZM574.27,672.43c-3.94,10.3-16.07,12.24-17.94,12.53-9.1,1.45-19.42-2.1-24.87-10.06-1.11-1.63-4.65-6.97-3.75-14.04,1.17-9.14,8.81-13.98,10.06-14.74,10.24-6.23,25.68-3.14,33,6.78.85,1.17,7.15,10.01,3.51,19.52ZM607.71,677.81c-.5,1.46-1.35,2.36-2,3.01-1.06,1.09-3.26,3.35-6.48,3.32-2.52-.02-4.28-1.44-5.54-2.46-1.07-.86-2.82-2.27-3.28-4.67-.14-.71-.34-1.78.12-2.82,1.29-2.93,6.75-2.89,9.47-2.87,3.18.01,6.58.03,7.74,2.17.88,1.62.14,3.79-.04,4.31ZM645.87,664.49c-1.09,1.95-5.65,9.27-14.5,10.3-9.12,1.05-15.31-5.44-16.62-6.9-6.32-7.08-5.24-15.78-5.02-17.32.23-1.57.86-5.65,3.97-9.59.66-.84,5.59-6.88,14.04-7.37,10.85-.63,17.21,8.51,17.55,9.01,4.66,6.96,4.11,15.62.58,21.87Z"/>
        <path d="M558.14,651.04c-.23-.13-3.52-2.02-6.65-.7-5.24,2.21-4.88,11.16-4.82,12.63.1,2.4.39,9.77,5.51,11.98,2.5,1.09,5.83.8,8.06-.98,3.08-2.46,2.82-6.79,2.57-11-.23-3.99-.56-9.49-4.67-11.93Z"/>
        <path d="M631.74,643.53c-.64-.58-2.19-1.94-4.24-1.85-2.12.11-3.57,1.75-4.04,2.28-5.15,5.82-.35,19.5,3.7,20.99,1.69.62,3.26.36,3.26.36,0,0,1.26-.21,2.39-.96,3.35-2.23,4.95-15.48-1.08-20.82Z"/>
        <path d="M646.76,534.45c-7.24,3.47-14.25,6.22-21.24,8.41.38,2.07.54,4.3.31,6.64-.28,2.78-.98,4.42-.32,7.33.71,3.08,2.15,4.13,3.57,7.34,1.32,2.98,1.56,5.43,1.89,9.04.2,2.24.39,5.82.57,10.54h0c3.11,9.32,5.31,18.24,6.87,26.6,5.97,4.51,14.86,12.52,21.62,25.05,3.32,6.16,5.35,11.98,6.63,16.83.11-30.21.24-60.41.35-90.63.01-1.52.25-3.81,1.55-6.08.83-1.45,1.78-2.33,2.27-2.81,2.69-2.55,4.92-5.52,7.57-8.11,4.08-4,8.48-11.2,10.25-16.87,2.33-7.47.9-14.87-1.12-20.45-10.83,12.82-26.99,20.57-40.76,27.19Z"/>
        <polygon points="666.66 652.21 666.66 652.21 666.66 652.21 666.66 652.21"/>
        <path d="M513.52,397.25c-3.04,2.06-9.01,6.07-16.75,11.81,10.02,4.05,21.34,9.62,33.12,17.51,3.19,2.13,6.56,4.54,10.05,7.24h0c9.11-7.42,20.45-15.18,34.71-21.94,2.53-1.2,5-2.29,7.42-3.3-12.47-9.32-20.09-13.84-24.19-16.18-6.68-3.82-12.89-6.93-18.21-9.4-8.63,3.7-17.47,8.35-26.16,14.24Z"/>
        <path d="M586.05,392.41c4.96,3.01,10,6.09,15.09,9.69,9.55-2.6,18.9-4.27,29.05-6.09,2.48-.45,4.98-.86,7.48-1.24-25.54-14.09-53.22-19.15-69.22-21.28,0,0,0,0,0,0-4.11,1.01-8.4,2.19-12.82,3.6,9.14,3.74,19.53,8.72,30.42,15.33Z"/>
        <path d="M680.19,434.02c-7.96-12.9-18.25-23.06-29.48-31.08-10.7,2.7-22.73,6.21-35.18,10.93,0,0,0,0,0,0,2.13,2.03,4.26,4.21,6.4,6.59,15.58,17.32,25.89,38.44,23.1,40.58-2.52,1.94-14.07-13.03-46.17-39.31-.24-.19-.46-.38-.7-.57-9.63,4.48-19.25,9.76-28.48,16.01-5.26,3.57-10.07,6.89-14.43,9.97,0,0,0,0,0,0,5.19,5.09,10.39,10.85,15.37,17.33,9.82,12.77,19.64,29.44,17.31,31.35-2.04,1.68-12-9.22-30.89-24.8-4.06-3.35-9.67-7.95-16.61-13.2-12.77,9.44-18.8,14.61-18.8,14.61-15.54,13.32-27.09,25.38-29.33,23.56-2.22-1.8,6.47-16.01,8.43-19.2,8.04-13.12,16.44-21.74,19.34-24.64,1.61-1.61,3.35-3.36,5.25-5.19-7.56-5.15-16.04-10.52-25.37-15.71-2.16-1.2-9.15-5.06-19.11-9.75-4.31,3.55-8.85,7.43-13.49,11.62-18.63,16.81-28.89,29.3-30.96,27.77-2.27-1.69,6.13-19.66,18.48-35.25,3.22-4.06,6.56-7.76,9.97-11.17-6.8-2.78-14.22-5.55-21.98-8.01-5.09-1.61-10.03-3.05-14.57-4.3-11.14,7.64-21.56,17.69-29.42,31.13-4.04,6.9-20.25,34.64-9.51,58.19,1.51,3.31,3.38,6.16,5.71,8.82,1.98-1.09,3.87-1.52,5.47-1.61.21-.01.41-.01.63-.01,3.42,0,7.34,1.41,9.19,4.52,3.52-2.48,7.33-2.78,8.99-2.78.61,0,.99.04,1.08.04,4.89.47,10.47,3.34,11.18,8.56.09.61.09,1.18.04,1.71,1.14-.33,2.34-.5,3.58-.5.44,0,.85.02,1.23.07,3.92.39,6.49,2.73,7.33,3.49,8.83,8.01,12.35,18.23,12.5,18.67.63,1.88,1.17,3.71,1.59,5.46h.01c3.22,1.16,5.66,1.93,7.1,2.37,6.13,1.87,30.05,8.83,80.18,6.87,32.06-1.27,55.4-2.18,78.83-9.55,6.72-2.11,13.44-4.75,20.37-8.08,14.23-6.82,30.65-14.71,40.65-27.92,3.26-4.31,5.85-9.2,7.45-14.82,6.39-22.49-6.75-43.77-12.31-52.77Z"/>
        <path d="M478.37,402.69c13-9.89,26.45-16.63,38.58-22.6,2.44-1.2,4.87-2.39,7.32-3.56-.34-.13-.65-.24-.92-.34-3.59-1.32-7.05-2.48-10.36-3.51,0,0,0,0-.01,0-13.51,1.65-24.23,4.36-31.42,6.48-10.85,3.2-25.8,7.6-40.71,15.45,0,0,0,0-.01,0,8.59,1.16,17.83,2.85,27.3,5.29,2.89.74,6.34,1.64,10.24,2.79Z"/>
        <path d="M571.38,330.92c.96,14.41,15.95,25.83,18.61,24.33,1.98-1.11-4-8.71-3.04-20.36,1.39-16.86,15.53-20.32,15.98-33.93.53-15.84-18-30.08-20.2-28.64-1.26.82,3.88,6.2,4.68,15.54,1.63,19.02-17.16,26.27-16.04,43.05Z"/>
        <path d="M470.84,330.92c.96,14.41,15.95,25.83,18.61,24.33,1.98-1.11-4-8.71-3.04-20.36,1.39-16.86,15.53-20.32,15.98-33.93.53-15.84-18-30.08-20.2-28.64-1.26.82,3.88,6.2,4.68,15.54,1.63,19.02-17.16,26.27-16.04,43.05Z"/>
        <path d="M543.2,353.62c3.05-2.28-4.68-11.34-5.15-24.1-.83-22.75,22.45-29.3,23.63-50.07,1.28-22.37-24.16-42.08-27.61-40.01-2.72,1.63,9.64,15.91,5.37,33.93-3.49,14.7-13.92,14.44-19.09,30.81-4.12,13.03-2.34,28.44,5.77,38.92,5.44,7.03,14.32,12.6,17.08,10.53Z"/>
      </g>
      <path d="M123.1,493.57c-1.38-2.01-4.15-2.85-6.36-3.54-5.99-1.88-12.53-2.64-18.77-1.81-3.55.47-11.21,2.98-8.88,7.98.27.57.65,1.08,1.11,1.51,1.98,1.86,4.68,2.83,7.24,3.58,5.95,1.73,12.4,2.21,18.52,1.14,3.12-.54,8.18-2.04,7.88-6.07-.07-.96-.24-1.94-.74-2.78ZM157.85,526.27c-.74,2.86-2.35,5.46-5.06,6.81-3.31,1.65-7.4,1.43-10.99,1.65-7.84.48-15.7.82-23.55,1.05-10.04.3-20.09.27-30.13-.14-6.89-.28-13.84-.58-20.62-1.95-1.46-.29-2.9-.7-4.24-1.34-5.94-2.84-7.15-9.3-6.84-15.3.24-4.56,1.96-9.14,6.31-11.14,1.42-.65-.02-3.09-.36-4.03-1.56-4.31-2.37-8.92-1.86-13.51,1.25-11.33,9.42-20.14,19.77-24.26,10.62-4.23,22.4-4.29,33.51-2.25,13.9,2.55,28.07,8.36,37.93,18.79,7.51,7.95,9.32,18.9,4.19,28.64l-1.73,3.11,1.29.96c2.38,1.99,2.79,4.8,2.89,7.73.06,1.73-.03,3.49-.51,5.16ZM129.85,458.25c-10.68-.59-21.23-2.34-31.72-4.36-8.44-1.63-17.44-2.66-25.06-6.92-2.63-1.47-4.46-3.77-5.26-6.68-1.49-5.43.24-11.43,2.71-16.3,1.03-2.04,2.37-4.2,4.52-5.21,2.43-1.14,5.48-.33,7.97.18,6.61,1.35,12.98,3.63,19.29,5.97,5.29,1.96,10.67,3.67,16.16,4.97,2.9.69,5.86,1.43,8.86,1.39,2.34-.03,5.61-.72,5.86-3.57.19-2.22-1.47-4.14-3.36-5.07-2.73-1.35-5.75-1.98-8.67-2.81-5.49-1.58-11.01-3.04-16.6-4.24-5.29-1.14-10.52-2.53-15.71-4.06-2.54-.75-5.24-1.25-7.53-2.65-2.26-1.38-3.67-3.42-4.21-6.01-.67-3.27.93-6.47,1.9-9.5s1.69-6.17,3.56-8.74c3.73-5.1,10.77-4.09,16.18-3.13,6.87,1.22,13.4,3.78,19.93,6.14,6.49,2.35,13.04,4.59,19.19,7.74,11.47,5.88,23.97,13.36,30.41,24.99,2.24,4.04,3.64,8.7,3.69,13.34.12,11.61-9.28,19.62-19.74,22.57-7.24,2.05-14.91,2.32-22.38,1.96ZM186.12,394.53c-2.77,4.11-6.36,6.61-11.48,6.32-1.61-.09-3.22-.33-4.8-.65-4.12-.84-8.09-2.3-12.08-3.62-6.54-2.16-13.05-4.43-19.42-7.06-4.92-2.03-9.88-3.97-14.81-5.97-8.7-3.52-17.32-7.26-25.69-11.51-1.39-.7-2.76-1.46-4.02-2.39-4.46-3.3-3.87-8.33-2.12-12.97,2.13-5.65,5.77-12.48,12.7-12.47,3.6,0,7.03,1.57,10.25,3.01,6.58,2.94,12.77,6.68,19.01,10.27,5.36,3.08,10.82,6.04,16.67,8.06,1.69.58,4.53,1.87,6.21.69.89-.63,1.31-1.7,1.67-2.68.81-2.18,1.14-4.5,1.48-6.79.46-3.11.63-7.93,4.42-8.84,4.24-1.02,8.82,1.82,12.5,3.55,6.59,3.11,14.95,7.78,16.88,15.44.31,1.21.43,2.46.36,3.71-.3,5.56-1.99,10.84-4.02,15.98-1.07,2.71-1.97,5.54-3.71,7.92ZM176.63,343.28c-12.79-3-25.2-9.38-34.46-18.78-11.07-11.23-18.14-28.99-10.73-44.1,1.12-2.28,2.54-4.4,4.21-6.31,2.49-2.85,5.52-5.2,8.83-7,4.93-2.69,10.69-4.21,16.31-4.1,4.23.08,8.7.65,12.16,3.3,3,2.3,4.47,5.73,5.17,9.36.66,3.43.6,7.11-1.18,10.21-1.34,2.33-3.72,3.03-6.28,2.84-4.08-.3-9.22-1.19-12.73,1.52-1.8,1.39-2.06,3.86-1.73,5.96.72,4.61,3.6,8.82,7.05,11.85,2.93,2.58,6.38,4.51,9.85,6.26,2.73,1.38,5.57,2.7,8.58,3.34,2.37.5,5.38.57,7.49-.8,4.79-3.14,1.25-9.99-.52-13.86-.56-1.22-1.09-2.49-1.25-3.83-.32-2.68,1.38-4.83,2.97-6.78,3.05-3.72,7.34-7.66,12.55-6,3.61,1.15,6.51,3.96,8.9,6.79,5.07,5.99,9.11,13.64,10.22,21.47.59,4.12.73,8.45-.32,12.51-2.83,11-14.01,16.52-24.5,17.71-6.87.78-13.87,0-20.58-1.55ZM244.68,297.37c-3.75,3.47-7.84,5.39-12.84,3.17-1.26-.56-2.48-1.21-3.64-1.95-3.17-2.04-6.08-4.45-9.08-6.72-5.39-4.09-10.75-8.21-16.11-12.34-6.59-5.09-13.16-10.2-19.69-15.36-3.9-3.08-7.86-6.08-11.55-9.42-1.95-1.77-4.23-3.42-5.59-5.72-1.82-3.08-2.03-6.92-1.09-10.32,1.39-4.98,4.29-9.37,7.31-13.51,4.65-6.38,10.02-12.51,16.86-16.62,4.64-2.78,9.65-3.84,14.27-.39,1.34,1,2.58,2.15,3.77,3.33,2.53,2.51,5.57,5.63,5.79,9.4.18,3.09-1.52,5.52-3.41,7.78-1.62,1.94-3.34,3.8-5.04,5.67-1.68,1.84-3.35,3.68-4.93,5.61-.71.87-1.56,1.81-1.17,3.01.63,1.95,3.09,4.56,5.25,4.69.98.06,1.79-.78,2.46-1.38,1.91-1.7,3.42-3.8,4.84-5.9,1.4-2.07,3.32-4.71,6.18-4.28,1.3.19,2.44,1.08,3.47,1.83,2.56,1.86,4.88,4.06,6.9,6.5.87,1.05,1.91,2.22,2.13,3.61.51,3.28-2.78,5.54-4.93,7.39-2.28,1.97-6.04,4.95-3.73,8.27.5.72,1.15,1.34,1.82,1.9.47.39.99.75,1.55.99,3.67,1.59,5.84-3.08,7.33-5.57.38-.64.76-1.28,1.13-1.93.5-.87.99-1.74,1.48-2.62,1.99-3.54,4.14-7.91,8.92-7.41,4.42.46,8.12,4.1,11.22,6.97,4.19,3.89,9.68,9.34,8.9,15.62-.83,6.59-6.14,10.79-10.15,15.56-2.86,3.4-5.8,6.72-8.62,10.15ZM283.06,178.21c.5-3.25-.74-6.46-2.63-9.06-2.02-2.79-6.9-7.51-10.54-4.59-1.86,1.5-1.83,4.44-1.28,6.54,1.19,4.57,5.5,9.82,10.39,10.58,2.15.33,3.66-1.55,4.05-3.47ZM289,243.37c-3.53-1.91-6.29-4.89-8.98-7.8-3.06-3.31-6.04-6.69-9.03-10.06-7.05-7.98-13.91-16.13-20.58-24.43-5.8-7.21-11.84-14.38-16.19-22.59-1.68-3.18-3.6-7.36-2.02-10.93,1.11-2.51,3.28-4.28,5.31-6.02,2.15-1.84,4.39-3.72,7.18-4.45,1.73-.45,3.65-.65,5.4-.19.61.16,1.44.91,1.98.96.21.02.4-.43.48-.58.37-.64.64-1.32.91-2.01,2.27-5.68,6.74-10.21,12.17-12.94s11.63-3.67,17.43-1.59c2.54.91,4.9,2.27,7.13,3.77,6.95,4.68,12.18,11.76,15.82,19.22,1.62,3.32,2.98,6.82,3.58,10.47.9,5.45.69,11.4-2.09,16.32-1.06,1.87-2.49,3.49-3.96,5.05-2.8,2.97-6.72,4.71-10.63,5.65-1.12.27-2.3.53-3.26,1.2-.25.19-.5.38-.75.56l8.68,11.33c1.84,2.41,3.69,4.81,5.51,7.23,1.47,1.96,3.03,3.94,3.68,6.35.7,2.56,1.04,6.34-.74,8.56-3.38,4.21-7.82,9.02-13.78,8-1.14-.2-2.24-.59-3.27-1.09ZM338.51,141.64c1.49-4.5-1.25-9.88-4.53-12.89-1.56-1.44-4.08-2.92-6.18-1.69-1.82,1.07-1.81,3.72-1.59,5.55.52,4.24,2.9,10.86,7.65,11.93,2.12.48,4.01-.92,4.66-2.9ZM339.66,212.95c-2.16.3-4.09-.8-5.62-2.23-2.73-2.57-4.53-6.02-6.38-9.23-.68-1.18-1.35-2.37-2.01-3.57-7.07-12.99-12.68-26.78-16.6-41.04-2.46-8.94-4.45-18.21-4.14-27.53.08-2.52.38-5.06,1.09-7.49,1.75-5.95,6.4-10.19,11.78-12.97,6.53-3.37,13.78-3.83,20.61-1.06,3.98,1.61,7.24,4.48,10.43,7.28,11.42,9.98,19.98,22.77,27.43,35.86,4.37,7.68,8.69,15.48,11.62,23.85,1.04,2.96,1.92,6.09,1.03,9.21-1.23,4.36-5.44,5.79-9.1,7.61s-7.3,3.25-11.15,1.28c-4.36-2.23-6.01-8.01-7.87-12.14-1.94-4.29-3.97-8.53-6.17-12.69-1.16-2.2-2.23-4.53-3.87-6.42-1.69-1.96-5.63-4.41-7.31-1.08-.28.55-.43,1.16-.52,1.77-.51,3.54,1.04,6.96,2.47,10.09,1.21,2.65,2.49,5.26,3.81,7.86,1.86,3.69,3.74,7.37,5.36,11.18.93,2.18,1.93,4.52,1.89,6.94-.04,2.48-1.22,5.05-3.04,6.73-2.45,2.28-5.49,3.75-8.4,5.36-1.71.95-3.38,2.13-5.36,2.43ZM411.09,114.46c1.51-2.93,1.34-6.37.38-9.44-.92-2.96-2.57-6.6-5.8-7.56-1.95-.58-3.6.12-4.79,1.72-3.72,4.99.16,13.54,4.7,16.71,2.06,1.44,4.33.7,5.51-1.43ZM404.24,181.2c-3.13.24-6-.93-8.13-3.22-2.66-2.87-4.3-6.5-5.9-10.02-1.86-4.1-3.61-8.24-5.37-12.38-4.18-9.85-8.13-19.8-11.85-29.83-3.22-8.66-6.68-17.36-8.21-26.52-.6-3.55-1.09-8.13,1.53-11.04,1.84-2.03,4.45-3.02,6.93-4.02,2.63-1.06,5.34-2.14,8.23-1.94,1.78.12,3.66.55,5.17,1.53.53.35,1.07,1.33,1.57,1.54.19.08.51-.28.64-.39.55-.49,1.01-1.05,1.49-1.61,3.98-4.63,9.63-7.54,15.66-8.39,5.97-.85,12.12.22,16.94,4.01,2.14,1.68,3.96,3.74,5.61,5.9,7.16,9.37,10.57,22.68,8.9,34.35-.58,4.03-1.79,8.12-4.22,11.44l-1.94,2.7,3.14,2.27c5.17,3.9,9.99,9.36,10.55,16.09.44,5.35-1.11,11.12-4.36,15.42-1.09,1.44-2.48,2.86-4.28,3.34-2.37.63-4.77-.21-6.81-1.41-3.82-2.26-6.9-5.69-9.86-8.94-1.09-1.2-2.17-2.42-3.23-3.65l-2.62-2.93,2.08,6.59c1.36,4.29,2.85,9.05.99,13.43-1.5,3.52-4.66,4.99-8.03,6.25-1.5.56-2.98,1.34-4.61,1.43ZM482.5,96.57c2.91-3.74,2.13-9.72.08-13.66-.98-1.88-2.84-4.13-5.23-3.68-2.07.39-2.95,2.89-3.36,4.69-.94,4.16-.93,11.2,3.17,13.81,1.83,1.16,4.07.49,5.34-1.15ZM459.7,164.09c-2.1-.43-3.53-2.09-4.47-3.93-1.73-3.36-2.27-7.24-2.94-10.91-.25-1.34-.48-2.69-.69-4.04-2.32-14.67-2.99-29.61-1.87-44.43.7-9.18,1.94-18.5,5.33-27.12,1.01-2.55,2.25-5.05,3.93-7.22,3.65-4.71,9.31-6.93,15.06-7.69,7.27-.97,14.26,1.05,19.75,5.96,3.2,2.87,5.28,6.67,7.34,10.38,7.36,13.25,11.11,28.19,13.69,43.02,1.51,8.71,2.94,17.51,2.87,26.37-.03,3.14-.25,6.38-2.14,9.02-2.63,3.68-7.07,3.61-11.11,4.08-3.97.46-7.95.59-10.91-2.56-3.34-3.56-2.94-9.57-3.31-14.09-.38-4.69-.86-9.37-1.52-14.03-.35-2.46-.57-5.01-1.47-7.35s-3.78-6.06-6.48-3.49c-.45.43-.79.94-1.08,1.49-1.67,3.16-1.36,6.9-1.07,10.33.25,2.9.57,5.8.93,8.69.51,4.1,1.04,8.2,1.28,12.33.14,2.36.3,4.91-.55,7.17s-2.84,4.33-5.11,5.31c-3.05,1.32-6.38,1.68-9.63,2.21-1.93.32-3.88.87-5.84.49ZM574.7,157.81c-2.57-.92-5.01-2.53-5.82-5.28-1.18-4.03-.72-8.37-.51-12.49.36-7,.91-13.98,1.44-20.97.52-6.84,1.1-13.68,1.4-20.54.11-2.62.74-6.39-1.43-8.41-.55-.51-1.35-.63-2.05-.78-1.49-.32-3-.47-4.51-.59-3.98-.3-8.13-.78-10.13-4.75-2.07-4.1-2.3-9.19-1.86-13.68.36-3.66,1.07-7.43,3.78-10.13,2.86-2.84,7.03-3.36,10.87-3.66,6.74-.52,13.52-.21,20.26.17,9.44.54,19.06,1.2,28.03,4.41,4.27,1.53,8.61,4.04,9.89,8.71.44,1.61.2,3.34,0,4.97-.45,3.65-1.22,7.31-2.7,10.69-1.3,2.98-3.06,5.89-6.32,6.96-2.75.91-5.67.06-8.43-.36-1.01-.15-2.01-.31-3.02-.44-1.23-.16-2.65-.46-3.79.19-.87.5-1.19,1.58-1.41,2.49-.47,1.99-.64,4.03-.91,6.05-.69,5.27-1.18,10.56-1.49,15.87-.39,6.44-.92,12.88-1.56,19.3-.16,1.58-.32,3.16-.5,4.73-.14,1.2-.29,2.4-.45,3.6-.42,3.14-.74,6.37-1.88,9.34-.59,1.53-1.45,3.1-2.91,3.94-1.46.84-3.15,1.04-4.79,1.22-3.06.33-6.24.38-9.2-.57ZM620.84,128.29c.58-10.68,2.37-21.23,4.42-31.71,1.64-8.43,2.65-17.46,6.98-25.04,1.5-2.63,3.83-4.43,6.74-5.23,5.47-1.5,11.53.27,16.4,2.81,1.99,1.04,4.09,2.35,5.09,4.46,1.14,2.43.32,5.49-.2,7.97-1.36,6.6-3.66,12.97-6.01,19.27-1.97,5.28-3.69,10.66-5.01,16.15-.7,2.9-1.44,5.86-1.41,8.86.03,2.32.68,5.61,3.52,5.86,2.22.19,4.16-1.46,5.09-3.34,1.36-2.73,1.99-5.75,2.83-8.66,1.59-5.49,3.06-11.01,4.27-16.59,1.14-5.29,2.55-10.52,4.09-15.71.75-2.53,1.26-5.24,2.67-7.52,1.4-2.26,3.44-3.66,6.04-4.19,3.27-.67,6.46.94,9.49,1.91,2.96.95,6.15,1.68,8.69,3.57,5.09,3.78,4.13,10.76,3.15,16.21-1.23,6.86-3.8,13.39-6.19,19.92-2.36,6.48-4.62,13.03-7.79,19.18-5.9,11.43-13.43,23.97-25.05,30.36-4.05,2.22-8.72,3.63-13.36,3.66-11.15.08-19.15-8.61-22.22-18.7-2.29-7.56-2.62-15.64-2.26-23.48ZM758.38,153.38c3.17-.89,5.58-3.35,7.16-6.14,1.71-3,3.97-9.39-.2-11.5-2.13-1.07-4.79.18-6.48,1.55-3.66,2.98-6.66,9.07-5.33,13.84.59,2.1,2.93,2.69,4.84,2.25ZM701.63,185.84c.27-4,1.84-7.75,3.37-11.4,1.74-4.16,3.57-8.27,5.41-12.39,4.33-9.73,8.9-19.35,13.68-28.87,4.15-8.27,8.17-16.74,13.83-24.1,2.19-2.85,5.19-6.33,9.1-6.39,2.74-.04,5.24,1.2,7.67,2.33,2.57,1.2,5.21,2.45,7.04,4.7,1.13,1.39,2.1,3.05,2.41,4.83.11.62-.24,1.69-.06,2.2.07.2.55.18.72.2.73.07,1.46.03,2.19,0,6.11-.31,12.1,1.91,16.83,5.73,4.72,3.81,8.14,9.07,8.66,15.21.23,2.69-.03,5.4-.48,8.05-1.38,8.26-5.67,15.95-10.95,22.35-2.35,2.85-4.97,5.53-8.04,7.6-4.59,3.08-10.1,5.34-15.72,4.85-2.14-.19-4.21-.82-6.23-1.51-3.86-1.31-7.07-4.16-9.54-7.33-.71-.91-1.43-1.88-2.45-2.47-.27-.15-.55-.3-.82-.45l-6.71,12.6c-1.43,2.68-2.85,5.35-4.3,8.01-1.18,2.15-2.33,4.39-4.24,5.99-2.02,1.7-5.31,3.58-8.06,2.89-5.21-1.32-11.4-3.35-12.93-9.19-.29-1.12-.39-2.27-.36-3.43ZM814.64,188.72c4.71-.51,8.46-5.24,9.85-9.47.67-2.02.98-4.92-1.02-6.32-1.73-1.21-4.14-.11-5.72.85-3.65,2.22-8.69,7.14-7.69,11.9.45,2.13,2.5,3.27,4.57,3.04ZM750.16,219.27c-1.17-1.84-.96-4.05-.28-6.03,1.22-3.55,3.61-6.6,5.76-9.62.79-1.11,1.6-2.22,2.42-3.31,8.82-11.7,18.94-22.43,30.17-31.84,7.21-6.05,14.93-11.79,23.68-15.42,2.49-1.03,5.08-1.86,7.76-2.18,5.98-.72,11.58,1.8,16.19,5.43,5.77,4.54,9.19,10.96,9.52,18.32.19,4.29-1.07,8.45-2.29,12.51-4.35,14.53-12.4,27.64-21.21,39.87-5.17,7.17-10.45,14.35-16.85,20.49-2.27,2.18-4.75,4.28-7.97,4.75-4.49.66-7.56-2.57-10.74-5.15-3.12-2.53-6.04-5.31-5.85-9.66.21-4.89,4.8-8.79,7.78-12.2s6.11-7.15,8.99-10.88c1.52-1.97,3.19-3.91,4.24-6.19,1.08-2.36,1.68-6.94-2.05-7.1-.62-.03-1.23.08-1.83.25-3.43.99-5.91,3.82-8.17,6.42-1.91,2.2-3.76,4.45-5.58,6.72-2.59,3.22-5.16,6.46-7.96,9.51-1.6,1.75-3.32,3.63-5.54,4.59-2.28.99-5.11.97-7.4.02-3.1-1.29-5.71-3.46-8.38-5.44-1.57-1.17-3.34-2.2-4.44-3.87ZM809,267.94c-2.76-4.17-3.7-8.48-1.46-13.15.69-1.43,1.5-2.8,2.38-4.12,2.34-3.5,5.22-6.59,7.96-9.77,4.5-5.21,9.09-10.36,13.95-15.24,3.76-3.77,7.44-7.61,11.18-11.41,6.58-6.69,13.33-13.23,20.47-19.33,1.18-1.01,2.41-1.99,3.75-2.79,4.75-2.84,9.18-.39,12.8,3,4.41,4.12,9.34,10.08,6.67,16.49-1.38,3.32-4.13,5.9-6.69,8.33-5.23,4.97-11.04,9.26-16.73,13.66-4.89,3.78-9.7,7.7-13.8,12.34-1.18,1.33-3.48,3.48-3,5.48.26,1.07,1.1,1.89,1.88,2.61,1.71,1.59,3.74,2.78,5.74,3.97,2.72,1.61,7.1,3.62,6.52,7.48-.65,4.32-5.03,7.48-8.03,10.22-5.34,4.88-12.73,10.77-20.48,9.73-1.33-.18-2.63-.56-3.85-1.14-5.06-2.38-9.29-6-13.29-9.85-2.12-2.04-4.42-3.97-5.96-6.51ZM908.48,289.42c4.65.94,9.65-2.45,12.25-6.07,1.24-1.74,2.39-4.43.9-6.37-1.28-1.67-3.91-1.32-5.68-.87-4.14,1.04-10.41,4.21-10.91,9.04-.22,2.16,1.41,3.86,3.44,4.26ZM837.79,299.21c-.57-2.08.28-4.1,1.49-5.77,2.23-3.05,5.45-5.26,8.44-7.51,1.09-.82,2.19-1.63,3.3-2.43,12.17-8.7,25.32-16.03,39.19-21.65,8.44-3.42,17.24-6.43,26.36-7.28,2.45-.23,4.94-.27,7.38.12,6.19.99,11.03,5.09,14.48,10.14,2.66,3.88,4.64,8.35,4.67,13.13.02,2.44-.46,4.86-1.08,7.2-1.09,4.16-3.54,7.76-5.92,11.28-8.49,12.56-20.16,22.61-32.22,31.62-4.16,3.11-8.45,6.05-12.8,8.87-3.07,1.99-6.14,3.99-9.42,5.61-2.82,1.4-5.81,2.63-9.03,2.14-4.49-.67-6.43-4.71-8.68-8.11-2.21-3.34-4.12-6.86-2.66-10.93,1.66-4.6,7.21-6.95,11.08-9.31,4.02-2.45,7.98-4.99,11.84-7.68,2.04-1.42,4.22-2.77,5.9-4.63s3.68-6.15.17-7.4c-.58-.21-1.2-.28-1.81-.29-3.57-.06-6.77,1.89-9.71,3.7-2.48,1.53-4.92,3.12-7.34,4.74-3.43,2.3-6.86,4.61-10.44,6.69-2.05,1.19-4.25,2.47-6.66,2.72-2.48.26-5.18-.63-7.09-2.24-2.55-2.16-4.39-4.99-6.34-7.67-1.16-1.6-2.55-3.13-3.11-5.07ZM924.59,372.3c2.19,1.11,5.03.46,7.3-.03,6.13-1.34,12.19-3.93,17.19-7.76,2.86-2.19,8.19-8.21,3.71-11.41-.52-.37-1.11-.62-1.72-.77-2.6-.64-5.39-.1-7.94.52-6.05,1.48-11.9,4.28-16.74,8.23-2.48,2.02-6.11,5.82-3.82,9.2.54.79,1.18,1.54,2.01,2.02ZM878.16,361.12c-.74-2.84-.76-5.94,1.02-8.41,2.15-2.98,5.64-4.85,8.63-6.85,6.56-4.39,13.3-8.49,20.04-12.61,8.99-5.49,18.16-10.7,27.53-15.5,5.7-2.92,11.42-5.95,17.55-7.89,1.62-.51,3.3-.9,5-.98,6.27-.28,10.28,4.78,12.85,9.87,2.05,4.07,2.88,8.96.08,12.85-.91,1.26,1.58,2.69,2.32,3.33,3.46,2.99,6.47,6.53,8.31,10.76,4.55,10.48,1.82,22.14-5.08,30.89-7.08,8.97-17.28,14.92-27.93,18.67-13.28,4.68-28.6,6.78-42.27,2.5-10.49-3.28-17.38-11.76-17.89-22.8l-.05-3.57-1.6-.19c-3.05-.56-4.84-2.82-6.37-5.32-.91-1.48-1.74-3.05-2.13-4.75ZM972.36,431.63c4.09,2.43,9.88,1.08,13.59-1.46,1.73-1.18,3.78-3.29,3.06-5.6-.63-2-3.22-2.59-5.03-2.79-4.25-.47-11.23.35-13.36,4.72-.94,1.93-.04,4.06,1.74,5.12ZM902.69,416.66c.18-2.14,1.68-3.74,3.4-4.88,3.14-2.09,6.93-3.06,10.5-4.15,1.31-.4,2.62-.78,3.93-1.15,14.9-4.14,30.28-6.55,45.74-6.94,8.59-.22,17.39-.06,25.73,2.24,5.17,1.43,10.3,3.97,13.38,8.53,1.77,2.61,2.85,5.63,3.61,8.67,1.8,7.13.54,14.25-3.68,20.29-2.46,3.52-6.01,6.03-9.47,8.48-12.38,8.76-26.72,14.26-41.19,18.48-8.49,2.48-17.07,4.87-25.88,5.82-3.11.34-6.36.5-9.2-1.05-3.96-2.17-4.39-6.6-5.32-10.56-.91-3.89-1.48-7.82,1.3-11.13,3.15-3.75,9.17-4.04,13.62-4.91,4.62-.91,9.21-1.92,13.77-3.11,2.41-.63,4.92-1.14,7.14-2.31s5.59-4.43,2.73-6.8c-.47-.39-1.03-.68-1.6-.9-3.33-1.3-7.01-.58-10.39.1-2.85.58-5.69,1.23-8.52,1.91-4.02.97-8.03,1.96-12.11,2.67-2.34.41-4.85.85-7.19.24s-4.62-2.28-5.85-4.42c-1.66-2.88-2.39-6.16-3.29-9.33-.54-1.89-1.31-3.79-1.16-5.79ZM982.19,508.49c2.48,2.17,5.9,2.75,9.1,2.53s7.04-.95,8.69-3.9c.99-1.77.72-3.52-.57-5.05-4.06-4.8-13.18-2.99-17.34.74-1.87,1.68-1.65,4.03.12,5.68ZM918.8,486.53c.48-3.12,2.25-5.62,5-7.17,3.44-1.94,7.39-2.7,11.23-3.45,4.37-.86,8.77-1.61,13.16-2.37,10.55-1.81,21.13-3.37,31.75-4.7,9.17-1.15,18.43-2.51,27.69-1.94,3.61.22,8.17.75,10.39,4.01,1.53,2.25,1.92,5,2.32,7.63.43,2.8.89,5.69,0,8.45-.55,1.72-1.36,3.49-2.68,4.75-.46.44-1.53.74-1.86,1.17-.13.17.15.55.23.7.35.63.79,1.2,1.22,1.78,3.67,4.9,5.11,11.15,4.58,17.2-.57,6.5-3.52,12.5-8.84,16.4-1.84,1.35-3.93,2.33-5.98,3.3-2.18,1.03-4.54,1.57-6.86,2.18-9.18,2.39-19.74,2.19-28.6-1.37-3.77-1.51-7.51-3.6-10.17-6.74l-2.18-2.54-2.92,2.57c-4.9,4.15-11.47,7.63-18.08,6.56-5.13-.83-10.02-3.44-13.52-7.28-1.37-1.5-2.7-3.35-2.76-5.46-.07-2.48,1.32-4.66,2.99-6.38,3.1-3.19,7.16-5.38,11.01-7.53,1.39-.77,2.78-1.53,4.18-2.28l3.45-1.89-6.89.51c-4.47.34-9.48.75-13.29-2.08-3.07-2.28-3.79-5.7-4.25-9.28-.2-1.58-.61-3.17-.33-4.77Z"/>
      <path d="M83.69,740.98c-.59-2.05-.86-4.1-.15-6.16,1.19-3.49,4.17-5.91,7.17-7.85,4.64-3.01,9.67-5.37,14.68-7.72,10.33-4.84,20.9-9.17,31.46-13.49,6.8-2.78,13.5-5.83,20.56-7.9,5.15-1.51,11.78-3.26,16.66-.07,2.58,1.69,3.42,4.86,4.66,7.5,1.28,2.71,3,5.45,2.53,8.58-.26,1.7-1.03,3.18-2.17,4.45-3.19,3.57-8.07,5.08-12.2,7.24-1.04.54-2.07,1.09-3.11,1.63-3.06,1.61-8.58,3.31-9.29,7.26-.38,2.12,1.15,4.54,2.71,5.85,3.72,3.1,9.35-1.27,12.67-3.05,1.06-.57,2.11-1.14,3.16-1.71,3.95-2.11,7.94-5.19,12.56-5.53,3.31-.24,5.77,1.47,7.98,3.75,1.86,1.93,3.27,4.22,4.49,6.59,1.65,3.2,3.33,6.77,1.43,10.26-.77,1.42-1.88,2.62-2.98,3.79-3.34,3.55-7.36,6.35-11.33,9.14-5.31,3.72-10.71,7.3-16.09,10.92-9.42,6.33-18.89,12.58-28.57,18.5-3.1,1.9-6.22,3.75-9.41,5.5-1.84,1-3.67,2.12-5.71,2.64-3.2.82-6.98.17-9.48-2.07-1.99-1.77-3.36-4.11-4.81-6.31-2.2-3.32-4.46-6.69-5.77-10.49-.74-2.15-1.33-4.46-1-6.75.92-6.4,8.58-9.13,13.72-11.32,1.33-.57,2.68-1.12,4.02-1.65,3.86-1.52,7.69-3.11,11.34-5.09,1.61-.87,3.45-1.68,4.04-3.58.49-1.59-.41-3.05-1.14-4.4-.82-1.53-1.78-2.65-3.5-3.16-2.24-.68-4.19.75-6.09,1.73-3.27,1.69-6.47,3.51-9.61,5.44-4.41,2.7-9.12,5.29-14.29,6.13-2.29.37-4.82.41-6.9-.72-4.45-2.43-7.37-7.04-9.47-11.5-.99-2.09-2.29-4.09-2.76-6.38ZM131.55,825c-2.87-5.04-5.57-11.26-1.51-16.47.86-1.1,1.81-2.12,2.88-3.01,2.89-2.43,6.14-4.37,9.25-6.49,5.6-3.8,11.23-7.54,16.87-11.27,6.95-4.59,13.91-9.15,20.91-13.66,4.18-2.69,8.3-5.47,12.63-7.9,2.3-1.29,4.57-2.9,7.17-3.52,3.32-.79,6.89-.11,9.83,1.57,3.99,2.28,7.15,5.7,10.17,9.11,4.71,5.31,9.28,10.98,11.95,17.63,1.94,4.83,2.01,9.54-1.63,13.6-1.12,1.25-2.36,2.38-3.63,3.47-2.7,2.31-6.07,5.13-9.85,4.97-3.12-.13-5.4-2.14-7.41-4.33-1.74-1.89-3.36-3.9-4.95-5.92-1.58-2-3.13-4.03-4.75-6-.72-.87-1.47-1.91-2.74-1.78-2.04.2-5.14,2.03-5.69,4.14-.26,1.01.47,2.04.96,2.86,1.39,2.31,3.26,4.29,5.2,6.16,1.88,1.81,4.37,4.2,3.62,7.1-.33,1.28-1.35,2.31-2.22,3.26-2.14,2.33-4.62,4.37-7.31,6.03-1.17.73-2.5,1.59-3.94,1.53-3.68-.15-5.75-4.36-7.43-7.07-1.68-2.7-4.21-7.83-8.21-6.41-.85.3-1.62.81-2.33,1.36-.43.33-.83.72-1.15,1.16-2.65,3.68,2.67,7.71,5.03,9.87.66.61,1.33,1.2,2.01,1.79.91.79,1.83,1.57,2.75,2.34,3.59,3.01,8.33,6.19,7.81,11.52-.44,4.59-4.23,8.17-7.39,11.16-4.63,4.38-10.79,8.83-17.43,6.22-8.26-3.24-13.16-11.31-18.41-17.97-3.86-4.89-7.47-9.97-11.06-15.06ZM192.23,851.37c6.47-11.55,17.19-20.77,29.17-26.26,15.1-6.92,37.47-9.64,49.18,4.9,2.18,2.7,3.78,5.82,4.95,9.08,1.8,5.06,2.5,10.68,1.93,16.03-.45,4.18-1.27,8.56-4.04,11.88-2.45,2.93-5.96,4.22-9.67,4.62s-7.46-.16-10.49-2.37c-2.26-1.65-2.84-4.13-2.34-6.79.78-4.1,2.3-9.04.21-12.98-2.41-4.55-9.2-2.93-13.02-1.56-.89.32-1.76.68-2.6,1.09-1.12.54-2.21,1.15-3.23,1.87-3.2,2.25-5.86,5.17-8.31,8.19-1.94,2.39-3.83,4.93-4.96,7.82-.96,2.47-1.33,5.63-.14,8.08,2.82,5.79,10.25,4.4,15.33,3.26,1.46-.33,2.97-.61,4.47-.46,2.89.29,5.01,2.45,6.99,4.37,3.69,3.57,8.33,8.52,6.67,14.13-1.09,3.71-4.1,6.55-7.17,8.71-7,4.92-16,7.55-24.55,6.67-5.32-.54-10.63-1.9-15.35-4.43-12.6-6.75-19.83-21.05-19.22-35.14.32-7.29,2.67-14.35,6.2-20.69ZM242.4,938.58c-1.5-1.5-2.71-3.17-3.1-5.3-.66-3.64.77-7.2,2.44-10.36,2.59-4.89,5.84-9.4,9.07-13.88,6.68-9.25,13.82-18.16,20.96-27.06,4.59-5.73,8.98-11.66,14.15-16.89,3.79-3.82,8.75-8.55,14.58-8.11,3.08.23,5.36,2.6,7.73,4.31s5.25,3.33,6.38,6.29c.62,1.61.67,3.29.29,4.97-1.05,4.68-4.59,8.35-7.16,12.24-.65.98-1.29,1.96-1.93,2.93-1.9,2.89-5.9,7.05-4.61,10.86.69,2.03,3.19,3.41,5.18,3.79,4.75.9,7.57-5.63,9.62-8.8.65-1.01,1.29-2.02,1.94-3.02,2.44-3.76,4.44-8.4,8.33-10.91,2.79-1.8,5.78-1.5,8.81-.57,2.56.78,4.9,2.11,7.12,3.59,2.99,2,6.19,4.29,6.2,8.27,0,1.61-.39,3.2-.79,4.75-1.24,4.79-3.42,9.26-5.58,13.68-2.81,5.76-5.77,11.44-8.69,17.15-5.17,10.1-10.44,20.16-16.04,30.02-1.8,3.16-3.63,6.3-5.58,9.37-1.12,1.77-2.18,3.63-3.73,5.07-2.4,2.25-5.99,3.54-9.25,2.81-2.6-.58-4.94-1.98-7.28-3.2-3.53-1.84-7.14-3.69-10.11-6.38-1.69-1.53-3.32-3.27-4.15-5.43-2.33-6.05,3.04-12.16,6.48-16.57.89-1.14,1.8-2.27,2.73-3.38,2.65-3.19,5.23-6.44,7.47-9.94.99-1.54,2.2-3.15,1.78-5.09-.35-1.62-1.83-2.46-3.11-3.29-1.46-.94-2.83-1.44-4.58-1.07-2.29.49-3.3,2.69-4.49,4.46-2.04,3.06-3.96,6.21-5.77,9.41-2.55,4.5-5.42,9.05-9.53,12.29-1.82,1.43-4.02,2.69-6.4,2.71-5.07.02-9.86-2.59-13.86-5.47-1.88-1.35-4-2.46-5.51-4.25ZM368.75,969.02c8.12-.07,12.57-9.32,14.72-15.93,1.25-3.82,2.26-8.03,1.17-12.02-1.71-6.29-8.66-8.46-13.96-4.95-6.69,4.43-10.67,13.65-11.02,21.47-.25,5.5,3.03,11.4,9.09,11.43ZM343.5,996.4c-14.51-10.91-18.54-30.64-14.03-47.55,2.87-10.78,8.93-20.68,16.69-28.64,5.65-5.8,12.51-11.01,20.21-13.74,7.66-2.71,16.05-3.36,23.67-.17,8.83,3.71,14.47,11.64,17.77,20.36,6.85,18.07,3.79,40.16-6.73,56.22-8.78,13.41-24.62,22.92-40.98,20.39-5.95-.92-11.77-3.3-16.6-6.89ZM444.65,997.25c-1.56-13.15,1.68-26.9,8.12-38.39,1.26-2.25,2.66-4.42,4.18-6.5,8.52-11.64,22.76-22.63,38.03-18.62,3.37.89,6.53,2.47,9.41,4.43,4.43,3.01,8.3,7.13,10.97,11.77,2.09,3.63,4.02,7.66,3.76,11.96-.24,3.8-2.3,6.93-5.04,9.45-2.7,2.48-6.07,4.29-9.81,4.3-2.8,0-4.74-1.65-5.9-4.09-1.79-3.74-3.44-8.64-7.44-10.59-4.61-2.25-9.14,3.08-11.39,6.43-.53.78-1.01,1.59-1.45,2.42-.58,1.1-1.1,2.23-1.5,3.41-1.25,3.7-1.67,7.64-1.88,11.52-.16,3.07-.19,6.24.6,9.23.68,2.56,2.24,5.33,4.66,6.6,5.7,3.01,10.85-2.5,14.25-6.44.94-1.09,1.95-2.18,3.19-2.94,2.52-1.56,5.57-1.07,8.35-.69,5.08.7,11.72,1.95,13.71,7.43,1.32,3.63.57,7.71-.62,11.26-2.72,8.1-8.4,15.56-15.81,19.92-4.61,2.71-9.7,4.75-15.01,5.51-13.66,1.95-27.62-4.79-35.5-15.93-4.47-6.31-6.96-13.83-7.89-21.47ZM571.34,1001.11c7.27-3.61,7.26-13.87,6.32-20.75-.54-3.98-1.47-8.21-4.19-11.33-4.28-4.91-11.46-3.84-14.71,1.62-4.1,6.9-3.67,16.93-.57,24.13,2.17,5.05,7.69,8.94,13.15,6.33ZM560.54,1036.75c-17.81-3.49-30.05-19.51-33.34-36.69-2.1-10.95-.95-22.5,2.55-33.05,2.55-7.69,6.48-15.36,12.23-21.17,5.72-5.77,12.97-10.02,21.23-10.46,9.56-.51,18.08,4.18,24.84,10.59,14.02,13.3,20.91,34.49,18.44,53.53-2.07,15.89-12.17,31.36-28.01,36.21-5.75,1.76-12.02,2.15-17.94,1.03ZM632.05,1029.01c-2.01-.11-4.05-.43-5.85-1.39-5.26-2.82-6.9-9.57-8.56-14.81-2.83-8.95-3.93-18.33-5.46-27.56-1.8-10.88-3.81-21.74-4.46-32.77-.24-4.09-.52-8.2-.21-12.29.15-2.04.45-4.38,1.91-5.94.86-.92,2.03-1.46,3.17-1.97,2.31-1.04,4.78-1.69,7.28-2.08,1.99-.31,3.99-.5,5.88.35,6.94,3.13,11.72,9.85,16.37,15.6,2.21,2.73,4.4,5.47,6.92,7.93.76.74,1.97,2.14,3.18,1.72,1.36-.48-.06-2.84-.35-3.64-1.21-3.37-3.16-6.42-4.99-9.47-2.76-4.61-8.15-12.16-4-17.44,1.26-1.6,3.06-2.64,4.84-3.57,3.73-1.96,7.89-3.68,12.18-3.51,1.53.06,3.07.31,4.48.95,4.24,1.93,6.7,6.61,8.79,10.52,2.36,4.42,4.4,8.99,6.41,13.57,1.17,2.68,2.33,5.36,3.47,8.05,3.81,8.94,7.2,18.05,10.43,27.21.76,2.15,1.51,4.29,2.25,6.45.58,1.68,1.14,3.36,1.7,5.05,1.83,5.56,5.58,13.45,1.21,18.76-1.47,1.78-3.56,2.94-5.58,4-4.31,2.27-9.04,4.07-13.95,4.28-2.17.09-4.42-.04-6.4-1.03-2.67-1.35-4.46-3.91-5.99-6.38-2.63-4.25-4.7-8.8-6.77-13.33-3.79-8.29-7.66-17.04-14.45-23.35-1.25-1.16-3.4-3.07-5.28-2.43-1.24.42-1.05,2.37-.93,3.37.4,3.27,1.93,6.24,3.33,9.17,2,4.17,4.62,7.99,7.17,11.84,3.29,4.98,6.87,9.97,8.43,15.82,1.39,5.22-.52,10.17-5.03,13.14-3.18,2.09-7.03,2.69-10.67,3.57-3.42.82-6.9,1.89-10.46,1.63ZM757.37,915.93c1.4-4.61-1.75-9.8-5.2-12.64-1.61-1.32-4.18-2.72-6.19-1.42-1.75,1.13-1.63,3.77-1.37,5.56.62,4.23,3.08,10.9,7.94,11.73,2.22.38,4.2-1.16,4.82-3.24ZM749.55,990.68c-7.04.95-9.69-7.13-11.69-12.32-.49-1.28-.97-2.56-1.43-3.84-5.02-14.2-8.27-28.98-10.53-43.86-1.35-8.95-2.52-18.05-1.98-27.12.16-2.66.49-5.33,1.28-7.88,1.61-5.18,5.47-8.95,10.11-11.56,5.92-3.34,12.47-3.76,18.92-1.73,4.03,1.27,7.53,3.71,11.02,6.02,12.67,8.36,23.63,19,33.76,30.25,5.91,6.56,12.01,13.16,16.4,20.88,1.66,2.93,2.88,5.98,2.01,9.38-1.43,5.61-7.15,8.52-11.6,11.45-4.27,2.81-9.22,5.89-14.56,4.58-5.06-1.24-7.01-7.22-9.11-11.33-2.14-4.19-4.43-8.31-6.89-12.32-1.3-2.12-2.52-4.39-4.35-6.12-2.21-2.09-6.35-3.61-8.2-.26-.32.58-.52,1.23-.65,1.88-.68,3.6.79,7.06,2.25,10.27,1.21,2.65,2.5,5.27,3.82,7.86,1.88,3.69,3.77,7.37,5.3,11.22.9,2.26,1.81,4.73,1.39,7.21-.52,3.1-2.77,5.93-5.22,7.79-3.73,2.84-8.06,4.73-12.3,6.67-2.5,1.14-4.99,2.51-7.74,2.9ZM879.66,903.67c-3.18,2.13-6.77,3.12-10.38,1.38-2.55-1.23-4.37-3.62-6.16-5.73-4.03-4.73-7.6-9.86-10.55-15.34-2.7-5.01-5.72-9.86-9.24-14.34-1.39-1.77-2.87-4.04-5.07-4.86-.84-.32-1.71-.11-2.33.54-.85.89-.44,2.29-.12,3.32,1.24,4.06,4.96,6.85,7.78,9.8,2.59,2.71,6.24,5.27,7.23,9.09.81,3.11-.79,5.44-2.92,7.54-2.13,2.1-4.93,3.52-7.97,2.68-1.59-.44-2.64-1.9-3.66-3.09-1.89-2.21-3.7-4.49-5.54-6.74-.67-.82-1.34-1.64-2.02-2.45-.5-.6-1-1.2-1.5-1.79-.39-.46-.78-.92-1.18-1.38-1.26-1.47-4.02-5.66-6.31-3.56-2.05,1.88.27,5.09,1.43,6.79,4.18,6.16,10.44,10.5,16.26,14.97,1.3,1,2.59,2.01,3.86,3.05,5.24,4.26,12.66,10.04,11.08,17.74-1.05,5.12-4.91,8.91-8.62,12.3-2.73,2.49-5.65,4.76-8.79,6.7-1.57.97-3.27,2.07-5.15,2.28-1.38.15-2.66-.61-3.72-1.4-2.35-1.75-4.23-4.06-6.05-6.34-8.05-10.1-15.3-20.81-22.41-31.58-5.09-7.71-10.18-15.43-14.97-23.34-2.58-4.25-5.6-8.53-6.75-13.45-1.4-5.99,2.1-10.07,6.55-13.51,1.84-1.42,3.75-2.84,6.11-3.19,6.54-.96,12.71,3.42,17.91,6.77,1.89,1.22,3.77,2.45,5.76,3.49.98.51,2.16,1.13,3.28.77.86-.27,1.24-1.09,1.51-1.88.48-1.41-.14-2.95-.6-4.28-.78-2.28-1.68-4.52-2.57-6.76-2.08-5.21-5.49-11.74-3.31-17.44,1.39-3.62,4.51-6.3,7.44-8.68,1.3-1.06,2.66-2.18,4.35-2.52,3.31-.66,6.77,1.11,9.57,2.66,6.78,3.76,12.78,8.75,18.77,13.63,7.78,6.34,15.06,13.26,22.23,20.28,6.09,5.96,12.22,11.93,17.6,18.56,2.58,3.18,4.93,7.17,4.17,11.42-.24,1.34-.81,2.6-1.43,3.8-1.19,2.3-3.05,4.17-4.79,6.06-2.68,2.91-5.45,5.81-8.75,8.02ZM908.37,818.88c2.09-7.83-5.61-14.62-11.4-18.46-3.36-2.23-7.15-4.3-11.28-4.33-6.54-.05-10.46,6.1-8.53,12.15,2.43,7.65,10.31,13.94,17.73,16.38,5.23,1.72,11.83.09,13.48-5.74ZM927.97,850.57c-14.35,11.09-34.49,9.65-49.56.83-9.63-5.64-17.55-14.11-23.16-23.71-4.09-6.99-7.31-15.01-7.83-23.16-.52-8.15,1.1-16.43,6.24-22.95,5.95-7.53,15.11-10.91,24.43-11.71,19.31-1.66,39.68,7.03,52.38,21.55,10.56,12.08,15.39,29.91,8.59,45.01-2.47,5.49-6.35,10.44-11.08,14.15ZM932.58,732.97c-.99-3.18-3.61-5.47-6.54-6.88-2.77-1.34-6.55-2.6-9.47-.99-1.76.97-2.39,2.59-2.1,4.54.91,6.16,9.56,9.71,15.09,8.58,2.55-.52,3.7-2.82,3.02-5.25ZM969.1,792.77c-2.54,2.73-5.9,4.74-9.74,4.45-3.98-.3-7.54-2.28-10.95-4.2-3.91-2.22-7.75-4.56-11.59-6.91-9.13-5.58-18.08-11.45-26.93-17.47-7.65-5.2-15.45-10.29-22.18-16.69-2.5-2.38-5.76-5.61-5.64-9.35.08-2.46,1.34-4.6,2.47-6.7,1.2-2.24,2.42-4.54,4.55-6.04,1.38-.97,3.02-1.74,4.72-1.91.62-.06,1.53.3,2.07.17.19-.05.16-.51.17-.66.04-.69-.03-1.38-.09-2.06-.49-5.51.97-10.99,4.14-15.52,3.25-4.64,7.92-8,13.51-9.13,2.6-.53,5.28-.63,7.93-.59,11.71.17,24.75,4.89,32.73,13.68,2.91,3.2,5.2,7.08,5.95,11.39l.66,3.64,3.94-1.41c6.14-2.18,14.07-3.91,19.82.17,4.86,3.45,7.5,9.43,8.1,15.23.27,2.59.11,5.34-1.06,7.72-3.76,7.65-13.54,8.77-21.08,9.24-1.71.11-3.43.16-5.14.18l-4.14.1,6.03,3.38c4.23,2.36,8.39,5.08,9.31,10.2.88,4.88-1.51,9.3-3.87,13.38-1.14,1.96-2.13,4.07-3.72,5.71Z"/>
    </g>
  </g>
</svg>