<?xml version="1.0" encoding="UTF-8"?>
<svg id="Capa_2" data-name="Capa 2" xmlns="http://www.w3.org/2000/svg" viewBox="0 0 693.53 717.64">
  <defs>
    <style>
      .cls-1, .cls-2 {
        fill: #021a54;
      }

      .cls-2 {
        font-family: Now-Bold, Now;
        font-size: 86.42px;
        font-weight: 700;
      }
    </style>
  </defs>
  <g id="Capa_1-2" data-name="Capa 1">
    <g>
      <g>
        <path class="cls-1" d="M208.22,407.68c-2.49-.02-7.49-.05-8.67,2.63-.42.95-.24,1.93-.11,2.58.42,2.2,2.02,3.49,3,4.28,1.15.93,2.76,2.23,5.07,2.25,2.94.03,4.96-2.04,5.93-3.04.59-.6,1.37-1.42,1.83-2.76.17-.48.85-2.47.04-3.95-1.06-1.96-4.18-1.98-7.09-1.99Z"/>
        <path class="cls-1" d="M233.62,373.14c-7.74.45-12.26,5.98-12.86,6.75-2.85,3.61-3.43,7.34-3.64,8.78-.2,1.41-1.19,9.38,4.6,15.86,1.2,1.34,6.87,7.28,15.22,6.32,8.11-.94,12.28-7.64,13.28-9.43,3.23-5.72,3.74-13.66-.53-20.03-.31-.46-6.13-8.83-16.07-8.25ZM238.27,401.29c-1.04.69-2.19.88-2.19.88,0,0-1.44.24-2.99-.33-3.71-1.36-8.11-13.89-3.39-19.22.43-.49,1.76-1.99,3.7-2.09,1.87-.09,3.29,1.16,3.88,1.69,5.52,4.89,4.06,17.03.99,19.07Z"/>
        <path class="cls-1" d="M151.22,384.6c-1.14.7-8.14,5.13-9.21,13.5-.83,6.48,2.41,11.37,3.43,12.86,4.99,7.29,14.45,10.54,22.78,9.21,1.71-.27,12.82-2.05,16.43-11.48,3.34-8.71-2.43-16.81-3.21-17.88-6.7-9.09-20.84-11.92-30.22-6.21ZM171.8,410.1c-2.04,1.63-5.09,1.9-7.38.9-4.69-2.02-4.96-8.77-5.05-10.97-.06-1.35-.39-9.55,4.41-11.57,2.87-1.21,5.88.52,6.09.64,3.77,2.24,4.07,7.28,4.28,10.93.23,3.85.47,7.82-2.35,10.07Z"/>
        <path class="cls-1" d="M291.86,184.04c-7.58-12.27-17.75-23.02-30.24-31.92-2.05-1.46-4.46-2.23-6.97-2.23-.27,0-.53.03-.79.05-1.01-2.51-2.85-4.68-5.34-6.05-12.43-6.85-26.56-12.23-42.21-16.1,5.1-3.63,6.32-9.51,3.6-17.52-.94-2.77-2-5.9-1.69-9.72.34-4.15,1.99-6.36,5.4-10.58,3.77-4.67,8.93-11.06,9.27-21.07.44-13.24-7.74-23.75-12.66-28.84-6.34-6.56-12.21-9.89-17.45-9.89-2.49,0-4.89.71-6.94,2.05-.77.5-1.76,1.27-2.7,2.35-3.14-9.82-9.24-17.52-13.45-21.99-4.44-4.7-13.1-12.58-21.25-12.58-2.41,0-4.75.64-6.77,1.84-9.8,5.87-5.2,16.8-3.69,20.39,2,4.76,4.74,11.27,3.1,18.2-.84,3.54-2.27,5.02-5.13,7.98-2.11,2.18-4.65,4.81-7.05,8.5-2.64-7.53-7.43-13.43-10.75-16.86-6.34-6.56-12.21-9.89-17.45-9.89-2.49,0-4.89.71-6.94,2.05-2.81,1.84-8.76,7.28-3.42,18.19.97,1.98,2.06,4.22,2.31,7.12.39,4.51-1.63,7.65-5.52,13.26-4.2,6.06-9.96,14.35-9.19,25.94.88,13.19,10.8,26.15,20.44,31.29-.7.2-1.4.39-2.09.59-10.45,3.08-24.75,7.29-39.47,15.05l-.23.12c-2.26,1.26-3.99,3.17-5.04,5.4-.2-.01-.4-.02-.6-.02-2.44,0-4.78.73-6.79,2.11-12.86,8.82-23.12,19.71-30.51,32.34-17.94,30.64-14.95,51.9-9.28,64.33,1.03,2.26,2.22,4.39,3.59,6.43-.79,1.33-1.31,2.41-1.56,2.94-3.07,6.41-3.1,12.13-3.11,14.87-.05,8.86,2.63,16.15,4.89,20.72,2.35,4.75,7.24,12.44,12.45,18.16.03.03.07.07.11.11.04.3-.06.86-.1,1.07l-.03.15c-1.88,10.7-2.19,65.85,1.91,99.61,1.59,13.13,3.58,29.48,10.26,49.24.28.82.59,1.73.94,2.73l.09.26c2.25,6.51,5.64,16.34,8.97,30.02,2.8,11.51,3.03,15.43,3.11,16.73.27,4.44.06,8.37-3.01,27.37-.56,3.5-1.26,7.67-2.07,12.41-1.03,6,.63,12.11,4.55,16.76,3.92,4.65,9.65,7.31,15.73,7.31h193.71c5.91,0,11.54-2.54,15.44-6.96,3.9-4.42,5.73-10.32,4.99-16.18-1.28-10.19-2.72-20.71-4.3-31.26-1.62-10.9-3.43-22.11-5.39-33.33,2.85-3.71,5.52-7.55,7.97-11.44,5.96-9.46,13.37-21.24,16.12-37.73,2.07-12.48,4.42-26.62-4.97-37.29-1.13-1.29-2.33-2.38-3.38-3.35-.54-.49-1.03-.94-1.47-1.38.91-1.7,1.42-3.63,1.43-5.67.05-13.67.1-27.34.16-41,0,0,.11-27.99.16-41.7,1.56-1.51,2.92-3.04,4.13-4.42.99-1.12,1.85-2.09,2.69-2.91,5.14-5.03,10.27-13.45,12.45-20.46,2.52-8.09,2.11-17.2-1.18-26.33,2.06-3.64,3.66-7.47,4.79-11.44,7.3-25.7-6.65-48.27-12.6-57.91ZM196.69,56.49c-.73-8.55-5.44-13.48-4.29-14.23,2.01-1.31,18.98,11.73,18.5,26.23-.42,12.46-13.37,15.63-14.64,31.07-.88,10.66,4.6,17.62,2.79,18.64-2.44,1.37-16.16-9.09-17.05-22.29-1.03-15.37,16.19-22.01,14.69-39.43ZM179.33,134.9c14.65,1.95,40,6.59,63.39,19.49-2.29.35-4.58.73-6.85,1.14-9.3,1.67-17.86,3.2-26.61,5.58-4.66-3.29-9.27-6.12-13.82-8.87-9.97-6.05-19.49-10.61-27.86-14.04,4.04-1.29,7.97-2.37,11.74-3.3,0,0,0,0,0,0ZM191.81,167.05c-2.22.92-4.48,1.92-6.8,3.02-13.06,6.19-23.45,13.3-31.79,20.09,0,0,0,0,0,0-3.19-2.47-6.28-4.68-9.2-6.63-10.79-7.23-21.16-12.33-30.34-16.04,7.09-5.26,12.55-8.93,15.34-10.82,7.96-5.39,16.05-9.65,23.96-13.04,4.88,2.26,10.56,5.11,16.68,8.6,3.75,2.14,10.74,6.28,22.15,14.81ZM135.27,71.42c4.74-14.99,14.29-14.75,17.49-28.21,3.91-16.5-7.41-29.58-4.92-31.07,3.16-1.89,26.46,16.15,25.29,36.64-1.09,19.03-22.41,25.02-21.64,45.86.43,11.68,7.5,19.98,4.71,22.07-2.53,1.89-10.66-3.2-15.64-9.64-7.42-9.59-9.05-23.72-5.28-35.65ZM89.92,95.92c-1.03-15.37,16.19-22.01,14.69-39.43-.74-8.55-5.44-13.48-4.29-14.23,2.01-1.31,18.98,11.73,18.5,26.23-.42,12.46-13.37,15.63-14.64,31.07-.88,10.66,4.6,17.62,2.79,18.64-2.44,1.37-16.16-9.09-17.05-22.29ZM62.45,154.25c13.65-7.19,27.34-11.22,37.28-14.15,6.59-1.94,16.41-4.42,28.78-5.93h.01c3.03.94,6.21,2.01,9.49,3.22.25.09.53.2.84.31-2.24,1.07-4.47,2.16-6.7,3.26-11.11,5.47-23.43,11.64-35.33,20.7-3.58-1.05-6.74-1.87-9.38-2.55-8.68-2.23-17.14-3.78-25.01-4.84,0,0,0,0,.01,0ZM277.8,435.96c-2.34,14.06-8.65,24.1-14.43,33.28-2.95,4.7-5.81,8.6-8.18,11.62-1.51,1.92-2.13,4.39-1.71,6.8,1.97,11.22,3.85,22.73,5.6,34.51,1.57,10.52,2.99,20.85,4.26,30.99.64,5.13-3.36,9.65-8.53,9.65H61.1c-5.33,0-9.36-4.8-8.46-10.05.82-4.78,1.52-8.99,2.09-12.52,3.13-19.38,3.48-24.3,3.14-30-.13-2.2-.5-6.81-3.43-18.85-4.03-16.56-8.21-27.87-10.28-34-6.29-18.6-8.15-33.93-9.72-46.86-4.01-33.02-3.51-87.49-2-96.07.17-.96.91-4.56-.75-8.25-.78-1.74-1.79-2.82-2.25-3.32-4.11-4.51-8.45-11.19-10.5-15.33-1.5-3.03-3.68-8.5-3.64-15.32.01-2.39.07-5.87,1.93-9.75.34-.71,1.35-2.81,2.94-4.66,1.1-1.3,2.49-2.47,4.13-2.99.48-.15.98-.25,1.5-.28,1.82-.09,4.13.65,4.61,2.04.25.75-.12,1.39-.79,2.51-.4.69-.91,1.56-1.46,2.74-.13.28-.44.94-.76,1.81-.35.94-.73,2.12-.96,3.33-.5,2.64-.76,7.95,1.61,9,1.41.63,3.66-.29,4.82-1.82,1.32-1.75.54-3.41.55-6.38,0-.92.07-1.95.31-3.15.15-.73.29-1.51.53-2.29.37-1.24.95-2.49,2.04-3.61,2.83-2.9,6.78-2.59,6.99-2.57,2.35.22,5.49,1.56,5.76,3.54.11.82-.31,1.44-.97,2.46-1.16,1.82-3.13,4.91-3.85,6.64-.71,1.69-.9,3.7-.65,5.5h.01c.29,2.13,1.2,3.99,2.59,4.74.97.53,2.47.68,3.62.05.33-.18.6-.41.81-.66.41-.46.67-.99.86-1.47.5-1.22.7-2.34.77-3.36.17-2.78-.7-4.86.67-6.62,1.24-1.6,3.56-1.97,5.03-1.82,1.82.19,3.1,1.24,3.86,1.93,7.22,6.56,10.07,15,10.07,15,.13.39.26.79.38,1.17.66,2.11,1.17,4.12,1.56,5.98,1.26,6.02,1.27,10.4,1.27,10.85,0,0,.01,1.04,2.15,49.29.14,3.14,2.52,17.45,7.28,46.07,0,0,4.75,28.52,19.07,53.35,2.45,4.24,4.37,4.62,5.25,4.61,1.24,0,2.47-.8,3.11-1.82,1.41-2.26-.21-5.51-.64-6.64-3.93-10.26-7.12-20.82-11.57-30.86-5.67-12.76-6.73-23.9-7.5-31.93-1.41-14.68.39-25.79,1.77-33.94,2.68-15.78,5.65-33.33,13.66-34.84,1.7-.33,4.52-.09,17.14,12.21,8.61,8.39,15.06,15.85,19.28,21,6.32-2.29,14.18-4.56,23.36-6,10.55-1.65,19.84-1.74,27.22-1.29,1.96-3.74,4.78-8.73,8.57-14.35,7.57-11.26,12.36-18.39,17.14-17.79,1.87.23,4.56,1.75,9.86,15.86,2.8,7.45,6.2,18.08,8.57,31.5,2.01,1.6,14.35,11.55,19.93,22.5,3.24,6.37,5.35,13.28,5.35,13.28,1.08,3.54.95,3.96,1.72,5.92,2.64,6.68,7.24,9.32,9.86,12.3,5.64,6.41,3.96,16.48,2.14,27.43ZM289.4,276.15c-1.62,5.19-5.65,11.79-9.39,15.45-2.42,2.37-4.47,5.09-6.93,7.43-.45.44-1.32,1.24-2.08,2.57-1.19,2.08-1.41,4.18-1.42,5.57-.1,27.67-.22,55.33-.32,83h0s0,0,0,0c-1.17-4.44-3.03-9.76-6.07-15.41-6.19-11.48-14.33-18.81-19.8-22.94-1.42-7.65-3.44-15.83-6.29-24.36-.16-4.32-.34-7.6-.52-9.65-.3-3.31-.52-5.55-1.73-8.28-1.3-2.94-2.62-3.9-3.27-6.72-.61-2.66.03-4.16.29-6.71.21-2.14.07-4.18-.28-6.08,6.4-2,12.82-4.52,19.45-7.7,12.61-6.06,27.41-13.16,37.33-24.9,1.85,5.11,3.16,11.89,1.03,18.73ZM292.92,238.67c-1.46,5.14-3.83,9.62-6.82,13.57-9.16,12.1-24.2,19.32-37.23,25.57-6.35,3.05-12.51,5.47-18.66,7.4-21.46,6.75-42.84,7.59-72.2,8.75-45.91,1.8-67.82-4.58-73.43-6.29-1.32-.4-3.55-1.11-6.5-2.17h-.01c-.39-1.6-.88-3.28-1.46-5-.14-.4-3.36-9.76-11.45-17.1-.77-.7-3.12-2.84-6.71-3.2-.35-.04-.73-.06-1.13-.06-1.14,0-2.24.16-3.28.46.04-.49.04-1.01-.04-1.57-.65-4.78-5.76-7.41-10.24-7.84-.08,0-.43-.04-.99-.04-1.52,0-5.01.28-8.23,2.55-1.7-2.85-5.29-4.14-8.42-4.14-.2,0-.39,0-.58,0-1.47.08-3.2.47-5.01,1.47-2.13-2.44-3.85-5.05-5.23-8.08-9.84-21.57,5.01-46.97,8.71-53.29,7.2-12.31,16.75-21.51,26.95-28.51,4.15,1.14,8.68,2.46,13.34,3.94,7.11,2.25,13.91,4.79,20.13,7.34-3.13,3.12-6.19,6.51-9.13,10.23-11.32,14.28-19.01,30.74-16.93,32.29,1.9,1.41,11.3-10.03,28.36-25.43,4.26-3.84,8.41-7.39,12.36-10.64,9.12,4.29,15.52,7.83,17.5,8.93,8.54,4.76,16.31,9.67,23.23,14.39-1.74,1.68-3.33,3.28-4.81,4.76-2.65,2.66-10.35,10.55-17.71,22.57-1.79,2.92-9.75,15.93-7.72,17.58,2.05,1.66,12.63-9.38,26.86-21.58,0,0,5.52-4.73,17.22-13.38,6.36,4.81,11.5,9.03,15.21,12.09,17.3,14.27,26.42,24.25,28.29,22.71,2.13-1.75-6.86-17.01-15.86-28.71-4.57-5.94-9.33-11.21-14.08-15.87,0,0,0,0,0,0,4-2.82,8.4-5.86,13.22-9.13,8.45-5.72,17.26-10.56,26.08-14.66.21.17.42.34.64.52,29.4,24.07,39.98,37.78,42.29,36,2.55-1.96-6.89-21.3-21.16-37.17-1.96-2.18-3.91-4.18-5.86-6.04,0,0,0,0,0,0,11.4-4.32,22.42-7.54,32.22-10.01,10.29,7.34,19.71,16.65,27,28.46,5.09,8.24,17.12,27.73,11.27,48.33Z"/>
      </g>
      <text class="cls-2" transform="translate(184.61 689.33)"><tspan x="0" y="0">COFFEE</tspan></text>
      <g>
        <g>
          <path class="cls-1" d="M357.93,328.94c-8.99-1.86-15.2-5.89-18.3-12.1-4.34-8.06-4.96-13.65-5.58-51.49-.31-20.47,0-49.93.93-66.06,2.17-53.66,6.51-71.33,18.3-77.54,4.03-1.86,6.82-2.48,17.99-2.79,11.79-.31,14.27,0,19.54,1.86,5.89,2.17,12.72,7.75,12.72,10.55,0,.62,2.48-.31,5.89-2.17,12.1-6.51,25.74-8.99,40.32-7.13,22.33,2.79,35.67,12.1,45.28,31.64,10.86,21.4,11.17,53.66,1.24,73.2-4.65,9.3-10.86,16.44-18.3,21.09l-6.82,4.34,6.51,6.2c13.34,13.03,19.23,26.36,17.06,37.22-3.41,16.44-22.33,32.88-37.53,33.19-14.58,0-26.98-11.48-42.8-39.7l-4.34-7.44-.31,14.27c-.31,16.44-1.86,20.47-9.31,26.67-6.51,5.27-13.03,7.13-27.91,6.82-6.82,0-13.34-.31-14.58-.62ZM434.54,203.33c5.27-4.34,7.75-10.24,7.75-17.99,0-8.68-2.79-15.82-7.75-18.61-4.65-2.79-7.75-2.79-12.41,0-10.24,5.89-11.48,25.74-2.17,35.67,4.03,4.65,9.61,4.96,14.58.93Z"/>
          <path class="cls-1" d="M583.01,327.7c-34.12-8.06-61.1-37.22-71.03-75.99-2.17-8.99-7.44-36.29,3.72-68.23,5.89-16.75,17.37-33.81,29.46-44.04,17.37-14.27,34.43-20.47,55.21-20.47,24.19,0,42.18,7.75,61.1,26.05,28.53,27.91,39.39,73.51,26.98,114.45-10.23,34.43-36.6,60.79-67.92,68.23-10.86,2.48-26.98,2.48-37.53,0ZM610.3,255.43c12.41-4.65,19.23-20.78,17.99-41.25-.62-11.79-2.79-18.61-7.44-24.19-9.3-11.17-26.67-10.86-35.36.93-8.68,11.17-10.24,33.81-4.03,49.62,5.27,13.03,17.37,19.23,28.84,14.89Z"/>
        </g>
        <g>
          <path class="cls-1" d="M416.76,576.44c-19.19-2.02-30.64-6.4-41.07-15.82-19.19-18.18-22.22-54.54-5.05-62.62,6.4-3.03,19.86-2.69,38.04,1.68,17.51,4.04,21.55,4.04,24.24,1.35,2.36-2.69,2.36-5.39-.34-9.76-2.02-2.69-6.73-5.39-22.56-12.79-31.65-14.81-42.08-22.89-49.83-38.38-5.39-11.11-7.41-19.53-6.73-30.97,2.69-36.7,25.25-56.9,67.34-60.94,20.54-1.68,38.38,1.01,52.52,8.08,8.75,4.38,18.52,14.48,21.21,21.21,3.7,10.44,1.35,28.28-5.05,36.7-6.06,7.74-17.84,8.75-37.03,2.69-7.07-2.36-15.82-4.38-19.86-4.71-6.4-.34-7.74-.34-10.1,2.02-3.37,3.03-4.04,10.1-1.01,14.14,1.01,1.35,11.11,6.73,22.89,12.12,25.25,11.45,36.7,18.52,48.48,29.63,12.79,12.12,17.51,22.89,17.51,40.74-.34,18.52-5.72,32.32-17.51,44.44-12.12,12.12-24.58,17.84-45.45,20.87-11.78,1.68-16.5,1.68-30.64.34Z"/>
          <path class="cls-1" d="M559.51,576.44c-24.58-2.36-31.65-8.08-34.68-26.93-1.35-10.77-1.35-141.4.34-159.92.67-7.41,2.02-15.49,2.69-17.84,3.03-7.07,9.76-12.79,18.52-16.5,20.54-8.08,70.7-10.1,96.63-3.7,21.55,5.39,26.93,12.12,26.93,33.33,0,11.78-2.02,19.53-6.73,24.24-6.4,6.06-11.11,7.07-40.74,7.07-26.26,0-26.6,0-28.62,2.36-2.69,3.37-3.03,12.46-.67,15.82,2.02,2.69,13.47,3.37,27.61,1.68,11.11-1.35,16.83-.34,20.2,3.37,5.05,5.39,5.05,33.33,0,38.72-3.7,4.04-10.44,4.71-24.58,3.37-20.2-2.02-25.92.34-25.92,11.45s6.73,12.46,41.07,6.06c21.88-4.04,26.93-3.7,33.67,2.69,5.39,5.05,8.08,13.8,8.75,28.62,1.01,21.55-3.37,32.99-14.81,39.05-11.78,6.4-16.16,6.73-57.23,7.07-20.54.34-39.73,0-42.42,0Z"/>
        </g>
      </g>
    </g>
  </g>
</svg>