<?xml version="1.0" encoding="UTF-8"?>
<svg id="Capa_2" data-name="Capa 2" xmlns="http://www.w3.org/2000/svg" viewBox="0 0 1920 1080">
  <defs>
    <style>
      .cls-1 {
        fill: #021a54;
      }

      .cls-2, .cls-3, .cls-4 {
        fill: #faf2e7;
      }

      .cls-3 {
        font-family: SundayMagic-Regular, 'Sunday Magic';
        font-size: 361.52px;
      }

      .cls-4 {
        font-family: Now-Bold, Now;
        font-size: 135.88px;
        font-weight: 700;
      }
    </style>
  </defs>
  <g id="Capa_1-2" data-name="Capa 1">
    <g>
      <rect class="cls-1" width="1920" height="1080"/>
      <g>
        <text class="cls-4" transform="translate(682.67 895.89)"><tspan x="0" y="0">COFFEE</tspan></text>
        <text class="cls-3" transform="translate(559.98 734.92)"><tspan x="0" y="0">ROSE</tspan></text>
      </g>
      <path class="cls-2" d="M457.02,392.19c.46-4.32-2.34-7.83-5.08-10.83s-6.36-5.6-10.63-4.47c-5.06,1.34-8.4,6.55-7.03,11.69,1,3.76,3.77,6.91,6.77,9.27,1.21.95,2.54,1.85,4.05,2.23,5.45,1.36,11.04-2.36,11.92-7.89ZM411.17,356.55c1-2.35.75-4.97-.24-7.28-2.39-5.55-8.96-10.37-15.08-7.77-.93.39-1.82.88-2.62,1.5-4.1,3.16-2.97,8.21-.91,12.23,2.7,5.28,9.07,10.22,14.89,6.34.78-.52,1.47-1.16,2.07-1.88.78-.95,1.4-2.02,1.9-3.14ZM438.27,460.61c-3.99,3.33-9.57,7.23-15.07,5.86-3.98-.99-7.08-4.03-10.24-6.45-5.91-4.52-11.71-9.17-17.53-13.82-15.34-12.25-30.67-24.52-45.67-37.18-4.61-3.9-9.2-7.83-13.64-11.92-2.34-2.15-5.03-4.13-6.53-7-.91-1.74-1.59-3.6-1.92-5.54-1.27-7.43,3.05-14.6,7.71-20s10.45-10.19,17.67-11.28l4.83-.77,1.73-3.82c7-16.96,21.46-31.19,37.77-39.32,4.72-2.35,9.81-4.1,15.06-4.75,3.33-.41,6.72-.38,10.02.24,2.42.46,4.78,1.24,6.98,2.35,12.41,6.31,15.72,21.46,14.06,34.22-.21,1.64-.36,3.3-.59,4.94-.03.23-.32,1.4.03,1.45.31.04.67-.22.95-.33.86-.35,1.74-.66,2.56-1.1,5.94-3.17,12.98-4.55,19.68-4.25,9.86.44,19.29,4.77,25.47,12.56,3.88,4.89,6.29,10.69,7.56,16.77.56,2.68.83,5.43.75,8.18-.41,14.7-10.72,26.75-21.06,36.16-6.3,5.73-13.17,10.87-20.92,14.47-1.64.76-3.25,1.59-4.8,2.51.5.68.47,1.71.59,2.51.44,3.02-.95,6.04-2.27,8.68-3.19,6.36-7.84,11.95-13.18,16.62ZM535.5,372.96c-5.43,2.4-11.4,2.2-16.33-1.27-4.19-2.96-7.54-6.92-10.92-10.74-5.53-6.27-10.73-12.82-15.79-19.46-12.69-16.65-24.59-33.92-35.39-51.86-2.07-3.45-4.13-6.91-5.89-10.53-2.65-5.43-3.85-11.08-.43-16.5,2.61-4.14,6.88-6.86,10.76-9.69,5-3.64,10.4-8.23,16.79-8.94,2.09-.23,4.2.11,6.19.72,3.21.98,5.85,3.13,8.3,5.34,2.9,2.61,5.64,5.41,8.25,8.32,13.23,14.76,24.77,30.93,35.8,47.36,2.22,3.31,4.43,6.63,6.62,9.97,3.96,6.05,7.9,12.12,11.32,18.5,2.61,4.85,5.62,10.4,4.62,16.11-.33,1.86-1.18,3.58-2.06,5.23-2.35,4.43-6.93,6.84-10.75,9.81-3.53,2.74-6.94,5.85-11.09,7.64ZM592.74,334.56c-5.61,2.73-12.32,6.17-18.67,3.94-1.56-.55-3-1.41-4.31-2.42-1.56-1.2-3.01-2.54-4.28-4.05-3.36-3.98-6.01-8.47-8.9-12.78-5.2-7.72-10.33-15.48-15.43-23.27-6.31-9.63-12.57-19.28-18.73-29.01-3.69-5.83-7.59-11.55-10.73-17.71-1.13-2.22-2.14-4.48-3.09-6.78-.47-1.14-1.09-2.24-1.21-3.48-.56-5.76,2.45-11.5,6.03-15.8,5.92-7.1,13.56-12.56,21.18-17.67,12.14-8.13,25.14-15.51,39.3-19.44,5.93-1.64,13.48-3.66,19.11-.09,1.58,1,2.88,2.37,3.99,3.86,1.39,1.87,2.5,3.92,3.51,6.01,2.29,4.7,4.49,10.37,2.15,15.48s-6.99,7.81-11.5,10.41c-4.03,2.32-8.13,4.49-12.21,6.71s-8.2,4.45-12.2,6.85c-1.65.99-3.91,2.05-4.28,4.16-.44,2.46.92,5.01,2.43,6.86.58.71,1.27,1.45,2.17,1.71,1.66.47,3.58-.66,5.04-1.32,4.33-1.97,8.32-4.58,12.22-7.27,3.61-2.49,8.54-6.07,13.19-4.52,1.95.65,3.25,2.49,4.42,4.07,2.6,3.51,4.6,7.47,5.9,11.64.55,1.77,1.15,3.73.53,5.56-1.83,5.42-8.99,7.48-13.68,9.52-.99.43-1.97.87-2.94,1.33-3.75,1.78-10.57,4.63-9.67,9.87.21,1.22.76,2.35,1.39,3.41s1.41,2.16,2.55,2.75c3.44,1.8,7.64-1.55,10.34-3.37.74-.5,1.48-1.01,2.21-1.54.91-.66,1.82-1.32,2.72-2,1.13-.84,2.24-1.7,3.36-2.55,1.49-1.15,2.97-2.3,4.46-3.46,5.73-4.44,12.53-10.64,20.4-8.42,6.31,1.78,9.88,8.13,12.8,13.5,4.26,7.83,7.79,17.6,2.07,25.67-3.96,5.59-9.69,9.26-15.53,12.62-4.58,2.64-9.22,5.18-13.78,7.85-7.45,4.37-14.97,8.63-22.34,13.14ZM677.73,289.26c-2.74.48-5.58.74-8.31.1-8.07-1.89-12.81-10.13-17.1-16.5-2.81-4.18-5.04-8.72-7.35-13.19-3.62-7.01-7.07-14.1-10.46-21.23-3.88-8.17-7.65-16.38-11.23-24.68-2.46-5.7-4.95-11.4-6.76-17.35-1.67-5.49-3.38-11.04-3.9-16.79-.3-3.28,0-6.7,2.11-9.38,1.54-1.95,3.68-3.34,5.74-4.69,4.35-2.86,9.04-5.14,13.89-7.01,3.73-1.44,7.61-2.83,11.67-2.52,12.38.95,22.65,8.19,32.22,15.47,4.17,3.18,8.27,6.44,12.72,9.22,1.6,1,3.67,2.49,5.65,1.7,2.32-.92.14-3.68-.5-5.04-2.14-4.58-5.66-8.36-8.96-12.13-.99-1.13-1.98-2.27-2.94-3.43-3.86-4.65-9.51-11.08-6.25-17.5.52-1.02,1.22-1.95,2.01-2.78,2.78-2.92,6.45-4.86,10.01-6.66,7.83-3.96,16.38-7.43,25.23-7.97,2.94-.18,5.96-.13,8.82.64,7.09,1.91,11.27,8.18,14.58,14.27s5.93,12.52,8.46,18.96c1.47,3.74,2.89,7.51,4.29,11.28,4.66,12.58,8.46,25.45,12.02,38.38.83,3.02,1.65,6.03,2.46,9.05.64,2.41,1.27,4.81,1.87,7.23.45,1.83.89,3.66,1.3,5.49,1.48,6.63,3.7,14.94-1.45,20.59-2.15,2.36-5.09,3.85-7.91,5.25-6.06,3.02-12.58,5.57-19.38,6.11-3.03.24-6.18.23-9.03-.96-3.84-1.61-6.62-4.93-9.05-8.19-4.13-5.52-7.58-11.49-11.09-17.41-6.55-11.05-13.65-22.7-25.05-29.35-2.54-1.48-6.21-3.2-9.14-1.85-1.87.86-1.58,3.32-1.18,4.96,1.1,4.46,4.08,8.11,6.74,11.75,3.82,5.23,8.47,9.76,12.89,14.48,5.69,6.07,11.6,12.25,14.71,20.12.66,1.67,1.16,3.42,1.36,5.21.61,5.43-2.25,10.33-6.2,13.82s-9.02,5.18-13.74,7.3c-4.46,2.01-8.87,4.46-13.76,5.23ZM828.02,241.62c-14.89-2.32-24.48-16.08-32.42-27.58-1.95-2.82-3.85-5.68-5.71-8.57-9.04-14.07-17.61-28.45-25.32-43.3-4.71-9.09-9.53-18.28-12.13-28.24-1.15-4.39-2.41-9.5.85-13.33.67-.79,1.46-1.46,2.32-2.03,1.61-1.09,3.34-1.99,5.1-2.82,4.4-2.07,9.2-3.15,13.94-4.15,5.61-1.19,11.35-2.27,17.11-1.95,2.22.12,4.44.47,6.57,1.13,11.44,3.59,15.4,15.6,17.56,26.21.5,2.45.98,4.9,1.25,7.39.8,7.34,1.63,14.67,2.39,22.01.62,5.92.52,13.82,6.36,17.28,2.78,1.65,6.42.87,8.35-1.7,2.09-2.79,2.18-6.4,2.08-9.74-.17-5.91-1-11.77-1.86-17.61-1.67-11.35-3.26-22.89-2.04-34.37.7-6.52,2.59-13.15,7.25-17.98s11.05-6.06,17.26-6.82c9.8-1.19,21.66-1.16,29.75,5.33.91.73,2.63,1.57,2.82,2.84.18,1.2.73,2.31,1.06,3.47,1.09,3.82.76,7.87.53,11.78-.4,6.75-1.34,13.46-2.39,20.14-3.24,20.47-7.53,40.81-13.98,60.52-3.49,10.67-7.34,21.51-14.03,30.65-1.55,2.12-3.12,4.3-5.28,5.85-3.92,2.82-8.97,3.22-13.56,4.13s-9.16,2.07-13.82,1.47ZM931.66,230.56c-6.23-.34-13.75-.62-18.21-5.65-1.1-1.24-1.93-2.69-2.59-4.21-.78-1.8-1.39-3.69-1.77-5.61-1-5.11-1.13-10.32-1.58-15.5-.79-9.27-1.5-18.55-2.18-27.83-.84-11.48-1.62-22.96-2.27-34.45-.39-6.89-1.03-13.78-.77-20.69.09-2.49.31-4.96.6-7.43.14-1.22.14-2.49.64-3.63,2.34-5.33,7.8-8.86,13.05-10.87,8.62-3.3,17.95-4.35,27.09-5.09,14.75-1.19,29.89-1.3,44.35,2.25,6.06,1.49,13.76,3.48,16.87,9.5.82,1.59,1.26,3.34,1.49,5.11.3,2.31.25,4.64.11,6.96-.32,5.23-1.2,11.23-5.75,14.55s-9.95,3.38-15.17,3.43c-4.67.05-9.34-.07-14.01-.14s-9.38-.13-14.07,0c-1.93.06-4.43-.12-5.79,1.54-1.59,1.94-1.65,4.81-1.24,7.17.16.9.4,1.89,1.06,2.55,1.22,1.23,3.46,1.18,5.06,1.31,4.76.4,9.54.07,14.29-.36,4.39-.4,10.47-1.12,13.79,2.52,1.38,1.52,1.62,3.76,1.86,5.72.54,4.33.35,8.76-.56,13.03-.39,1.81-.83,3.82-2.27,5.11-4.27,3.84-11.55,2.11-16.66,1.6-1.08-.11-2.16-.2-3.24-.27-4.15-.28-11.5-1.13-13.28,3.89-.41,1.17-.48,2.43-.46,3.65s.18,2.57.88,3.65c2.12,3.25,7.43,2.38,10.68,2.11.9-.07,1.79-.16,2.68-.26,1.12-.12,2.25-.26,3.37-.41,1.4-.18,2.8-.38,4.2-.58,1.87-.27,3.74-.55,5.61-.83,7.18-1.07,16.14-3.14,21.92,2.67,4.63,4.65,4.65,11.93,4.56,18.05-.13,8.92-1.87,19.14-10.8,23.38-6.18,2.94-12.98,3.33-19.71,3.4-5.29.05-10.59,0-15.88.1-8.64.17-17.28.22-25.92.57ZM1027.96,232.7c-2.62-.93-5.21-2.1-7.27-4-6.09-5.62-6.18-15.12-6.78-22.77-.4-5.03-.11-10.07.08-15.1.29-7.88.77-15.76,1.32-23.63.64-9.02,1.39-18.03,2.35-27.01.66-6.17,1.29-12.36,2.65-18.43,1.25-5.61,2.49-11.28,4.87-16.54,1.36-3.01,3.31-5.84,6.47-7.13,2.31-.94,4.87-1.1,7.33-1.26,5.21-.35,10.45-.02,15.62.74,3.98.59,8.06,1.29,11.47,3.56,10.34,6.91,15.69,18.3,20.45,29.35,2.08,4.82,4.05,9.69,6.57,14.3.9,1.66,1.98,3.98,4.09,4.27,2.48.34,1.94-3.13,2.06-4.63.4-5.04-.8-10.07-1.82-14.97-.31-1.48-.6-2.95-.87-4.44-1.07-5.95-2.82-14.33,3.2-18.3.96-.63,2.03-1.09,3.13-1.42,3.87-1.17,8.03-1.04,12.02-.85,8.78.43,17.94,1.64,25.92,5.55,3.32,1.63,6.61,3.66,8.89,6.64,3.08,4.01,3.88,9.11,4.08,14.03.32,8.22-.83,16.41-1.99,24.53-.57,3.98-1.2,7.95-1.85,11.92-2.17,13.24-5.23,26.31-8.52,39.3-.77,3.03-1.54,6.06-2.34,9.09-.63,2.41-1.28,4.81-1.95,7.21-.51,1.81-1.03,3.62-1.58,5.42-1.99,6.49-4.16,14.82-11.43,17.18-3.04.99-6.33.83-9.47.66-6.76-.37-13.7-1.37-19.88-4.27-2.75-1.29-5.48-2.85-7.37-5.29-2.55-3.3-3.32-7.56-3.84-11.59-.87-6.84-.93-13.74-1.06-20.62-.25-12.86-.72-26.47-7.35-37.89-1.48-2.54-3.82-5.85-7.03-6.12-2.05-.17-3.01,2.11-3.47,3.73-1.25,4.43-.45,9.07.07,13.54.74,6.43,2.56,12.67,4.07,18.95,1.95,8.09,4.04,16.38,2.86,24.75-.25,1.75-.66,3.49-1.35,5.12-2.13,5.06-7.03,7.95-12.23,9.05s-10.4.06-15.55-.42c-4.87-.45-9.93-.48-14.56-2.22ZM1152.24,256.76c-5.19-2.88-8.62-7.78-8.81-13.8-.17-5.13.97-10.19,1.98-15.19,1.66-8.19,3.75-16.29,6-24.34,5.63-20.17,12.23-40.07,20.05-59.5,1.52-3.77,3.06-7.53,4.91-11.15,2.74-5.36,6.56-9.66,12.91-10.17,4.94-.39,9.73,1.39,14.37,2.81,5.95,1.82,12.91,3.38,17.35,8.07,1.45,1.53,2.44,3.43,3.16,5.39,1.17,3.19,1.04,6.63.74,9.96-.34,3.86-.92,7.69-1.67,11.49-3.83,19.44-9.84,38.39-16.36,57.07-1.31,3.77-2.64,7.53-4,11.28-2.45,6.77-4.93,13.53-7.96,20.07-2.32,5.01-4.94,10.75-10.1,13.41-1.71.88-3.62,1.24-5.5,1.54-4.94.79-9.62-1.43-14.28-2.69-4.32-1.17-8.86-2.03-12.8-4.26ZM1288.86,254.84c3.73-.31,6.63-3.23,8.97-5.88,5.77-6.54,9.87-14.91,11.02-23.59.92-6.92-1.7-16.91-10.11-17.26-1.06-.04-2.12.09-3.13.4-3.81,1.18-6.78,4.06-9.27,7.06-5.55,6.66-9.24,15.01-10.05,23.66-.55,5.88,1.13,12.6,7.34,14.66,1.68.56,3.45,1.02,5.24.94ZM1214.97,278.09c-4.22-2.54-8.93-6.03-10.15-11.1s.73-10.4,1.93-15.29c2.6-10.6,5.84-21.02,9.06-31.44,4.29-13.9,9.21-27.61,14.89-41,3.47-8.18,6.87-16.54,12.07-23.82,1.44-2.02,3.12-3.89,5.14-5.35,8.39-6.06,20.05-2.27,28.65,1.29,6.8,2.81,15.19,7.64,16.63,15.5.16.88,1.05,1.33,1.82,1.58,1.69.54,3.47.46,5.21.64,8.28.86,16.46,2.79,23.98,6.44,17.02,8.29,30.26,23.93,33.47,42.83,2.75,16.17-1.14,32.51-9.35,46.56-10.51,17.99-27.52,32.38-48.04,37.22-19.24,4.54-38.78-2.31-53.45-14.95l-4.92-4.44-2.29,1.04c-5.09,1.96-10.48.18-15.37-1.52-3.21-1.11-6.42-2.36-9.3-4.19ZM1405.86,327.57c11.3,3.34,21.29-5.88,27.05-14.58,3.2-4.83,5.88-10.32,5.14-16.28-1.27-10.16-12.31-17.38-22.15-14.84-3.62.93-6.82,3.02-9.57,5.5-5.84,5.25-10.26,12.46-11.68,20.23-1.53,8.39,2.76,17.39,11.2,19.96ZM1362.4,356c-16.56-18.41-20.73-46.22-13.76-69.56,4.44-14.88,13.61-28.34,26.05-37.68,10.04-7.54,22.4-12.39,35.01-12.83,15.69-.56,31.1,4.21,43.82,13.38,5.32,3.83,10.26,8.24,14.38,13.35,6.92,8.59,11.24,18.98,13.33,29.76,5.54,28.52-9.26,56.71-33.39,71.81-18.95,11.86-44.38,15.64-65.16,6.38-7.62-3.4-14.66-8.44-20.28-14.62ZM1455.27,433.95c-5.92-7.1-11.28-15.3-11.98-24.76s3.1-19.99,10.24-26.58c3.55-3.28,8.53-5.66,13.39-4.01,2.68.91,4.91,2.83,6.95,4.74,4.15,3.91,7.54,8.52,10.72,13.23.64.94,1.27,1.88,1.92,2.81.47.69.95,1.37,1.43,2.05,1.69,2.39,3.95,6.77,7.43,6.52,2.38-.17,3.73-2.35,3.91-4.55.16-2.05-.63-4.07-1.28-5.98-1.18-3.46-2.59-6.83-4-10.2-5.25-12.5-11.93-26.31-8.65-40.2,1.53-6.47,4.33-12.69,9.18-17.36,3.24-3.12,6.92-5.83,11.01-7.73,2.72-1.26,5.61-2.16,8.57-2.63,15.23-2.42,30.28,6.29,41.43,15.8,9.81,8.36,18.81,18.63,23.22,30.93,1.62,4.52,2.14,9.4,1.86,14.18-.12,2.01-.3,4.1-1.2,5.94-2.45,5.02-7.32,8.56-12.33,10.75-2.18.95-4.51,1.68-6.91,1.68-7.74-.03-12.96-7.88-16.53-13.76-.82-1.35-1.6-2.71-2.34-4.1-2.24-4.22-4.6-8.44-7.84-11.98-1.62-1.77-3.29-3.69-5.86-3.86-3.15-.2-6.38,2.69-6.42,5.87-.03,1.76.95,3.45,1.53,5.07,1.38,3.88,2.93,7.7,4.5,11.5,4.78,11.58,9.01,23.75,9.26,36.41.19,9.86-3.54,18.91-11.13,25.31s-17.66,10.44-27.92,9.81-20.35-5.38-28.74-11.83c-4.96-3.81-9.33-8.3-13.39-13.05Z"/>
    </g>
  </g>
</svg>