<?xml version="1.0" encoding="UTF-8"?>
<svg id="Capa_2" data-name="Capa 2" xmlns="http://www.w3.org/2000/svg" viewBox="0 0 1080 1080">
  <defs>
    <style>
      .cls-1, .cls-2 {
        fill: #faf2e7;
      }

      .cls-2 {
        font-family: Now-Bold, Now;
        font-size: 65.07px;
        font-weight: 700;
      }
    </style>
  </defs>
  <g id="Capa_1-2" data-name="Capa 1">
    <g>
      <rect x="0" y="0" width="1080" height="1080" rx="540" ry="540"/>
      <g>
        <g>
          <path class="cls-1" d="M495.24,408.41c-5.7-9.24-13.37-17.33-22.77-24.04-1.54-1.1-3.35-1.68-5.25-1.68-.2,0-.4.02-.6.04-.76-1.89-2.15-3.52-4.02-4.55-9.36-5.16-20-9.21-31.78-12.12,3.84-2.73,4.76-7.16,2.71-13.19-.71-2.08-1.51-4.44-1.27-7.32.26-3.12,1.5-4.79,4.07-7.97,2.84-3.52,6.73-8.33,6.98-15.87.33-9.97-5.83-17.88-9.53-21.71-4.78-4.94-9.2-7.44-13.14-7.44-1.88,0-3.68.53-5.23,1.54-.58.38-1.33.96-2.04,1.77-2.36-7.39-6.95-13.19-10.13-16.56-3.34-3.54-9.86-9.47-16-9.47-1.82,0-3.58.48-5.09,1.39-7.38,4.42-3.91,12.65-2.77,15.35,1.51,3.58,3.57,8.48,2.33,13.7-.63,2.67-1.71,3.78-3.86,6.01-1.59,1.64-3.5,3.62-5.31,6.4-1.99-5.67-5.59-10.11-8.09-12.69-4.78-4.94-9.2-7.44-13.14-7.44-1.88,0-3.68.53-5.23,1.54-2.11,1.38-6.59,5.48-2.57,13.69.73,1.49,1.55,3.17,1.74,5.36.29,3.4-1.22,5.76-4.16,9.99-3.16,4.56-7.5,10.8-6.92,19.53.66,9.93,8.13,19.69,15.39,23.56-.52.15-1.05.29-1.57.45-7.86,2.32-18.63,5.49-29.71,11.33l-.17.09c-1.7.95-3.01,2.39-3.79,4.07-.15,0-.3-.01-.45-.01-1.83,0-3.6.55-5.11,1.59-9.68,6.64-17.41,14.84-22.97,24.35-13.51,23.07-11.25,39.07-6.98,48.43.78,1.7,1.67,3.31,2.71,4.84-.59,1-.98,1.82-1.17,2.21-2.31,4.83-2.33,9.13-2.34,11.19-.04,6.67,1.98,12.16,3.68,15.6,1.77,3.57,5.45,9.37,9.38,13.67.02.03.05.05.08.09.03.22-.04.64-.07.8l-.02.12c-1.42,8.06-1.65,49.58,1.44,74.99,1.2,9.89,2.7,22.2,7.73,37.07.21.62.44,1.3.7,2.05l.07.19c1.69,4.9,4.25,12.3,6.75,22.6,2.11,8.67,2.28,11.62,2.34,12.59.2,3.35.05,6.31-2.26,20.61-.42,2.63-.95,5.77-1.56,9.34-.77,4.52.47,9.12,3.43,12.62,2.95,3.5,7.27,5.51,11.85,5.51h145.85c4.45,0,8.69-1.91,11.63-5.24,2.94-3.33,4.31-7.77,3.76-12.18-.96-7.67-2.05-15.59-3.24-23.54-1.22-8.2-2.58-16.64-4.06-25.1,2.14-2.79,4.16-5.68,6-8.61,4.49-7.12,10.07-15.99,12.13-28.41,1.56-9.39,3.33-20.04-3.74-28.08-.85-.97-1.75-1.79-2.55-2.52-.41-.37-.77-.71-1.1-1.04.69-1.28,1.07-2.73,1.08-4.27.04-10.29.08-20.58.12-30.87,0,0,.08-21.07.12-31.4,1.18-1.14,2.2-2.29,3.11-3.32.75-.84,1.39-1.57,2.03-2.19,3.87-3.79,7.73-10.12,9.38-15.4,1.9-6.09,1.59-12.95-.89-19.82,1.55-2.74,2.76-5.62,3.61-8.62,5.49-19.35-5.01-36.34-9.49-43.6Z"/>
          <text class="cls-2" transform="translate(414.49 788.85)"><tspan x="0" y="0">COFFEE</tspan></text>
          <g>
            <g>
              <path class="cls-1" d="M546.02,517.63c-6.71-1.39-11.34-4.4-13.66-9.03-3.24-6.02-3.7-10.18-4.17-38.42-.23-15.28,0-37.26.69-49.3,1.62-40.04,4.86-53.23,13.66-57.86,3.01-1.39,5.09-1.85,13.42-2.08,8.79-.23,10.65,0,14.58,1.39,4.4,1.62,9.49,5.79,9.49,7.87,0,.46,1.85-.23,4.4-1.62,9.03-4.86,19.21-6.71,30.09-5.32,16.66,2.08,26.62,9.03,33.79,23.61,8.1,15.97,8.33,40.04.93,54.62-3.47,6.94-8.1,12.27-13.66,15.74l-5.09,3.24,4.86,4.63c9.95,9.72,14.35,19.67,12.73,27.77-2.55,12.27-16.66,24.53-28,24.76-10.88,0-20.14-8.56-31.94-29.62l-3.24-5.55-.23,10.65c-.23,12.27-1.39,15.28-6.94,19.9-4.86,3.93-9.72,5.32-20.83,5.09-5.09,0-9.95-.23-10.88-.46ZM603.19,423.9c3.93-3.24,5.79-7.64,5.79-13.42,0-6.48-2.08-11.8-5.79-13.89-3.47-2.08-5.79-2.08-9.26,0-7.64,4.4-8.56,19.21-1.62,26.62,3.01,3.47,7.17,3.7,10.88.69Z"/>
              <path class="cls-1" d="M713.98,516.71c-25.46-6.02-45.59-27.77-53-56.7-1.62-6.71-5.55-27.08,2.78-50.92,4.4-12.5,12.96-25.23,21.99-32.86,12.96-10.65,25.69-15.28,41.2-15.28,18.05,0,31.48,5.79,45.59,19.44,21.29,20.83,29.39,54.85,20.14,85.4-7.64,25.69-27.31,45.36-50.69,50.92-8.1,1.85-20.14,1.85-28,0ZM734.34,462.78c9.26-3.47,14.35-15.51,13.42-30.78-.46-8.79-2.08-13.89-5.55-18.05-6.94-8.33-19.9-8.1-26.38.69-6.48,8.33-7.64,25.23-3.01,37.03,3.93,9.72,12.96,14.35,21.52,11.11Z"/>
            </g>
            <g>
              <path class="cls-1" d="M589.92,702.33c-14.32-1.51-22.86-4.77-30.65-11.81-14.32-13.57-16.58-40.7-3.77-46.73,4.77-2.26,14.82-2.01,28.39,1.26,13.06,3.01,16.08,3.01,18.09,1,1.76-2.01,1.76-4.02-.25-7.29-1.51-2.01-5.02-4.02-16.83-9.55-23.62-11.05-31.4-17.08-37.18-28.64-4.02-8.29-5.53-14.57-5.02-23.11,2.01-27.38,18.84-42.46,50.25-45.47,15.33-1.26,28.64.75,39.19,6.03,6.53,3.27,13.82,10.8,15.83,15.83,2.76,7.79,1.01,21.1-3.77,27.38-4.52,5.78-13.32,6.53-27.64,2.01-5.28-1.76-11.81-3.27-14.82-3.52-4.77-.25-5.78-.25-7.54,1.51-2.51,2.26-3.02,7.54-.75,10.55.75,1.01,8.29,5.02,17.08,9.04,18.84,8.54,27.38,13.82,36.18,22.11,9.55,9.04,13.06,17.08,13.06,30.4-.25,13.82-4.27,24.12-13.06,33.16-9.04,9.04-18.34,13.32-33.92,15.58-8.79,1.26-12.31,1.26-22.86.25Z"/>
              <path class="cls-1" d="M696.44,702.33c-18.34-1.76-23.62-6.03-25.88-20.1-1.01-8.04-1.01-105.52.25-119.34.5-5.53,1.51-11.56,2.01-13.32,2.26-5.28,7.29-9.55,13.82-12.31,15.33-6.03,52.76-7.54,72.1-2.76,16.08,4.02,20.1,9.04,20.1,24.87,0,8.79-1.51,14.57-5.02,18.09-4.77,4.52-8.29,5.28-30.4,5.28-19.6,0-19.85,0-21.35,1.76-2.01,2.51-2.26,9.3-.5,11.81,1.51,2.01,10.05,2.51,20.6,1.26,8.29-1,12.56-.25,15.07,2.51,3.77,4.02,3.77,24.87,0,28.89-2.76,3.01-7.79,3.52-18.34,2.51-15.07-1.51-19.34.25-19.34,8.54s5.02,9.3,30.65,4.52c16.33-3.01,20.1-2.76,25.12,2.01,4.02,3.77,6.03,10.3,6.53,21.35.75,16.08-2.51,24.62-11.05,29.14-8.79,4.77-12.06,5.02-42.71,5.28-15.33.25-29.65,0-31.66,0Z"/>
            </g>
          </g>
        </g>
        <g>
          <path d="M475.62,568.17c-.58-1.48-.48-1.79-1.29-4.46,0,0-1.59-5.2-4.03-10-4.2-8.24-13.49-15.74-15.01-16.94-1.78-10.1-4.34-18.11-6.45-23.72-3.99-10.62-6.02-11.77-7.42-11.94-3.6-.45-7.21,4.92-12.9,13.39-2.85,4.23-4.98,7.99-6.45,10.8-5.56-.34-12.55-.27-20.49.97-6.91,1.08-12.83,2.79-17.59,4.52-3.18-3.88-8.03-9.49-14.52-15.81-9.5-9.26-11.62-9.44-12.9-9.19-6.03,1.14-8.27,14.35-10.28,26.23-1.04,6.14-2.39,14.5-1.33,25.55.58,6.05,1.38,14.43,5.65,24.04,3.35,7.56,5.75,15.51,8.71,23.23.32.85,1.54,3.3.48,5-.48.77-1.41,1.36-2.34,1.37-.66,0-2.11-.28-3.95-3.47-10.78-18.69-14.36-40.17-14.36-40.17-3.58-21.55-5.38-32.32-5.48-34.69-1.61-36.33-1.62-37.11-1.62-37.11,0-.34,0-3.64-.96-8.17-.29-1.4-.68-2.91-1.17-4.5-.09-.29-.19-.59-.29-.88,0,0-2.15-6.35-7.58-11.29-.57-.52-1.54-1.31-2.91-1.45-1.11-.11-2.85.17-3.79,1.37-1.03,1.33-.38,2.89-.5,4.98-.05.77-.2,1.61-.58,2.53-.14.36-.34.76-.65,1.11-.16.19-.36.36-.61.5-.87.47-2,.36-2.73-.04-1.05-.56-1.73-1.96-1.95-3.57h0c-.19-1.36-.05-2.87.49-4.14.54-1.3,2.03-3.63,2.9-5,.5-.77.81-1.23.73-1.85-.2-1.49-2.57-2.5-4.34-2.67-.16-.02-3.13-.25-5.26,1.93-.82.84-1.26,1.78-1.54,2.72-.18.59-.29,1.17-.4,1.72-.18.9-.23,1.68-.23,2.37,0,2.24.58,3.49-.41,4.8-.87,1.15-2.57,1.84-3.63,1.37-1.78-.79-1.59-4.79-1.21-6.78.17-.91.46-1.8.72-2.51.24-.66.47-1.15.57-1.36.41-.89.8-1.54,1.1-2.06.5-.84.78-1.32.59-1.89-.36-1.05-2.1-1.6-3.47-1.54-.39.02-.77.1-1.13.21-1.23.39-2.28,1.27-3.11,2.25-1.2,1.39-1.96,2.97-2.21,3.51-1.4,2.92-1.45,5.54-1.45,7.34-.03,5.14,1.61,9.25,2.74,11.53,1.54,3.12,4.81,8.15,7.91,11.54.35.38,1.11,1.19,1.69,2.5,1.25,2.78.69,5.49.56,6.21-1.14,6.46-1.51,47.47,1.51,72.33,1.18,9.74,2.58,21.28,7.32,35.28,1.56,4.62,4.71,13.13,7.74,25.6,2.21,9.07,2.48,12.54,2.58,14.19.26,4.29,0,8-2.36,22.59-.43,2.66-.96,5.83-1.57,9.43-.68,3.95,2.36,7.57,6.37,7.57h145.85c3.89,0,6.9-3.4,6.42-7.27-.96-7.63-2.03-15.41-3.21-23.33-1.32-8.87-2.73-17.54-4.22-25.98-.32-1.81.15-3.67,1.29-5.12,1.78-2.27,3.94-5.21,6.16-8.75,4.35-6.91,9.1-14.47,10.86-25.06,1.37-8.24,2.64-15.83-1.61-20.65-1.97-2.24-5.44-4.23-7.42-9.26ZM414.52,577.55c-2.72,7.1-11.08,8.44-12.37,8.64-6.27,1-13.39-1.45-17.15-6.93-.77-1.12-3.21-4.8-2.58-9.68.81-6.3,6.08-9.64,6.93-10.16,7.06-4.3,17.71-2.17,22.75,4.68.59.81,4.93,6.9,2.42,13.46ZM437.57,581.26c-.35,1.01-.93,1.63-1.38,2.08-.73.75-2.25,2.31-4.46,2.29-1.74-.02-2.95-.99-3.82-1.69-.74-.59-1.94-1.57-2.26-3.22-.1-.49-.23-1.23.08-1.94.89-2.02,4.65-2,6.53-1.98,2.19,0,4.54.02,5.34,1.5.61,1.11.1,2.61-.03,2.97ZM463.89,572.08c-.75,1.35-3.89,6.39-10,7.1-6.29.72-10.56-3.75-11.46-4.76-4.36-4.88-3.61-10.88-3.46-11.94.16-1.08.59-3.89,2.74-6.61.45-.58,3.85-4.74,9.68-5.08,7.48-.44,11.87,5.87,12.1,6.21,3.21,4.8,2.83,10.77.4,15.08Z"/>
          <path d="M403.39,562.8c-.16-.09-2.42-1.39-4.59-.48-3.61,1.52-3.37,7.69-3.32,8.71.07,1.66.27,6.74,3.8,8.26,1.72.75,4.02.55,5.56-.68,2.12-1.69,1.94-4.68,1.77-7.58-.16-2.75-.38-6.54-3.22-8.23Z"/>
          <path d="M454.14,557.62c-.44-.4-1.51-1.34-2.92-1.27-1.46.08-2.46,1.2-2.79,1.57-3.55,4.01-.24,13.45,2.55,14.47,1.17.43,2.25.25,2.25.25,0,0,.87-.14,1.65-.66,2.31-1.54,3.41-10.68-.75-14.36Z"/>
          <path d="M464.5,482.4c-4.99,2.39-9.83,4.29-14.64,5.8.26,1.43.37,2.97.21,4.58-.2,1.92-.68,3.05-.22,5.05.49,2.12,1.48,2.85,2.46,5.06.91,2.06,1.08,3.74,1.3,6.23.14,1.54.27,4.01.39,7.27h0c2.14,6.42,3.66,12.58,4.74,18.34,4.12,3.11,10.25,8.63,14.91,17.27,2.29,4.25,3.69,8.26,4.57,11.6.08-20.83.17-41.66.24-62.49,0-1.05.17-2.63,1.07-4.19.57-1,1.23-1.6,1.57-1.94,1.85-1.76,3.4-3.81,5.22-5.59,2.82-2.76,5.85-7.73,7.07-11.63,1.6-5.15.62-10.25-.78-14.1-7.47,8.84-18.61,14.19-28.11,18.75Z"/>
          <polygon points="478.22 563.61 478.22 563.61 478.22 563.61 478.22 563.61"/>
          <path d="M372.63,387.8c-2.1,1.42-6.21,4.18-11.55,8.14,6.91,2.79,14.72,6.64,22.84,12.08,2.2,1.47,4.53,3.13,6.93,5h0c6.28-5.11,14.1-10.47,23.93-15.13,1.75-.83,3.45-1.58,5.12-2.27-8.6-6.43-13.85-9.54-16.68-11.15-4.61-2.63-8.89-4.78-12.56-6.48-5.95,2.55-12.05,5.76-18.04,9.82Z"/>
          <path d="M422.64,384.46c3.42,2.08,6.89,4.2,10.4,6.68,6.59-1.79,13.03-2.94,20.03-4.2,1.71-.31,3.43-.59,5.16-.86-17.61-9.71-36.7-13.21-47.73-14.67,0,0,0,0,0,0-2.84.7-5.8,1.51-8.84,2.48,6.3,2.58,13.47,6.02,20.97,10.57Z"/>
          <path d="M487.55,413.15c-5.49-8.89-12.58-15.9-20.33-21.43-7.38,1.86-15.68,4.28-24.26,7.54,0,0,0,0,0,0,1.47,1.4,2.94,2.91,4.41,4.55,10.74,11.95,17.85,26.51,15.93,27.98-1.74,1.34-9.7-8.99-31.84-27.1-.16-.13-.32-.26-.48-.39-6.64,3.09-13.27,6.73-19.63,11.04-3.63,2.46-6.94,4.75-9.95,6.87,0,0,0,0,0,0,3.58,3.51,7.16,7.48,10.6,11.95,6.77,8.81,13.54,20.3,11.94,21.62-1.41,1.16-8.27-6.36-21.3-17.1-2.8-2.31-6.67-5.48-11.45-9.1-8.81,6.51-12.96,10.07-12.96,10.07-10.71,9.19-18.68,17.5-20.22,16.25-1.53-1.24,4.46-11.04,5.81-13.24,5.54-9.05,11.34-14.99,13.33-16.99,1.11-1.11,2.31-2.32,3.62-3.58-5.21-3.55-11.06-7.25-17.49-10.83-1.49-.83-6.31-3.49-13.17-6.72-2.97,2.45-6.1,5.12-9.3,8.01-12.84,11.59-19.92,20.21-21.35,19.15-1.57-1.16,4.22-13.55,12.75-24.31,2.22-2.8,4.52-5.35,6.88-7.7-4.69-1.92-9.81-3.83-15.16-5.53-3.51-1.11-6.92-2.1-10.05-2.96-7.68,5.27-14.87,12.2-20.29,21.46-2.79,4.76-13.97,23.88-6.56,40.12,1.04,2.28,2.33,4.25,3.94,6.08,1.36-.75,2.67-1.05,3.77-1.11.14,0,.29,0,.44,0,2.36,0,5.06.97,6.34,3.12,2.42-1.71,5.05-1.92,6.2-1.92.42,0,.69.03.75.03,3.37.32,7.22,2.3,7.71,5.9.06.42.06.81.03,1.18.78-.23,1.61-.35,2.47-.35.3,0,.59.02.85.04,2.7.27,4.47,1.88,5.05,2.41,6.09,5.53,8.52,12.57,8.62,12.87.44,1.3.81,2.56,1.1,3.76h0c2.22.8,3.9,1.33,4.89,1.63,4.22,1.29,20.72,6.09,55.29,4.74,22.11-.87,38.2-1.51,54.36-6.59,4.63-1.45,9.27-3.28,14.05-5.57,9.81-4.71,21.13-10.14,28.03-19.25,2.25-2.97,4.04-6.35,5.13-10.22,4.4-15.51-4.65-30.18-8.49-36.39Z"/>
          <path d="M348.39,391.55c8.96-6.82,18.24-11.46,26.6-15.58,1.68-.83,3.36-1.65,5.05-2.45-.24-.09-.45-.17-.64-.24-2.47-.91-4.86-1.71-7.15-2.42,0,0,0,0,0,0-9.31,1.14-16.71,3-21.67,4.46-7.48,2.21-17.79,5.24-28.07,10.65,0,0,0,0-.01,0,5.92.8,12.29,1.97,18.83,3.65,1.99.51,4.37,1.13,7.06,1.92Z"/>
          <path d="M412.52,342.06c.66,9.94,11,17.81,12.83,16.78,1.36-.77-2.76-6.01-2.1-14.04.96-11.63,10.71-14.01,11.02-23.39.37-10.92-12.41-20.74-13.93-19.75-.87.57,2.67,4.28,3.23,10.72,1.13,13.12-11.83,18.12-11.06,29.69Z"/>
          <path d="M343.19,342.06c.66,9.94,11,17.81,12.83,16.78,1.36-.77-2.76-6.01-2.1-14.04.96-11.63,10.71-14.01,11.02-23.39.37-10.92-12.41-20.74-13.93-19.75-.87.57,2.67,4.28,3.23,10.72,1.13,13.12-11.83,18.12-11.06,29.69Z"/>
          <path d="M393.09,357.71c2.1-1.57-3.23-7.82-3.55-16.62-.57-15.69,15.48-20.2,16.3-34.53.88-15.43-16.66-29.01-19.04-27.59-1.87,1.12,6.65,10.97,3.7,23.39-2.4,10.14-9.6,9.95-13.17,21.24-2.84,8.98-1.61,19.61,3.98,26.84,3.75,4.85,9.87,8.69,11.78,7.26Z"/>
        </g>
      </g>
      <path class="cls-1" d="M201.56,292.2c-.05-2.51-1.97-4.72-3.55-6.51-4.15-4.71-9.48-8.67-15.36-10.95-3.68-1.43-11.49-2.49-12.14,3.14-.07.64-.02,1.29.13,1.92.66,2.64,2.5,4.86,4.32,6.8,4.27,4.55,9.66,8.21,15.55,10.29,3.24,1.14,8.31,2.02,10.18-1.76.45-.92.82-1.9.86-2.93ZM213.96,339.95c-2.12,2.19-4.86,4.04-8.04,3.84-3.72-.24-7.16-2.31-10.45-3.87-7.11-3.36-14.05-7.05-21-10.72-9.31-4.92-18.46-10.17-27.34-15.83-5.41-3.44-10.93-6.85-15.64-11.24-1.27-1.19-2.45-2.5-3.35-3.99-3.38-5.59-.57-12.03,2.63-16.98,2.58-4,6.5-7.64,11.53-7.3,1.6.11,1.66-2.92,1.89-3.95,1.04-4.8,2.78-9.46,5.71-13.44,7.06-9.6,18.88-14.21,30.61-12.79s21.86,7,30.5,14.43c10.79,9.27,20.12,21.88,22.64,36.15,2.03,11.5-2.55,22.2-12.14,28.8l-3.21,2.07.61,1.53c1.01,3.11-.22,5.97-1.69,8.69-.9,1.66-1.9,3.29-3.26,4.62ZM261.02,278.68c-4.01,3.34-8.39,5.49-13.47,2.97-1.26-.62-2.47-1.35-3.61-2.17-3.05-2.21-5.8-4.8-8.66-7.25-5.13-4.4-10.23-8.85-15.32-13.3-6.26-5.48-12.51-10.99-18.7-16.55-3.7-3.32-7.47-6.55-10.93-10.13-1.83-1.9-4.01-3.69-5.17-6.11-1.6-3.34-1.37-7.34-.1-10.75,1.89-5.04,5.23-9.39,8.64-13.49,5.55-6.67,11.85-13,19.56-17.12,3.5-1.87,7.69-3.74,11.63-2.06,1.2.51,2.27,1.26,3.26,2.1,1.28,1.08,2.43,2.31,3.54,3.57,2.37,2.7,5.18,6.08,4.97,9.91-.18,3.27-2.26,5.72-4.43,7.97-1.89,1.95-3.86,3.81-5.82,5.69-1.95,1.87-3.89,3.75-5.75,5.72-.8.85-1.81,1.8-1.52,3.09.45,2.01,2.74,4.83,4.92,5.03,1.05.1,1.99-.8,2.75-1.41,2.14-1.72,3.93-3.83,5.63-5.98,1.64-2.06,3.87-4.77,6.85-4.22,1.3.24,2.4,1.2,3.39,2.02,2.45,2.01,4.61,4.37,6.44,6.96.79,1.12,1.74,2.38,1.81,3.8.18,3.49-3.52,5.66-5.91,7.5-.5.39-1,.79-1.49,1.2-2.07,1.74-4.97,4.27-3.3,7.24.44.78,1.06,1.46,1.71,2.08.42.4.88.76,1.4,1.03,3.75,1.93,6.54-3.07,8.31-5.54.46-.65.92-1.3,1.37-1.96.61-.88,1.21-1.77,1.81-2.66,2.4-3.55,5.1-8.1,10.09-7.4,4.46.63,7.94,4.5,10.85,7.6,4,4.25,9,10.15,7.49,16.46-1.64,6.87-7.61,11.03-12.24,15.85-3.32,3.44-6.71,6.82-9.98,10.31ZM302.68,239.66c-4.52,2.39-9.15,3.24-13.77.53-1.4-.82-2.72-1.78-3.98-2.81-3.25-2.68-6.02-5.88-8.88-8.95-4.7-5.04-9.32-10.16-13.62-15.54-3.32-4.16-6.73-8.25-10.08-12.39-5.91-7.29-11.63-14.76-16.83-22.57-.86-1.3-1.69-2.64-2.3-4.08-2.28-5.3,1.22-9.66,5.1-12.95,4.78-4.06,11.77-8.94,18.18-5.54,3.22,1.71,5.5,4.78,7.63,7.63,4.31,5.75,7.83,12.02,11.49,18.19,3.15,5.31,6.47,10.57,10.64,15.16,1.22,1.34,3.11,3.85,5.19,3.54,1.16-.17,2.12-.96,2.99-1.7,1.92-1.62,3.49-3.59,5.05-5.54,2.1-2.62,4.85-6.97,8.83-6.01,4.3,1.03,6.95,5.77,9.34,9.09,4.31,6,9.14,14.19,6.82,21.86-.4,1.31-.99,2.56-1.75,3.7-3.32,4.98-7.74,9.01-12.34,12.79-2.45,2.01-4.82,4.23-7.71,5.62ZM343.17,211.32c-3.72.96-7.28-.56-9.94-3.18-2.33-2.3-4.22-5-6.12-7.66-3.08-4.3-5.98-8.73-8.81-13.19-8.75-13.78-16.89-27.95-24.28-42.51-2.74-5.4-8.02-13.02-3.98-19.05,1.63-2.43,4.35-3.78,6.81-5.22,4.36-2.56,9.31-5.35,14.3-2.63,4.54,2.48,7.36,7.33,10.21,11.45,8.15,11.8,15.21,24.31,21.96,36.95,1.36,2.55,2.72,5.11,4.06,7.67,2.4,4.59,4.78,9.19,6.88,13.92,1.56,3.53,3.52,7.59,2.95,11.56-.17,1.17-.65,2.25-1.18,3.29-1.3,2.56-4.04,3.6-6.32,5.07-2.07,1.34-4.1,2.93-6.53,3.53ZM354.11,170.11c-9.09-9.51-15.82-21.9-17.82-34.97-2.48-16.17,2.76-34.26,17.52-42.92,2.61-1.53,5.43-2.71,8.35-3.49,3.97-1.06,8.12-1.35,12.21-1.03,5.85.46,11.82,2.33,16.68,5.66,3.51,2.41,7.02,5.39,8.33,9.6,1.14,3.67.2,7.36-1.44,10.71-1.63,3.34-4.05,6.33-7.49,7.91-2.55,1.18-5.03.55-7.19-1.11-3.41-2.61-7.26-6.12-11.87-5.81-6.34.44-7.48,9.48-7.17,14.34.08,1.24.23,2.48.52,3.69.9,3.8,2.65,7.35,4.53,10.76,1.48,2.69,3.09,5.38,5.26,7.58,1.75,1.77,4.31,3.49,6.9,3.48,5.98-.02,7.35-7.45,8.3-12,.29-1.37.64-2.76,1.35-3.98,1.44-2.45,4.26-3.26,6.81-3.99,4.78-1.37,11-2.41,14.54,2.03,2.39,2.99,3.11,7.04,3.36,10.77.54,7.94-.83,16.59-4.73,23.6-2.13,3.83-4.73,7.53-8.12,10.33-8.93,7.38-21.57,6.45-31.52,1.76-6.55-3.09-12.33-7.71-17.33-12.91ZM437.28,170.16c-3.84-.08-6.85-2.5-8.7-5.73-1.63-2.84-2.72-5.95-3.84-9.02-1.81-4.97-3.43-10-4.97-15.06-4.76-15.62-8.81-31.44-12.05-47.45-1.2-5.94-4.26-14.69,1.25-19.42,2.22-1.91,5.2-2.48,7.95-3.21,4.89-1.3,10.4-2.65,14.47,1.3,3.71,3.6,5.12,9.03,6.76,13.77,4.69,13.55,8.12,27.5,11.23,41.49.63,2.82,1.25,5.65,1.86,8.48,1.08,5.06,2.14,10.13,2.89,15.26.56,3.82,1.36,8.25-.24,11.93-.47,1.08-1.22,1.99-2.01,2.85-1.93,2.11-4.82,2.37-7.41,3.18-2.34.73-4.7,1.71-7.19,1.64ZM495.45,122.71c6.63-3.97,6.33-14.23,5.4-20.85-.56-3.99-1.51-8.25-4.37-11.27-4.58-4.86-12.25-3.35-15.17,2.48-3.61,7.22-1.89,17.17,1.69,24.08,2.29,4.43,7.44,8.45,12.45,5.56ZM489.21,158.73c-15.72-2.68-27.5-17.93-33.37-31.75-4.35-10.24-6.28-21.68-5.03-32.76.93-8.33,3.76-16.84,9.14-23.38,6.03-7.33,14.49-12.29,23.97-13.36,10.88-1.23,21.27,2.86,29.19,10.24,14.69,13.7,17.96,36.03,13.87,54.93-2.9,13.39-10.64,29.11-24.13,34.52-4.28,1.72-9.08,2.29-13.64,1.55ZM556.05,156.56c-5.41-.99-10.54-3.12-14.05-7.53-4.2-5.26-6.16-12.63-5.67-19.29.23-3.11,1.16-7,4.16-8.59,1.46-.77,3.16-.84,4.77-.79,3.24.11,6.4.96,9.48,1.93.6.19,1.19.37,1.79.55,1.95.6,5.43,2.4,7.03.24.94-1.27.71-3.04-.05-4.33-.66-1.11-1.77-1.84-2.8-2.57-1.79-1.27-3.68-2.4-5.56-3.53-7.49-4.48-15.32-9.1-18.96-17.47-1.89-4.35-3.03-9.03-2.76-13.8.18-3.24.71-6.48,1.78-9.55,3.99-11.41,15.7-16.59,27.09-17,7.66-.27,15.73.96,22.22,5.27,3.54,2.35,7.02,6.13,7.87,10.41,1.03,5.21-.34,12.03-4.01,16-3.98,4.3-10.64,1.64-15.09-.36-2.55-1.15-5.17-2.25-7.97-2.57-1.45-.17-2.89-.3-4.01.83-1.48,1.49-1.76,4.54-.53,6.26.65.91,1.76,1.39,2.66,2,2.04,1.37,4.13,2.67,6.24,3.94,6.6,3.97,13,8.54,17.51,14.89,3.94,5.54,5.19,12.2,4.21,18.87-1.02,6.92-3.68,13.83-8.65,18.87-4.46,4.52-10.18,7.05-16.45,7.76-3.42.38-6.86.11-10.25-.45ZM637.42,131.95c7.58-1.48,10.79-11.24,12.16-17.78.83-3.94,1.37-8.28-.29-12.09-2.67-6.12-10.37-7.31-15.11-2.81-5.85,5.56-7.6,15.51-6.58,23.22.65,4.94,4.13,10.47,9.82,9.45ZM619.33,163.72c-13.88-7.86-19.8-26.19-20.62-41.18-.61-11.11,1.45-22.52,6.38-32.52,3.71-7.53,9.25-14.56,16.54-18.89,8.16-4.85,17.8-6.65,27.08-4.44,10.65,2.53,19.03,9.91,23.97,19.54,9.17,17.87,4.66,39.99-5.61,56.37-7.27,11.6-19.87,23.78-34.39,24.29-4.61.16-9.31-.92-13.35-3.17ZM703.94,159.68c1.64-13.05,6.99-26.08,15.84-35.91,10.96-12.18,28.64-19.5,44.65-13.43,2.67,1.01,5.21,2.38,7.54,4.04,3.4,2.42,6.3,5.5,8.68,8.92,3.35,4.82,5.63,10.62,6.15,16.49.38,4.25.3,8.86-2.13,12.54-2.12,3.21-5.59,4.81-9.24,5.65-3.62.83-7.45.87-10.85-.78-2.53-1.23-3.62-3.55-3.71-6.28-.14-4.29.14-9.5-3.02-12.88-4.34-4.64-12.08.2-15.65,3.5-.91.85-1.78,1.75-2.54,2.74-2.38,3.1-4.03,6.7-5.48,10.31-1.15,2.85-2.22,5.8-2.54,8.87-.26,2.48.03,5.55,1.68,7.55,3.8,4.62,10.42.97,14.55-1.15,1.25-.64,2.55-1.25,3.95-1.46,2.81-.43,5.23,1.25,7.42,2.77,4.08,2.83,8.85,7.02,7.67,12.57-.8,3.75-3.48,6.87-6.21,9.42-5.82,5.44-13.42,9.83-21.32,11.24-4.33.77-8.86,1.08-13.2.21-11.38-2.29-18.64-12.62-21.3-23.32-1.75-7.03-1.84-14.43-.95-21.59ZM820.97,193.82c4.83-.27,8.75-4.86,10.14-9.19.69-2.15.85-5.07-1.19-6.57-1.77-1.3-4.25-.38-5.96.57-3.8,2.1-8.93,6.97-7.82,11.82.5,2.21,2.64,3.5,4.83,3.37ZM753.92,221.8c-1.27-1.93-1.12-4.23-.39-6.33,1.22-3.5,3.62-6.48,5.79-9.43.81-1.1,1.63-2.19,2.47-3.27,9.26-11.88,19.96-22.66,31.91-31.84,7.26-5.58,15-10.8,23.67-13.93,2.98-1.08,6.12-1.86,9.31-1.9,5.96-.07,11.39,2.85,15.89,6.52,6.02,4.9,9.85,11.64,10.3,19.45.25,4.38-.99,8.62-2.19,12.79-4.23,14.66-12.43,27.8-21.47,39.96-5.28,7.09-10.69,14.19-17.26,20.15-2.36,2.14-4.93,4.14-8.21,4.43-4.76.43-8-3.2-11.31-6.01-3.22-2.73-6.38-5.75-6.28-10.31.11-4.95,4.84-8.79,7.91-12.14,3.18-3.47,6.27-7.02,9.21-10.69,1.56-1.94,3.27-3.85,4.32-6.14,1.17-2.55,1.5-7.07-2.27-7.42-.64-.06-1.29.02-1.91.16-3.52.83-6.09,3.59-8.43,6.17-1.96,2.16-3.85,4.37-5.71,6.61-2.65,3.18-5.28,6.36-8.14,9.35-1.65,1.72-3.43,3.56-5.71,4.42-2.46.92-5.43.67-7.8-.4-3.28-1.48-6.05-3.83-8.9-5.99-1.69-1.28-3.59-2.42-4.8-4.21ZM811.91,270.44c-1.18-3.12-.57-6.67,1.04-9.52,2.2-3.89,5.78-6.78,8.84-9.94,5.72-5.9,11.49-11.75,17.24-17.61,6.39-6.51,12.75-13.04,19.25-19.44,4.26-4.2,8.48-8.89,13.98-11.48,3.67-1.73,8.31-1.47,11.94.23,6.89,3.22,12.1,8.97,16.9,14.7,5.51,6.58,12.72,14.45,11.83,23.73-.47,4.83-4.41,8.12-8.32,10.42-1.52.89-3.1,1.71-4.77,2.28-1,.34-2.04.58-3.1.64-5.71.28-8.79-5.43-11.18-9.72-1.61-2.89-3.41-6.66-7.14-7.05-2.62-.27-5.35,1.79-6.6,3.95-1.76,3.05,1.35,5.77,3.21,7.83.5.55,1.01,1.1,1.52,1.65,2.29,2.44,5.48,5.14,3.68,8.82-1.13,2.31-3.49,3.8-5.42,5.38-1.1.9-2.21,1.79-3.37,2.59-1.07.75-2.24,1.49-3.55,1.73-3.56.65-5.92-3.21-7.89-5.51l-15.53,2.12c-3.26,3.17-6.52,6.35-9.92,9.36-1.92,1.7-3.91,3.59-6.41,4.39-4.92,1.58-8.84-1.32-12.22-4.57-1.54-1.48-3.09-3.02-3.99-5ZM943.6,266.79c-.43-1.96-.29-3.99-.03-5.96.24-1.81.68-3.21,2.41-4.08,2.14-1.08,4.66-.73,6.96-.52,3.89.35,7.76.88,11.62,1.45,2.69.4,5.38.8,8.03,1.44,2.02.49,4.11,1.21,5.22,3.1,1.34,2.28,1.18,5.34.4,7.78-.31.99-.78,2.01-1.71,2.55-2.67,1.57-6.03.96-8.96.77-5.71-.37-11.43-.75-17.14-1.15-2.44-.17-5.07-.66-6.12-3.17-.3-.71-.49-1.46-.67-2.21ZM850.01,316.45c-2.52-4.62-3.76-9.35-.26-13.87.84-1.09,1.77-2.12,2.78-3.06,2.76-2.57,5.84-4.76,8.8-7.09,5.32-4.18,10.66-8.32,16.02-12.45,6.6-5.08,13.21-10.13,19.87-15.13,3.97-2.98,7.88-6.06,12.06-8.75,2.22-1.43,4.4-3.22,7-3.88,3.6-.92,7.48.08,10.58,2,4.78,2.97,8.53,7.29,12,11.65,5.25,6.6,10.09,13.84,12.55,21.99,1.6,5.29,1.7,10.79-2.98,14.53-1.31,1.05-2.74,1.94-4.19,2.78-3.12,1.8-6.98,3.85-10.7,2.93-3.16-.78-5.15-3.28-6.91-5.84-1.55-2.24-3-4.56-4.47-6.85-1.45-2.26-2.9-4.52-4.46-6.7-.68-.95-1.42-2.13-2.74-2.1-2.06.04-5.27,1.74-5.89,3.84-.3,1.02.4,2.11.85,2.97,1.26,2.42,2.98,4.57,4.74,6.64,1.71,2.01,3.95,4.75,2.83,7.57-.49,1.23-1.65,2.12-2.64,2.93-2.45,2.01-5.19,3.66-8.08,4.96-1.25.56-2.67,1.24-4.08,1.04-3.45-.5-4.88-4.55-6.21-7.26-1.37-2.78-3.44-7.66-7.4-6.31-.83.28-1.6.75-2.31,1.25-.48.34-.92.72-1.28,1.18-2.61,3.29,1.72,6.98,3.8,9.19.54.58,1.1,1.15,1.65,1.71.75.77,1.51,1.54,2.27,2.31,3,3.04,6.93,6.54,5.26,11.28-1.5,4.25-5.93,6.93-9.56,9.19-4.95,3.1-11.7,6.8-17.6,4.14-6.42-2.89-9.31-9.56-13.11-15.02-2.73-3.92-5.37-7.9-8.16-11.77Z"/>
      <path class="cls-1" d="M83.69,740.98c-.59-2.05-.86-4.1-.15-6.16,1.19-3.49,4.17-5.91,7.17-7.85,4.64-3.02,9.67-5.37,14.68-7.72,10.33-4.84,20.9-9.17,31.46-13.48,6.8-2.78,13.5-5.83,20.56-7.9,5.15-1.51,11.78-3.26,16.66-.07,2.58,1.69,3.42,4.86,4.66,7.5,1.28,2.71,3,5.45,2.53,8.58-.26,1.7-1.03,3.18-2.17,4.45-3.19,3.57-8.07,5.08-12.2,7.24-1.04.54-2.07,1.09-3.11,1.63-3.06,1.61-8.58,3.31-9.29,7.26-.38,2.12,1.14,4.54,2.71,5.85,3.72,3.1,9.35-1.27,12.67-3.05,1.06-.57,2.11-1.14,3.16-1.71,3.95-2.11,7.94-5.19,12.56-5.53,3.31-.24,5.77,1.47,7.98,3.75,1.86,1.92,3.27,4.22,4.49,6.59,1.65,3.2,3.33,6.77,1.43,10.26-.77,1.42-1.88,2.62-2.98,3.79-3.34,3.55-7.36,6.35-11.33,9.14-5.31,3.72-10.71,7.3-16.09,10.92-9.42,6.33-18.89,12.58-28.57,18.5-3.1,1.9-6.22,3.75-9.41,5.5-1.84,1-3.67,2.12-5.71,2.64-3.2.82-6.98.17-9.48-2.07-1.99-1.77-3.36-4.11-4.81-6.31-2.2-3.32-4.46-6.69-5.77-10.49-.74-2.15-1.33-4.46-1-6.75.92-6.4,8.58-9.13,13.72-11.32,1.33-.57,2.68-1.12,4.02-1.65,3.86-1.52,7.69-3.11,11.34-5.09,1.61-.87,3.45-1.68,4.04-3.58.49-1.59-.41-3.05-1.14-4.4-.82-1.53-1.78-2.64-3.5-3.16-2.24-.68-4.19.75-6.09,1.73-3.27,1.69-6.47,3.51-9.61,5.44-4.41,2.7-9.12,5.29-14.29,6.13-2.29.37-4.82.41-6.9-.73-4.45-2.43-7.37-7.04-9.47-11.5-.99-2.09-2.29-4.09-2.76-6.38ZM131.55,825c-2.86-5.01-5.57-11.21-1.57-16.4.87-1.13,1.85-2.17,2.93-3.08,2.89-2.43,6.14-4.37,9.25-6.49,5.6-3.8,11.23-7.54,16.87-11.27,6.95-4.59,13.91-9.15,20.91-13.66,4.18-2.69,8.3-5.47,12.63-7.9,2.3-1.29,4.57-2.9,7.17-3.52,3.32-.79,6.89-.11,9.83,1.57,3.99,2.28,7.15,5.7,10.17,9.1,4.71,5.31,9.28,10.98,11.95,17.63,1.94,4.83,2.01,9.54-1.64,13.6-1.12,1.25-2.36,2.38-3.63,3.47-2.7,2.31-6.07,5.13-9.85,4.97-3.12-.13-5.4-2.14-7.41-4.33-1.74-1.89-3.36-3.9-4.95-5.92-1.58-2-3.13-4.03-4.75-6-.72-.87-1.47-1.91-2.74-1.78-2.04.2-5.14,2.03-5.69,4.14-.26,1.01.47,2.04.96,2.86,1.39,2.31,3.26,4.29,5.2,6.16,1.88,1.81,4.37,4.2,3.62,7.1-.33,1.28-1.35,2.31-2.22,3.26-2.14,2.33-4.61,4.37-7.31,6.03-1.17.73-2.51,1.59-3.94,1.53-3.68-.15-5.74-4.36-7.43-7.07-1.68-2.7-4.21-7.83-8.21-6.4-.85.3-1.62.81-2.33,1.36-.43.33-.83.72-1.15,1.16-2.65,3.68,2.67,7.7,5.03,9.87.66.61,1.33,1.2,2.01,1.79.91.79,1.83,1.57,2.75,2.34,3.59,3.01,8.32,6.19,7.81,11.52-.44,4.59-4.23,8.17-7.39,11.16-4.63,4.38-10.79,8.83-17.43,6.22-8.26-3.24-13.16-11.31-18.41-17.97-3.86-4.89-7.47-9.97-11.06-15.06ZM192.23,851.37c6.47-11.55,17.19-20.77,29.17-26.26,15.1-6.92,37.47-9.64,49.18,4.9,2.18,2.7,3.78,5.82,4.95,9.08,1.8,5.06,2.5,10.68,1.93,16.03-.45,4.18-1.27,8.56-4.04,11.88-2.45,2.93-5.96,4.22-9.67,4.62-3.66.39-7.46-.16-10.49-2.37-2.26-1.65-2.84-4.13-2.34-6.79.78-4.1,2.3-9.04.21-12.99-2.4-4.54-9.19-2.93-13.01-1.56-.89.32-1.76.68-2.61,1.1-1.12.54-2.21,1.15-3.23,1.87-3.2,2.25-5.86,5.17-8.31,8.19-1.94,2.39-3.83,4.93-4.96,7.82-.96,2.47-1.33,5.63-.14,8.08,2.82,5.79,10.25,4.4,15.33,3.26,1.48-.33,3.02-.62,4.54-.46,2.86.31,4.95,2.46,6.91,4.36,3.69,3.57,8.33,8.52,6.67,14.13-1.09,3.71-4.1,6.55-7.18,8.71-7,4.92-16,7.55-24.55,6.67-5.32-.54-10.63-1.9-15.36-4.43-12.6-6.75-19.83-21.05-19.22-35.15.32-7.29,2.67-14.35,6.2-20.69ZM242.4,938.58c-1.5-1.5-2.72-3.17-3.1-5.3-.66-3.64.77-7.2,2.44-10.36,2.59-4.89,5.84-9.4,9.08-13.88,6.68-9.25,13.82-18.16,20.96-27.06,4.59-5.73,8.97-11.66,14.15-16.89,3.79-3.82,8.75-8.55,14.58-8.11,3.08.23,5.36,2.6,7.73,4.31,2.44,1.76,5.25,3.33,6.38,6.29.62,1.61.67,3.29.29,4.97-1.06,4.68-4.59,8.35-7.16,12.24-.64.98-1.29,1.96-1.93,2.93-1.9,2.89-5.9,7.05-4.61,10.86.69,2.03,3.19,3.41,5.18,3.79,4.76.9,7.57-5.63,9.62-8.8.65-1.01,1.29-2.02,1.94-3.02,2.44-3.76,4.44-8.4,8.33-10.91,2.79-1.8,5.78-1.49,8.81-.57,2.56.78,4.9,2.11,7.12,3.59,2.99,2,6.19,4.29,6.2,8.27,0,1.61-.39,3.2-.79,4.75-1.24,4.79-3.42,9.26-5.58,13.68-2.81,5.76-5.77,11.45-8.69,17.15-5.17,10.1-10.44,20.16-16.04,30.02-1.8,3.16-3.63,6.3-5.58,9.37-1.12,1.77-2.19,3.63-3.73,5.07-2.4,2.25-5.99,3.54-9.25,2.81-2.6-.59-4.94-1.98-7.28-3.2-3.53-1.84-7.14-3.69-10.11-6.38-1.69-1.53-3.32-3.27-4.15-5.43-2.33-6.05,3.04-12.16,6.48-16.57.89-1.14,1.8-2.27,2.73-3.38,2.65-3.19,5.23-6.44,7.47-9.94.99-1.54,2.2-3.15,1.78-5.09-.35-1.62-1.83-2.46-3.11-3.29-1.46-.94-2.83-1.44-4.58-1.07-2.29.49-3.3,2.69-4.49,4.46-2.04,3.06-3.96,6.21-5.77,9.41-2.55,4.5-5.42,9.05-9.54,12.29-1.82,1.43-4.02,2.69-6.4,2.7-5.07.02-9.86-2.59-13.86-5.47-1.88-1.35-4-2.46-5.51-4.25ZM368.75,969.02c8.12-.07,12.57-9.32,14.73-15.93,1.25-3.82,2.26-8.03,1.17-12.02-1.71-6.29-8.66-8.46-13.96-4.95-6.69,4.43-10.67,13.65-11.03,21.47-.25,5.5,3.03,11.4,9.09,11.43ZM343.5,996.4c-14.51-10.91-18.53-30.64-14.03-47.55,2.87-10.78,8.93-20.68,16.69-28.64,5.65-5.8,12.51-11.01,20.21-13.74,7.66-2.71,16.05-3.36,23.67-.17,8.83,3.71,14.47,11.64,17.77,20.36,6.85,18.07,3.79,40.16-6.73,56.22-8.78,13.4-24.62,22.93-40.98,20.39-5.95-.92-11.77-3.31-16.6-6.89ZM444.65,997.25c-1.56-13.15,1.68-26.9,8.12-38.39,1.26-2.25,2.66-4.42,4.18-6.5,8.52-11.64,22.76-22.63,38.03-18.62,3.37.89,6.53,2.47,9.41,4.43,4.43,3.01,8.3,7.13,10.97,11.77,2.09,3.63,4.02,7.66,3.75,11.96-.24,3.8-2.3,6.93-5.04,9.45-2.7,2.48-6.07,4.29-9.81,4.3-2.79,0-4.74-1.65-5.9-4.09-1.79-3.74-3.44-8.64-7.44-10.59-4.61-2.25-9.14,3.08-11.39,6.43-.53.78-1.01,1.59-1.45,2.42-.58,1.1-1.1,2.23-1.5,3.41-1.24,3.67-1.66,7.56-1.87,11.41-.17,3.11-.21,6.31.59,9.34.68,2.56,2.24,5.33,4.66,6.6,5.7,3.01,10.85-2.51,14.25-6.44.94-1.09,1.95-2.18,3.19-2.94,2.52-1.56,5.57-1.07,8.35-.69,5.08.7,11.72,1.95,13.71,7.43,1.32,3.63.57,7.71-.62,11.27-2.72,8.1-8.4,15.56-15.81,19.92-4.61,2.71-9.7,4.75-15.01,5.51-13.66,1.95-27.62-4.79-35.5-15.93-4.47-6.31-6.96-13.83-7.89-21.47ZM571.33,1001.11c7.27-3.61,7.26-13.87,6.32-20.75-.54-3.98-1.47-8.21-4.19-11.33-4.28-4.91-11.47-3.84-14.71,1.62-4.1,6.9-3.67,16.93-.57,24.13,2.17,5.05,7.69,8.94,13.15,6.33ZM560.54,1036.75c-17.81-3.49-30.05-19.51-33.34-36.69-2.1-10.95-.95-22.5,2.55-33.05,2.55-7.69,6.48-15.36,12.23-21.17s12.97-10.02,21.23-10.46c9.56-.51,18.08,4.18,24.84,10.59,14.02,13.3,20.91,34.49,18.44,53.53-2.07,15.89-12.16,31.37-28.01,36.21-5.75,1.76-12.02,2.15-17.94,1.03ZM632.05,1029.01c-2.01-.11-4.05-.43-5.85-1.39-5.26-2.82-6.9-9.57-8.56-14.81-2.82-8.91-3.92-18.25-5.44-27.43-1.81-10.92-3.82-21.83-4.48-32.89-.24-4.09-.52-8.2-.21-12.29.15-2.04.45-4.38,1.91-5.94.86-.92,2.03-1.46,3.17-1.97,2.31-1.04,4.78-1.7,7.28-2.08,1.99-.31,3.99-.5,5.88.36,6.94,3.13,11.72,9.85,16.37,15.6,2.2,2.73,4.4,5.47,6.92,7.93.76.74,1.97,2.14,3.18,1.72,1.36-.48-.06-2.84-.35-3.64-1.21-3.37-3.16-6.42-4.99-9.47-2.76-4.61-8.15-12.16-4-17.44,1.26-1.6,3.06-2.64,4.84-3.57,3.73-1.96,7.89-3.68,12.18-3.51,1.53.06,3.07.31,4.48.95,4.24,1.93,6.7,6.61,8.79,10.52,2.36,4.42,4.4,8.99,6.41,13.58,1.17,2.68,2.33,5.36,3.47,8.05,3.81,8.94,7.2,18.05,10.43,27.21.76,2.15,1.51,4.29,2.25,6.45.58,1.68,1.14,3.36,1.7,5.05,1.83,5.56,5.58,13.45,1.21,18.76-1.47,1.78-3.56,2.94-5.58,4-4.31,2.27-9.04,4.08-13.95,4.28-2.17.09-4.42-.04-6.4-1.03-2.67-1.35-4.46-3.91-5.99-6.38-2.63-4.25-4.7-8.8-6.77-13.33-3.79-8.29-7.66-17.04-14.45-23.35-1.25-1.16-3.4-3.07-5.28-2.43-1.24.42-1.05,2.37-.93,3.37.4,3.27,1.93,6.24,3.33,9.17,2,4.17,4.62,7.99,7.16,11.84,3.29,4.98,6.87,9.97,8.43,15.82,1.39,5.22-.52,10.17-5.03,13.14-3.18,2.09-7.03,2.69-10.67,3.57-3.42.82-6.9,1.89-10.45,1.63ZM757.37,915.93c1.4-4.61-1.75-9.8-5.2-12.64-1.61-1.32-4.18-2.72-6.19-1.42-1.75,1.13-1.63,3.77-1.37,5.56.62,4.23,3.08,10.9,7.94,11.73,2.22.38,4.2-1.16,4.83-3.24ZM749.55,990.68c-7.04.95-9.69-7.13-11.7-12.32-.49-1.28-.97-2.56-1.43-3.84-5.02-14.2-8.27-28.98-10.53-43.86-1.35-8.95-2.52-18.05-1.98-27.12.16-2.66.49-5.33,1.28-7.88,1.61-5.19,5.47-8.95,10.11-11.56,5.92-3.34,12.47-3.76,18.92-1.73,4.03,1.27,7.53,3.71,11.02,6.02,12.67,8.36,23.63,19,33.76,30.25,5.91,6.56,12.01,13.16,16.4,20.88,1.66,2.93,2.87,5.98,2.01,9.38-1.43,5.61-7.15,8.52-11.6,11.45-4.27,2.81-9.22,5.89-14.56,4.58-5.06-1.24-7.01-7.22-9.11-11.33s-4.43-8.31-6.89-12.32c-1.3-2.12-2.52-4.39-4.35-6.12-2.21-2.09-6.35-3.61-8.2-.26-.32.58-.52,1.23-.65,1.88-.68,3.6.79,7.06,2.25,10.27,1.21,2.65,2.5,5.27,3.82,7.86,1.88,3.69,3.77,7.37,5.3,11.22.9,2.26,1.81,4.73,1.39,7.21-.52,3.1-2.77,5.93-5.22,7.79-3.73,2.84-8.06,4.73-12.3,6.67-2.5,1.14-4.99,2.51-7.74,2.9ZM879.66,903.67c-3.18,2.13-6.77,3.12-10.38,1.38-2.55-1.23-4.37-3.62-6.16-5.73-4.03-4.73-7.6-9.86-10.55-15.34-2.7-5.01-5.72-9.86-9.24-14.34-1.39-1.77-2.87-4.04-5.07-4.86-.85-.31-1.71-.11-2.34.54-.85.89-.44,2.29-.12,3.32,1.24,4.06,4.96,6.85,7.78,9.8,2.59,2.71,6.24,5.27,7.23,9.09.81,3.11-.79,5.44-2.92,7.54-2.13,2.1-4.93,3.52-7.96,2.67-1.59-.44-2.64-1.89-3.66-3.09-1.89-2.21-3.7-4.49-5.54-6.74-.67-.82-1.34-1.64-2.02-2.45-.5-.6-1-1.2-1.5-1.79-.39-.46-.78-.92-1.18-1.38-1.26-1.47-4.02-5.66-6.31-3.56-2.05,1.88.27,5.09,1.42,6.79,4.19,6.16,10.44,10.5,16.26,14.97,1.3,1,2.59,2.01,3.86,3.05,5.24,4.26,12.66,10.04,11.07,17.74-1.05,5.12-4.91,8.91-8.62,12.3-2.73,2.49-5.65,4.76-8.79,6.7-1.57.97-3.27,2.07-5.15,2.28-1.38.15-2.66-.61-3.72-1.4-2.35-1.75-4.23-4.06-6.05-6.34-8.05-10.1-15.3-20.81-22.41-31.58-5.09-7.71-10.18-15.43-14.97-23.34-2.58-4.25-5.6-8.53-6.75-13.45-1.4-5.99,2.1-10.08,6.55-13.51,1.84-1.42,3.75-2.84,6.11-3.19,6.54-.96,12.71,3.42,17.91,6.77,1.89,1.22,3.77,2.45,5.76,3.49.98.51,2.16,1.13,3.28.77.86-.27,1.24-1.09,1.51-1.88.48-1.41-.14-2.95-.6-4.28-.78-2.28-1.68-4.52-2.57-6.76-2.08-5.21-5.49-11.74-3.31-17.44,1.39-3.62,4.51-6.3,7.44-8.68,1.3-1.06,2.66-2.18,4.35-2.52,3.31-.66,6.77,1.11,9.57,2.66,6.78,3.76,12.78,8.75,18.77,13.63,7.78,6.34,15.06,13.26,22.23,20.28,6.09,5.96,12.22,11.93,17.6,18.56,2.58,3.18,4.93,7.17,4.17,11.42-.24,1.34-.81,2.6-1.43,3.8-1.19,2.3-3.05,4.17-4.79,6.06-2.68,2.91-5.44,5.81-8.75,8.02ZM908.37,818.88c2.09-7.83-5.61-14.62-11.4-18.46-3.36-2.23-7.15-4.3-11.28-4.33-6.54-.05-10.46,6.1-8.53,12.15,2.43,7.65,10.31,13.94,17.73,16.38,5.23,1.72,11.83.09,13.48-5.74ZM927.97,850.57c-14.35,11.09-34.49,9.65-49.56.82-9.63-5.63-17.55-14.12-23.16-23.71-4.09-6.99-7.31-15.01-7.83-23.16-.52-8.15,1.1-16.43,6.24-22.95,5.95-7.53,15.11-10.91,24.43-11.71,19.31-1.66,39.68,7.03,52.38,21.55,10.56,12.08,15.4,29.92,8.59,45.01-2.47,5.49-6.35,10.44-11.09,14.15ZM932.58,732.97c-.99-3.18-3.61-5.47-6.54-6.88-2.77-1.34-6.55-2.6-9.47-.99-1.76.97-2.39,2.59-2.1,4.54.91,6.16,9.56,9.71,15.09,8.58,2.55-.52,3.7-2.82,3.02-5.25ZM969.1,792.77c-2.54,2.73-5.9,4.74-9.74,4.45-3.98-.3-7.54-2.28-10.95-4.2-3.91-2.22-7.75-4.56-11.59-6.91-9.13-5.58-18.08-11.44-26.93-17.46-7.65-5.2-15.45-10.29-22.18-16.69-2.5-2.38-5.76-5.61-5.64-9.35.08-2.46,1.34-4.6,2.47-6.7,1.2-2.24,2.42-4.54,4.55-6.04,1.38-.97,3.02-1.74,4.72-1.91.58-.06,1.59.31,2.08.16.19-.06.16-.51.17-.66.04-.69-.03-1.38-.09-2.06-.49-5.51.97-10.99,4.14-15.52,3.25-4.64,7.92-8,13.51-9.13,2.6-.53,5.28-.63,7.93-.59,11.71.17,24.75,4.89,32.73,13.68,2.91,3.21,5.2,7.08,5.95,11.39l.66,3.64,3.94-1.41c6.14-2.18,14.07-3.91,19.82.17,4.86,3.45,7.5,9.43,8.1,15.23.27,2.59.11,5.34-1.06,7.72-3.76,7.65-13.54,8.77-21.08,9.24-1.71.11-3.43.16-5.14.18l-4.14.1,6.03,3.38c4.23,2.36,8.39,5.08,9.31,10.2.88,4.88-1.51,9.3-3.87,13.38-1.14,1.96-2.13,4.07-3.72,5.71Z"/>
    </g>
  </g>
</svg>