<?xml version="1.0" encoding="UTF-8"?>
<svg xmlns="http://www.w3.org/2000/svg" xmlns:xlink="http://www.w3.org/1999/xlink" viewBox="0 0 312.64 329.1">
  <defs>
    <style>
      .cls-1 {
        fill: #ddd;
        mix-blend-mode: hard-light;
      }

      .cls-2 {
        letter-spacing: -.02em;
      }

      .cls-3 {
        fill: url(#Degradado_sin_nombre_33-8);
      }

      .cls-4 {
        fill: url(#Nueva_muestra_de_degradado_3);
      }

      .cls-5 {
        letter-spacing: 0em;
      }

      .cls-6 {
        fill: url(#Degradado_sin_nombre_11);
      }

      .cls-7 {
        fill: #4089e2;
        font-family: PlayfairDisplaySC-Bold, 'Playfair Display SC';
        font-size: 55px;
        font-weight: 700;
      }

      .cls-8 {
        fill: url(#Degradado_sin_nombre_9-2);
      }

      .cls-9, .cls-10, .cls-11 {
        fill: #fff;
      }

      .cls-12 {
        letter-spacing: -.02em;
      }

      .cls-13 {
        fill: url(#Degradado_sin_nombre_33-10);
      }

      .cls-14 {
        letter-spacing: 0em;
      }

      .cls-15 {
        fill: url(#Nueva_muestra_de_degradado_5);
      }

      .cls-16 {
        letter-spacing: -.02em;
      }

      .cls-17 {
        fill: url(#Degradado_sin_nombre_11-2);
      }

      .cls-18 {
        isolation: isolate;
      }

      .cls-19 {
        letter-spacing: 0em;
      }

      .cls-20 {
        fill: url(#Nueva_muestra_de_degradado_4);
      }

      .cls-10 {
        mix-blend-mode: screen;
      }

      .cls-21 {
        letter-spacing: 0em;
      }

      .cls-22 {
        letter-spacing: 0em;
      }

      .cls-23 {
        fill: url(#Degradado_sin_nombre_33-7);
      }

      .cls-24 {
        fill: url(#Degradado_sin_nombre_9);
      }

      .cls-25 {
        fill: url(#Nueva_muestra_de_degradado_2);
      }

      .cls-26 {
        letter-spacing: 0em;
      }

      .cls-11 {
        font-family: Montserrat-SemiBold, Montserrat;
        font-size: 21px;
        font-weight: 600;
      }

      .cls-27 {
        fill: url(#Degradado_sin_nombre_33-2);
      }

      .cls-28 {
        fill: url(#Degradado_sin_nombre_33-6);
      }

      .cls-29 {
        letter-spacing: -.03em;
      }

      .cls-30 {
        letter-spacing: .02em;
      }

      .cls-31 {
        letter-spacing: 0em;
      }

      .cls-32 {
        fill: url(#Degradado_sin_nombre_33-4);
      }

      .cls-33 {
        letter-spacing: -.02em;
      }

      .cls-34 {
        letter-spacing: -.01em;
      }

      .cls-35 {
        letter-spacing: 0em;
      }

      .cls-36 {
        fill: url(#Degradado_sin_nombre_33-3);
      }

      .cls-37 {
        fill: url(#Degradado_sin_nombre_33-5);
      }

      .cls-38 {
        fill: url(#Degradado_sin_nombre_33);
      }

      .cls-39 {
        fill: url(#Degradado_sin_nombre_33-9);
      }

      .cls-40 {
        letter-spacing: -.01em;
      }
    </style>
    <linearGradient id="Nueva_muestra_de_degradado_2" data-name="Nueva muestra de degradado 2" x1="108.82" y1="190.23" x2="108.82" y2="130.61" gradientUnits="userSpaceOnUse">
      <stop offset="0" stop-color="#213364"/>
      <stop offset="1" stop-color="#2e60ab"/>
    </linearGradient>
    <linearGradient id="Nueva_muestra_de_degradado_3" data-name="Nueva muestra de degradado 3" x1="41.22" y1="189.05" x2="41.22" y2="135.14" gradientUnits="userSpaceOnUse">
      <stop offset="0" stop-color="#6f1f15"/>
      <stop offset="1" stop-color="#cc1517"/>
    </linearGradient>
    <linearGradient id="Nueva_muestra_de_degradado_5" data-name="Nueva muestra de degradado 5" x1="271.42" y1="190" x2="271.42" y2="136.05" gradientUnits="userSpaceOnUse">
      <stop offset="0" stop-color="#551949"/>
      <stop offset="1" stop-color="#a01b78"/>
    </linearGradient>
    <linearGradient id="Nueva_muestra_de_degradado_4" data-name="Nueva muestra de degradado 4" x1="203.92" y1="189.52" x2="203.92" y2="127.08" gradientUnits="userSpaceOnUse">
      <stop offset="0" stop-color="#c97914"/>
      <stop offset="1" stop-color="#f5b900"/>
    </linearGradient>
    <linearGradient id="Degradado_sin_nombre_33" data-name="Degradado sin nombre 33" x1="17.27" y1="219.25" x2="295.37" y2="219.25" gradientUnits="userSpaceOnUse">
      <stop offset="0" stop-color="#ffd679"/>
      <stop offset="0" stop-color="#eecf92"/>
      <stop offset=".23" stop-color="#ffe78d"/>
      <stop offset=".41" stop-color="#d69c47"/>
      <stop offset=".59" stop-color="#9d660e"/>
      <stop offset=".77" stop-color="#ae8833"/>
      <stop offset="1" stop-color="#c79d3f"/>
    </linearGradient>
    <linearGradient id="Degradado_sin_nombre_9" data-name="Degradado sin nombre 9" x1="110.91" y1="43.16" x2="157.14" y2="11.4" gradientUnits="userSpaceOnUse">
      <stop offset="0" stop-color="#ffd679"/>
      <stop offset="0" stop-color="#eecf92"/>
      <stop offset=".23" stop-color="#ffe78d"/>
      <stop offset=".41" stop-color="#d69c47"/>
      <stop offset=".72" stop-color="#fbe18e"/>
      <stop offset="1" stop-color="#9d660e"/>
    </linearGradient>
    <linearGradient id="Degradado_sin_nombre_9-2" data-name="Degradado sin nombre 9" x1="112.08" y1="55.81" x2="170.31" y2="14.16" xlink:href="#Degradado_sin_nombre_9"/>
    <linearGradient id="Degradado_sin_nombre_11" data-name="Degradado sin nombre 11" x1="216.87" y1="39.77" x2="123.93" y2="160.94" gradientUnits="userSpaceOnUse">
      <stop offset="0" stop-color="#ffd679"/>
      <stop offset="0" stop-color="#eecf92"/>
      <stop offset=".22" stop-color="#ffe78d"/>
      <stop offset=".41" stop-color="#d69c47"/>
      <stop offset=".53" stop-color="#9d660e"/>
      <stop offset=".67" stop-color="#f6d77e"/>
      <stop offset=".84" stop-color="#ae8833"/>
    </linearGradient>
    <linearGradient id="Degradado_sin_nombre_11-2" data-name="Degradado sin nombre 11" x1="221.73" y1="64.07" x2="125.73" y2="170.3" xlink:href="#Degradado_sin_nombre_11"/>
    <linearGradient id="Degradado_sin_nombre_33-2" data-name="Degradado sin nombre 33" x1="-44.35" y1="371.56" x2="250.77" y2="236.17" xlink:href="#Degradado_sin_nombre_33"/>
    <linearGradient id="Degradado_sin_nombre_33-3" data-name="Degradado sin nombre 33" x1="-44.35" y1="371.56" x2="250.77" y2="236.17" xlink:href="#Degradado_sin_nombre_33"/>
    <linearGradient id="Degradado_sin_nombre_33-4" data-name="Degradado sin nombre 33" x1="-44.35" y1="371.56" x2="250.77" y2="236.17" xlink:href="#Degradado_sin_nombre_33"/>
    <linearGradient id="Degradado_sin_nombre_33-5" data-name="Degradado sin nombre 33" x1="-44.35" y1="371.56" x2="250.77" y2="236.17" xlink:href="#Degradado_sin_nombre_33"/>
    <linearGradient id="Degradado_sin_nombre_33-6" data-name="Degradado sin nombre 33" x1="-44.35" y1="371.56" x2="250.77" y2="236.17" xlink:href="#Degradado_sin_nombre_33"/>
    <linearGradient id="Degradado_sin_nombre_33-7" data-name="Degradado sin nombre 33" x1="-44.35" y1="371.56" x2="250.77" y2="236.17" xlink:href="#Degradado_sin_nombre_33"/>
    <linearGradient id="Degradado_sin_nombre_33-8" data-name="Degradado sin nombre 33" x1="-44.35" y1="371.56" x2="250.77" y2="236.17" xlink:href="#Degradado_sin_nombre_33"/>
    <linearGradient id="Degradado_sin_nombre_33-9" data-name="Degradado sin nombre 33" x1="-44.35" y1="371.56" x2="250.77" y2="236.17" xlink:href="#Degradado_sin_nombre_33"/>
    <linearGradient id="Degradado_sin_nombre_33-10" data-name="Degradado sin nombre 33" x1="-44.35" y1="371.56" x2="250.77" y2="236.17" xlink:href="#Degradado_sin_nombre_33"/>
  </defs>
  <g class="cls-18">
    <g id="Capa_2" data-name="Capa 2">
      <g id="Capa_2-2" data-name="Capa 2">
        <g>
          <g>
            <g>
              <g>
                <path class="cls-25" d="M86.32,70.41h55v119.99h-65v-109.99c0-5.52,4.48-10,10-10Z"/>
                <path class="cls-4" d="M21.22,80.41h50v109.99H21.22c-5.52,0-10-4.48-10-10v-89.99c0-5.52,4.48-10,10-10Z"/>
                <path class="cls-15" d="M241.42,80.41h50c5.52,0,10,4.48,10,10v89.99c0,5.52-4.48,10-10,10h-50v-109.99h0Z"/>
                <path class="cls-20" d="M171.42,70.4h55c5.52,0,10,4.48,10,10v110h-65v-120h0Z"/>
              </g>
              <path class="cls-38" d="M295.37,238.09c-43.75-14.38-90.49-22.16-139.05-22.16s-95.3,7.78-139.05,22.16c40.8-23.95,88.32-37.69,139.05-37.69s98.25,13.74,139.05,37.69Z"/>
              <g>
                <polygon class="cls-24" points="108.51 36.78 108.51 44.14 137.93 44.14 152.64 29.43 152.64 0 145.29 0 145.29 29.43 137.93 36.78 108.51 36.78"/>
                <polygon class="cls-8" points="108.51 51.49 108.51 58.85 137.93 58.85 167.36 29.43 167.36 0 160 0 160 29.43 137.93 51.49 108.51 51.49"/>
                <polygon class="cls-6" points="145.29 66.21 145.29 190.4 152.64 190.4 152.64 66.21 174.71 44.14 204.14 44.14 204.14 36.78 174.71 36.78 145.29 66.21"/>
                <polygon class="cls-17" points="160 66.21 160 190.4 167.36 190.4 167.36 66.21 174.71 58.85 204.14 58.85 204.14 51.49 174.71 51.49 160 66.21"/>
              </g>
            </g>
            <g>
              <g>
                <text class="cls-7" transform="translate(8.67 297.88)"><tspan x="0" y="0">J</tspan><tspan class="cls-5" x="20.03" y="0">E</tspan><tspan class="cls-29" x="54.35" y="0">R</tspan><tspan class="cls-12" x="90.65" y="0">U</tspan><tspan class="cls-40" x="127.29" y="0">S</tspan><tspan class="cls-30" x="158.59" y="0">A</tspan><tspan class="cls-22" x="196.26" y="0">L</tspan><tspan class="cls-34" x="229.99" y="0">É</tspan><tspan x="264.28" y="0">N</tspan></text>
                <g>
                  <path class="cls-27" d="M27.23,260.04c-3.52.16-4.14.73-4.14,4.73v23.01c0,4.03-.08,8.49-.94,11.47-1.48,5.08-6.47,8.97-13.91,8.97-1.96,0-4.14-.32-5.53-1.02-1.93-.97-2.71-2.31-2.71-4,0-2.23,1.77-3.71,4.4-3.71s4.16,1.26,4.16,3.63c0,1.61-.94,3.01-2.82,3.6.48.32,1.42.4,1.99.4,2.77,0,4.73-1.66,5.56-3.95.99-2.85,1.05-5.67,1.05-13.27v-25.14c0-4-.64-4.57-4.11-4.73v-1.1c1.8.11,4.97.16,8.35.16,3.2,0,6.61-.05,8.65-.16v1.1Z"/>
                  <path class="cls-36" d="M60.85,284.9c-.11,1.18-.16,2.82-.16,4.62,0,1.64.05,5.05.38,8.35-3.73-.16-8.89-.16-12.59-.16s-11.92,0-17.91.16v-1.1c3.49-.16,4.11-.73,4.11-4.73v-27.29c0-4-.64-4.57-4.11-4.73v-1.1c5.99.16,14.23.16,17.91.16,3.36,0,8.11,0,11.49-.16-.27,3.25-.38,6.55-.38,8.14,0,1.45.05,2.85.16,3.73h-1.26c-1.1-8.06-3.97-10.61-9.02-10.61h-2.26c-3.2,0-3.79.48-3.79,3.92v13.62h1.77c4.4,0,5.96-4.27,6.55-7.25h1.26c-.16,2.34-.19,3.92-.19,5.18,0,1.02.03,1.83.03,2.63,0,1.8.05,3.63.32,7.82h-1.26c-.56-3.87-2.31-7.28-6.71-7.28h-1.77v13.86c0,3.44.59,3.92,3.79,3.92h2.71c4.91,0,8.3-2.85,9.67-11.71h1.26Z"/>
                  <path class="cls-32" d="M102.15,295.46c-1.96,2.26-4.08,3.2-7.3,3.2-3.95,0-6.61-1.37-7.44-5.96l-.97-5.48c-.81-4.59-1.69-7.82-5.13-7.82h-3.57v12.65c0,4,.64,4.57,4.14,4.73v1.1c-1.99-.11-5.26-.16-8.33-.16-3.52,0-6.82.05-8.67.16v-1.1c3.49-.16,4.11-.73,4.11-4.73v-27.29c0-4-.64-4.57-4.11-4.73v-1.1c1.85.11,5.26.16,8.35.16,3.6,0,7.25-.11,8.65-.11,10.23,0,15.23,3.52,15.23,9.56,0,4.46-2.71,9.53-12.35,10.63h.03c6.66.56,9.59,2.69,10.55,7.25l1.24,5.67c.62,2.93,1.24,3.95,2.6,3.95.94,0,1.53-.43,2.23-1.26l.75.67ZM80.1,278.3c6.5,0,7.87-4.08,7.87-9.13,0-5.77-1.83-9.13-6.82-9.13-2.82,0-3.41.94-3.41,4.73v13.54h2.36Z"/>
                  <path class="cls-37" d="M136.2,260.04c-3.49.48-4.11,1.93-4.11,7.25v14.58c0,4.78-.54,8.78-2.26,11.66-1.88,3.14-5.53,5.13-11.12,5.13-3.44,0-7.2-.62-9.91-2.79-3.57-2.85-4.32-6.77-4.32-13.83v-17.27c0-4-.62-4.57-4.14-4.73v-1.1c1.88.11,5.21.16,8.62.16s6.66-.05,8.7-.16v1.1c-3.73.16-4.46.73-4.46,4.73v20.76c0,7.36,1.75,11.2,7.6,11.2,7.76,0,10.02-5.88,10.02-14.23v-14.53c0-6.04-.72-7.44-5.34-7.92v-1.1c1.42.11,3.97.16,5.93.16,1.75,0,3.65-.05,4.78-.16v1.1Z"/>
                  <path class="cls-28" d="M140.45,283.4c.46,7.33,2.98,13.8,10.02,13.8,3.84,0,6.82-2.04,6.82-6.15,0-4.51-3.41-7.12-8.24-10.23-5.24-3.33-9.8-6.42-9.8-12.54,0-6.93,5.88-10.04,12.33-10.04,4.3,0,6.31,1.1,8.03,2.12.89.54,1.37.78,1.85.78.72,0,.99-.83,1.24-2.42h1.26c-.19,2.17-.29,4.81-.29,12.54h-1.26c-.38-5.72-3.46-11.71-9.35-11.71-3.52,0-6.04,2.12-6.04,5.61,0,4.43,3.36,6.23,9.51,10.37,5.21,3.46,9.29,6.45,9.29,12.41,0,7.25-6.26,10.71-13.64,10.71-4.57,0-6.98-1.05-8.84-2.04-.89-.56-1.45-.78-1.88-.78-.72,0-.99.83-1.21,2.42h-1.26c.16-2.58.21-6.1.21-14.85h1.26Z"/>
                  <path class="cls-23" d="M200.86,293.26c1.02,2.63,2.42,3.46,3.46,3.52v1.1c-2.18-.11-5.34-.16-8.35-.16-3.41,0-6.55.05-8.38.16v-1.1c2.63-.11,3.87-.51,3.87-2.01,0-.64-.21-1.5-.64-2.6l-3.3-9.02h-11.95l-1.48,3.81c-1.05,2.69-1.5,4.65-1.5,6.1,0,2.9,1.88,3.65,4.89,3.73v1.1c-2.5-.11-4.57-.16-6.85-.16-1.61,0-3.12.05-4.22.16v-1.1c1.61-.3,3.22-1.72,4.78-5.77l12.51-32.17c.59.05,1.24.08,1.91.08s1.32-.03,1.91-.08l13.35,34.43ZM181.66,267.23l-5.69,14.8h11.14l-5.45-14.8Z"/>
                  <path class="cls-3" d="M224.11,260.04c-3.73.16-4.46.73-4.46,4.73v27.93c0,3.44.56,3.92,3.46,3.92h2.69c5.08,0,8.94-4.94,10.02-12.27h1.26c-.11,1.26-.16,2.96-.16,4.83,0,1.72.05,5.26.38,8.7-3.73-.16-8.89-.16-12.59-.16s-11.92,0-17.91.16v-1.1c3.49-.16,4.11-.73,4.11-4.73v-27.29c0-4-.64-4.57-4.11-4.73v-1.1c1.85.11,5.16.16,8.67.16,3.2,0,6.61-.05,8.65-.16v1.1Z"/>
                  <path class="cls-39" d="M270.81,284.9c-.11,1.18-.16,2.82-.16,4.62,0,1.64.05,5.05.38,8.35-3.73-.16-8.89-.16-12.6-.16s-11.92,0-17.91.16v-1.1c3.49-.16,4.11-.73,4.11-4.73v-27.29c0-4-.64-4.57-4.11-4.73v-1.1c5.99.16,14.23.16,17.91.16,3.36,0,8.11,0,11.49-.16-.27,3.25-.38,6.55-.38,8.14,0,1.45.05,2.85.16,3.73h-1.26c-1.1-8.06-3.97-10.61-9.02-10.61h-2.26c-3.2,0-3.79.48-3.79,3.92v13.62h1.77c4.4,0,5.96-4.27,6.55-7.25h1.26c-.16,2.34-.19,3.92-.19,5.18,0,1.02.03,1.83.03,2.63,0,1.8.05,3.63.32,7.82h-1.26c-.56-3.87-2.31-7.28-6.71-7.28h-1.77v13.86c0,3.44.59,3.92,3.79,3.92h2.71c4.92,0,8.3-2.85,9.67-11.71h1.26ZM251.93,254.75c5.24-4.27,6.39-6.88,8.92-8.22.54-.29,1.13-.43,1.72-.43,1.1,0,2.2.54,2.74,1.58.21.4.3.83.3,1.26,0,1.1-.64,2.17-1.83,2.82-2.47,1.37-5.32,1.32-11.44,3.65l-.4-.67Z"/>
                  <path class="cls-13" d="M311.06,260.04c-3.52.48-4.14,1.93-4.14,7.25v30.7c-.4-.03-.86-.03-1.32-.03-.48,0-.97,0-1.5.03l-23.85-30.24v21.11c0,6.04.48,7.44,5.34,7.92v1.1c-1.42-.11-3.97-.16-5.96-.16-1.72,0-3.62.05-4.78.16v-1.1c3.52-.48,4.14-1.93,4.14-7.25v-24.76c0-4-.64-4.57-4.14-4.73v-1.1c1.16.11,3.06.16,4.78.16s3.46-.05,4.75-.16l21.27,26.24v-17.21c0-6.04-.48-7.44-5.34-7.92v-1.1c1.42.11,3.97.16,5.96.16,1.72,0,3.63-.05,4.78-.16v1.1Z"/>
                </g>
              </g>
              <text class="cls-11" transform="translate(69.28 323.54)"><tspan class="cls-16" x="0" y="0">P</tspan><tspan x="14.92" y="0">o</tspan><tspan class="cls-19" x="28.46" y="0">s</tspan><tspan x="39.29" y="0">e</tspan><tspan class="cls-35" x="52.35" y="0">s</tspan><tspan class="cls-26" x="63.1" y="0">i</tspan><tspan class="cls-31" x="68.99" y="0">ó</tspan><tspan class="cls-14" x="82.38" y="0">n </tspan><tspan class="cls-21" x="102.56" y="0">d</tspan><tspan x="116.82" y="0">e </tspan><tspan class="cls-33" x="135.68" y="0">P</tspan><tspan class="cls-2" x="150.6" y="0">a</tspan><tspan x="162.91" y="0">z</tspan></text>
            </g>
          </g>
          <g>
            <polygon class="cls-9" points="37.39 108.98 37.39 116.99 25.54 116.99 25.54 124.48 37.39 124.48 37.39 148.87 44.88 148.84 44.88 124.31 56.9 124.31 56.9 116.99 44.36 117.17 44.18 108.98 37.39 108.98"/>
            <g>
              <path class="cls-10" d="M255.37,148.87h31.88c-5.31-6.31-10.63-8.41-15.35-8.41-9.45,0-16.53,8.41-16.53,8.41"/>
              <path class="cls-10" d="M265.99,127.43l-5.2-9.46v11.8l-9.2-11.45,3.52,26.35c11.87-10.17,22.27-6.78,28.12-3.39,2.96,1.71,4.75,3.43,4.99,3.39l3.04-25.65-8.32,8.94-1.06-9.77-4.71,9.07-5.86-18.27-5.33,18.45Z"/>
            </g>
            <path class="cls-9" d="M96.3,118.63c.92.28,1.92.52,2.99.73.02.17.04.34.06.5.31,2.19.99,4.66,1.99,7.15.06.14.11.27.17.41.37.91.65,1.73,1.07,2.51.05.08.09.17.14.25.26.46.54.99.8,1.41.41.66.86,1.14,1.31,1.72.1.13.2.26.31.39l-.22-.2c-.55-.49-1.08-.88-1.6-1.46-.39-.43-.84-.92-1.22-1.4-.64-.8-1.27-1.72-1.87-2.68-1.44-2.29-2.56-4.64-3.26-6.77-.24-.72-.45-1.5-.59-2.14-.03-.14-.06-.29-.09-.43M127.81,113.62c0-5.63-17.77-5.63-19.11-5.63-1.78,0-18.81,0-18.81,5.48,0,.44-.15.74,0,1.04.15.89,1.78,2.37,2.52,2.67.44.44,1.33.59,1.63,1.33.74,1.63,1.04,3.55,1.78,5.33.89,2.37,2.67,5.18,4.59,7.41,1.18,1.33,4.15,4,4.89,5.18v4.44c-1.93,1.04-8.59,4-8.59,5.78,0,.56.83.98,2.05,1.3.7-1.57,2.48-2.77,4.84-3.3,2.3-.52,2.54-.04,3.48-4.18-.07,3.48.3,3.92-2.48,5.18-2.29.16-3.03,2.03-3.29,2.76,3.2.41,6.98.46,7.4.46.3,0,12.14-.15,12.14-2.07,0-2.07-8.59-5.78-8.59-5.92,0-.44.15-.44.15-4.89,4.89-4.3,8.29-9.33,9.77-13.48.44-1.33.59-2.96,1.33-4.15.44-.74,1.48-1.18,2.22-1.63,1.18-.74,2.07-2.37,2.07-3.11M91.45,113.33c0-2.41,7.59-4.37,16.96-4.37,5.56,0,10.49.69,13.58,1.75-3.08-.81-7.36-1.31-12.1-1.31-9.37,0-16.96,1.96-16.96,4.37,0,.98,1.26,1.89,3.38,2.62-3-.79-4.86-1.87-4.86-3.06"/>
            <g>
              <path class="cls-1" d="M183.09,120.01s1.04.57,2.15,2.1c1.18,1.62,1.27,3.74,1.3,4.34.16,3.22.85,8.78,1.57,11.16,2.26,7.48,12.82,10.58,15.94,11.5,4.43,1.3,8.26,1.36,10.64,1.24-1.52-.87-3.69-2.25-6.02-4.25-4.89-4.19-7.8-8.8-10.26-12.74-.19-.3-3.49-5.6-7.47-10.99-.8-1.08-2.21-2.93-4.57-3.41-1.69-.35-2.64-.15-4.03.81.26-.18.48.07.75.24Z"/>
              <path class="cls-1" d="M211.57,145.09c-1.46.52-6.12,2.12-11.56.42-6.86-2.14-10.03-7.94-10.71-9.37-1.61-3.44-2.26-7.44-2.26-7.44-.5-3.05-.36-5.43-2.13-7.3-.86-.91-1.86-1.37-2.57-1.62,1.16-.84,2.24-1.19,2.89-1.34.63-.15,2.84-.67,4.84.45.88.49,1.4,1.12,1.93,1.83,2.21,2.89,3.66,5.49,4.02,6.12.74,1.29,2.55,4.45,5.5,6.51,3.86,2.7,8.29,2.56,10.64,2.49,4.2-.13,7.62-1.51,9.67-2.33,1.28-.52,2.32-1.03,3.06-1.41-.28.53-.69,1.28-1.24,2.15-1.66,2.63-5.34,8.45-12.1,10.87Z"/>
              <path class="cls-1" d="M221.84,127.46c-1.12,2.24-3.4,6.67-8.07,10.83-2.53,2.25-5.52,4.92-10.23,5.84-1.95.38-5.21,1.02-8.51-.77-2.79-1.51-4.05-4.06-5.04-6.03-1.51-3-1.88-6.6-1.97-7.31-.04-.36-.19-1.56-.47-3.18-.34-1.93-.6-2.84-.88-3.61-.49-1.37-.74-2.05-1.4-2.61-1.04-.87-2.35-.9-2.91-.86.29-.17.72-.35,1.28-.51,1.61-.46,2.98-.04,3.45.12,1.26.41,2.04,1.1,2.83,1.81.82.73,1.14,1.22,2.09,2.4,1.27,1.57,2.02,2.5,2.89,3.31.7.66,2.46,2.29,5.13,3.07,2.31.68,4.23.41,5.59.2,2.73-.42,4.57-1.41,8.13-3.39,3.05-1.69,4.98-2.76,7.21-4.84,2.22-2.06,3.66-4.13,4.55-5.59-.52,2.96-1.53,6.88-3.66,11.11Z"/>
              <path class="cls-1" d="M217.57,123.23c-.87,1.89-1.87,3.43-1.87,3.43-.35.54-1.83,2.78-4.82,5.53-2.78,2.56-4.38,4.03-7.1,5-1.23.44-3.35,1.16-6.06.74-2.9-.45-4.79-1.95-5.73-2.7-.92-.75-3.14-2.54-3.92-5.42-.03-.1-.16-.82-.41-2.25-.52-2.91-.58-3.52-1-4.51-.41-.96-.75-1.75-1.61-2.37-1.01-.73-2.18-.91-2.71-.9.2-.11.54-.12.91-.23.2-.06,1.15-.33,2.52-.01,1.66.39,2.82,1.38,3.77,2.21,1.4,1.23,1.33,1.62,2.9,2.87.62.5,1.2.96,2.09,1.37,0,0,1.4.65,3.11.78,3.66.27,9.69-3.97,10.2-4.33,3.08-2.19,7.13-5.12,10.88-10.49,1.66-2.38,2.78-4.54,3.49-6.07-.27,1.66-1.92,11.46-4.63,17.37Z"/>
            </g>
          </g>
        </g>
      </g>
    </g>
  </g>
</svg>