<?xml version="1.0" encoding="UTF-8"?>
<svg xmlns="http://www.w3.org/2000/svg" xmlns:xlink="http://www.w3.org/1999/xlink" viewBox="0 0 290.2 238.09">
  <defs>
    <style>
      .cls-1 {
        fill: #ddd;
        mix-blend-mode: hard-light;
      }

      .cls-2 {
        fill: url(#Nueva_muestra_de_degradado_3);
      }

      .cls-3, .cls-4 {
        fill: #fff;
      }

      .cls-5 {
        fill: url(#Nueva_muestra_de_degradado_5);
      }

      .cls-6 {
        isolation: isolate;
      }

      .cls-7 {
        fill: url(#Nueva_muestra_de_degradado_4);
      }

      .cls-4 {
        mix-blend-mode: screen;
      }

      .cls-8 {
        fill: url(#Nueva_muestra_de_degradado_2);
      }
    </style>
    <linearGradient id="Nueva_muestra_de_degradado_2" data-name="Nueva muestra de degradado 2" x1="97.6" y1="190.23" x2="97.6" y2="130.61" gradientUnits="userSpaceOnUse">
      <stop offset="0" stop-color="#213364"/>
      <stop offset="1" stop-color="#2e60ab"/>
    </linearGradient>
    <linearGradient id="Nueva_muestra_de_degradado_3" data-name="Nueva muestra de degradado 3" x1="30" y1="189.05" x2="30" y2="135.14" gradientUnits="userSpaceOnUse">
      <stop offset="0" stop-color="#6f1f15"/>
      <stop offset="1" stop-color="#cc1517"/>
    </linearGradient>
    <linearGradient id="Nueva_muestra_de_degradado_5" data-name="Nueva muestra de degradado 5" x1="260.2" y1="190" x2="260.2" y2="136.05" gradientUnits="userSpaceOnUse">
      <stop offset="0" stop-color="#551949"/>
      <stop offset="1" stop-color="#a01b78"/>
    </linearGradient>
    <linearGradient id="Nueva_muestra_de_degradado_4" data-name="Nueva muestra de degradado 4" x1="192.7" y1="189.52" x2="192.7" y2="127.08" gradientUnits="userSpaceOnUse">
      <stop offset="0" stop-color="#c97914"/>
      <stop offset="1" stop-color="#f5b900"/>
    </linearGradient>
  </defs>
  <g class="cls-6">
    <g id="Capa_2" data-name="Capa 2">
      <g id="Capa_2-2" data-name="Capa 2">
        <g>
          <g>
            <g>
              <path class="cls-8" d="M75.1,70.41h55v119.99h-65v-109.99c0-5.52,4.48-10,10-10Z"/>
              <path class="cls-2" d="M10,80.41h50v109.99H10c-5.52,0-10-4.48-10-10v-89.99c0-5.52,4.48-10,10-10Z"/>
              <path class="cls-5" d="M230.2,80.41h50c5.52,0,10,4.48,10,10v89.99c0,5.52-4.48,10-10,10h-50v-109.99h0Z"/>
              <path class="cls-7" d="M160.2,70.4h55c5.52,0,10,4.48,10,10v110h-65v-120h0Z"/>
            </g>
            <path class="cls-3" d="M284.15,238.09c-43.75-14.38-90.49-22.16-139.05-22.16s-95.3,7.78-139.05,22.16c40.8-23.95,88.32-37.69,139.05-37.69s98.25,13.74,139.05,37.69Z"/>
            <g>
              <polygon class="cls-3" points="97.28 36.78 97.28 44.14 126.71 44.14 141.42 29.43 141.42 0 134.07 0 134.07 29.43 126.71 36.78 97.28 36.78"/>
              <polygon class="cls-3" points="97.28 51.49 97.28 58.85 126.71 58.85 156.13 29.43 156.13 0 148.78 0 148.78 29.43 126.71 51.49 97.28 51.49"/>
              <polygon class="cls-3" points="134.07 66.21 134.07 190.4 141.42 190.4 141.42 66.21 163.49 44.14 192.92 44.14 192.92 36.78 163.49 36.78 134.07 66.21"/>
              <polygon class="cls-3" points="148.78 66.21 148.78 190.4 156.13 190.4 156.13 66.21 163.49 58.85 192.92 58.85 192.92 51.49 163.49 51.49 148.78 66.21"/>
            </g>
          </g>
          <g>
            <polygon class="cls-3" points="26.17 108.98 26.17 116.99 14.32 116.99 14.32 124.48 26.17 124.48 26.17 148.87 33.66 148.84 33.66 124.31 45.68 124.31 45.68 116.99 33.14 117.17 32.96 108.98 26.17 108.98"/>
            <g>
              <path class="cls-4" d="M244.15,148.87h31.88c-5.31-6.31-10.63-8.41-15.35-8.41-9.45,0-16.53,8.41-16.53,8.41"/>
              <path class="cls-4" d="M254.76,127.43l-5.2-9.46v11.8l-9.2-11.45,3.52,26.35c11.87-10.17,22.27-6.78,28.12-3.39,2.96,1.71,4.75,3.43,4.99,3.39l3.04-25.65-8.32,8.94-1.06-9.77-4.71,9.07-5.86-18.27-5.33,18.45Z"/>
            </g>
            <path class="cls-3" d="M85.08,118.63c.92.28,1.92.52,2.99.73.02.17.04.34.06.5.31,2.19.99,4.66,1.99,7.15.06.14.11.27.17.41.37.91.65,1.73,1.07,2.51.05.08.09.17.14.25.26.46.54.99.8,1.41.41.66.86,1.14,1.31,1.72.1.13.2.26.31.39l-.22-.2c-.55-.49-1.08-.88-1.6-1.46-.39-.43-.84-.92-1.22-1.4-.64-.8-1.27-1.72-1.87-2.68-1.44-2.29-2.56-4.64-3.26-6.77-.24-.72-.45-1.5-.59-2.14-.03-.14-.06-.29-.09-.43M116.59,113.62c0-5.63-17.77-5.63-19.11-5.63-1.78,0-18.81,0-18.81,5.48,0,.44-.15.74,0,1.04.15.89,1.78,2.37,2.52,2.67.44.44,1.33.59,1.63,1.33.74,1.63,1.04,3.55,1.78,5.33.89,2.37,2.67,5.18,4.59,7.41,1.18,1.33,4.15,4,4.89,5.18v4.44c-1.93,1.04-8.59,4-8.59,5.78,0,.56.83.98,2.05,1.3.7-1.57,2.48-2.77,4.84-3.3,2.3-.52,2.54-.04,3.48-4.18-.07,3.48.3,3.92-2.48,5.18-2.29.16-3.03,2.03-3.29,2.76,3.2.41,6.98.46,7.4.46.3,0,12.14-.15,12.14-2.07,0-2.07-8.59-5.78-8.59-5.92,0-.44.15-.44.15-4.89,4.89-4.3,8.29-9.33,9.77-13.48.44-1.33.59-2.96,1.33-4.15.44-.74,1.48-1.18,2.22-1.63,1.18-.74,2.07-2.37,2.07-3.11M80.23,113.33c0-2.41,7.59-4.37,16.96-4.37,5.56,0,10.49.69,13.58,1.75-3.08-.81-7.36-1.31-12.1-1.31-9.37,0-16.96,1.96-16.96,4.37,0,.98,1.26,1.89,3.38,2.62-3-.79-4.86-1.87-4.86-3.06"/>
            <g>
              <path class="cls-1" d="M171.87,120.01s1.04.57,2.15,2.1c1.18,1.62,1.27,3.74,1.3,4.34.16,3.22.85,8.78,1.57,11.16,2.26,7.48,12.82,10.58,15.94,11.5,4.43,1.3,8.26,1.36,10.64,1.24-1.52-.87-3.69-2.25-6.02-4.25-4.89-4.19-7.8-8.8-10.26-12.74-.19-.3-3.49-5.6-7.47-10.99-.8-1.08-2.21-2.93-4.57-3.41-1.69-.35-2.64-.15-4.03.81.26-.18.48.07.75.24Z"/>
              <path class="cls-1" d="M200.35,145.09c-1.46.52-6.12,2.12-11.56.42-6.86-2.14-10.03-7.94-10.71-9.37-1.61-3.44-2.26-7.44-2.26-7.44-.5-3.05-.36-5.43-2.13-7.3-.86-.91-1.86-1.37-2.57-1.62,1.16-.84,2.24-1.19,2.89-1.34.63-.15,2.84-.67,4.84.45.88.49,1.4,1.12,1.93,1.83,2.21,2.89,3.66,5.49,4.02,6.12.74,1.29,2.55,4.45,5.5,6.51,3.86,2.7,8.29,2.56,10.64,2.49,4.2-.13,7.62-1.51,9.67-2.33,1.28-.52,2.32-1.03,3.06-1.41-.28.53-.69,1.28-1.24,2.15-1.66,2.63-5.34,8.45-12.1,10.87Z"/>
              <path class="cls-1" d="M210.62,127.46c-1.12,2.24-3.4,6.67-8.07,10.83-2.53,2.25-5.52,4.92-10.23,5.84-1.95.38-5.21,1.02-8.51-.77-2.79-1.51-4.05-4.06-5.04-6.03-1.51-3-1.88-6.6-1.97-7.31-.04-.36-.19-1.56-.47-3.18-.34-1.93-.6-2.84-.88-3.61-.49-1.37-.74-2.05-1.4-2.61-1.04-.87-2.35-.9-2.91-.86.29-.17.72-.35,1.28-.51,1.61-.46,2.98-.04,3.45.12,1.26.41,2.04,1.1,2.83,1.81.82.73,1.14,1.22,2.09,2.4,1.27,1.57,2.02,2.5,2.89,3.31.7.66,2.46,2.29,5.13,3.07,2.31.68,4.23.41,5.59.2,2.73-.42,4.57-1.41,8.13-3.39,3.05-1.69,4.98-2.76,7.21-4.84,2.22-2.06,3.66-4.13,4.55-5.59-.52,2.96-1.53,6.88-3.66,11.11Z"/>
              <path class="cls-1" d="M206.35,123.23c-.87,1.89-1.87,3.43-1.87,3.43-.35.54-1.83,2.78-4.82,5.53-2.78,2.56-4.38,4.03-7.1,5-1.23.44-3.35,1.16-6.06.74-2.9-.45-4.79-1.95-5.73-2.7-.92-.75-3.14-2.54-3.92-5.42-.03-.1-.16-.82-.41-2.25-.52-2.91-.58-3.52-1-4.51-.41-.96-.75-1.75-1.61-2.37-1.01-.73-2.18-.91-2.71-.9.2-.11.54-.12.91-.23.2-.06,1.15-.33,2.52-.01,1.66.39,2.82,1.38,3.77,2.21,1.4,1.23,1.33,1.62,2.9,2.87.62.5,1.2.96,2.09,1.37,0,0,1.4.65,3.11.78,3.66.27,9.69-3.97,10.2-4.33,3.08-2.19,7.13-5.12,10.88-10.49,1.66-2.38,2.78-4.54,3.49-6.07-.27,1.66-1.92,11.46-4.63,17.37Z"/>
            </g>
          </g>
        </g>
      </g>
    </g>
  </g>
</svg>