<?xml version="1.0" encoding="UTF-8"?>
<svg id="Capa_2" data-name="Capa 2" xmlns="http://www.w3.org/2000/svg" xmlns:xlink="http://www.w3.org/1999/xlink" viewBox="0 0 312.64 79.1">
  <defs>
    <style>
      .cls-1 {
        letter-spacing: -.02em;
      }

      .cls-2 {
        letter-spacing: 0em;
      }

      .cls-3 {
        fill: #4089e2;
        font-family: PlayfairDisplaySC-Bold, 'Playfair Display SC';
        font-size: 55px;
        font-weight: 700;
      }

      .cls-4 {
        letter-spacing: -.02em;
      }

      .cls-5 {
        letter-spacing: 0em;
      }

      .cls-6 {
        letter-spacing: -.02em;
      }

      .cls-7 {
        letter-spacing: 0em;
      }

      .cls-8 {
        letter-spacing: 0em;
      }

      .cls-9 {
        letter-spacing: 0em;
      }

      .cls-10 {
        letter-spacing: 0em;
      }

      .cls-11 {
        fill: #fff;
        font-family: Montserrat-SemiBold, Montserrat;
        font-size: 21px;
        font-weight: 600;
      }

      .cls-12 {
        letter-spacing: -.03em;
      }

      .cls-13 {
        letter-spacing: .02em;
      }

      .cls-14 {
        letter-spacing: 0em;
      }

      .cls-15 {
        letter-spacing: -.02em;
      }

      .cls-16 {
        letter-spacing: -.01em;
      }

      .cls-17 {
        letter-spacing: 0em;
      }

      .cls-18 {
        fill: url(#Degradado_sin_nombre_33);
      }

      .cls-19 {
        letter-spacing: -.01em;
      }
    </style>
    <linearGradient id="Degradado_sin_nombre_33" data-name="Degradado sin nombre 33" x1="-44.35" y1="125.46" x2="250.77" y2="-9.93" gradientUnits="userSpaceOnUse">
      <stop offset="0" stop-color="#ffd679"/>
      <stop offset="0" stop-color="#eecf92"/>
      <stop offset=".23" stop-color="#ffe78d"/>
      <stop offset=".41" stop-color="#d69c47"/>
      <stop offset=".59" stop-color="#9d660e"/>
      <stop offset=".77" stop-color="#ae8833"/>
      <stop offset="1" stop-color="#c79d3f"/>
    </linearGradient>
  </defs>
  <g id="Capa_2-2" data-name="Capa 2">
    <g>
      <g>
        <text class="cls-3" transform="translate(8.67 51.78)"><tspan x="0" y="0">J</tspan><tspan class="cls-2" x="20.03" y="0">E</tspan><tspan class="cls-12" x="54.35" y="0">R</tspan><tspan class="cls-4" x="90.65" y="0">U</tspan><tspan class="cls-19" x="127.29" y="0">S</tspan><tspan class="cls-13" x="158.59" y="0">A</tspan><tspan class="cls-9" x="196.26" y="0">L</tspan><tspan class="cls-16" x="229.99" y="0">É</tspan><tspan x="264.28" y="0">N</tspan></text>
        <g>
          <path class="cls-18" d="M27.23,13.94c-3.52.16-4.14.73-4.14,4.73v23.01c0,4.03-.08,8.49-.94,11.47-1.48,5.08-6.47,8.97-13.91,8.97-1.96,0-4.13-.32-5.53-1.02-1.93-.97-2.71-2.31-2.71-4,0-2.23,1.77-3.71,4.4-3.71s4.16,1.26,4.16,3.63c0,1.61-.94,3.01-2.82,3.6.48.32,1.42.4,1.99.4,2.77,0,4.73-1.66,5.56-3.95.99-2.85,1.05-5.67,1.05-13.27v-25.14c0-4-.64-4.57-4.11-4.73v-1.1c1.8.11,4.97.16,8.35.16,3.2,0,6.61-.05,8.65-.16v1.1Z"/>
          <path class="cls-18" d="M60.85,38.81c-.11,1.18-.16,2.82-.16,4.62,0,1.64.05,5.05.38,8.35-3.73-.16-8.89-.16-12.59-.16s-11.92,0-17.91.16v-1.1c3.49-.16,4.11-.73,4.11-4.73v-27.29c0-4-.64-4.57-4.11-4.73v-1.1c5.99.16,14.23.16,17.91.16,3.36,0,8.11,0,11.49-.16-.27,3.25-.38,6.55-.38,8.14,0,1.45.05,2.85.16,3.73h-1.26c-1.1-8.06-3.97-10.61-9.02-10.61h-2.26c-3.2,0-3.79.48-3.79,3.92v13.62h1.77c4.4,0,5.96-4.27,6.55-7.25h1.26c-.16,2.34-.19,3.92-.19,5.18,0,1.02.03,1.83.03,2.63,0,1.8.05,3.63.32,7.82h-1.26c-.56-3.87-2.31-7.28-6.71-7.28h-1.77v13.86c0,3.44.59,3.92,3.79,3.92h2.71c4.92,0,8.3-2.85,9.67-11.71h1.26Z"/>
          <path class="cls-18" d="M102.15,49.36c-1.96,2.26-4.08,3.2-7.3,3.2-3.95,0-6.61-1.37-7.44-5.96l-.97-5.48c-.81-4.59-1.69-7.82-5.13-7.82h-3.57v12.65c0,4,.64,4.57,4.14,4.73v1.1c-1.99-.11-5.26-.16-8.33-.16-3.52,0-6.82.05-8.67.16v-1.1c3.49-.16,4.11-.73,4.11-4.73v-27.29c0-4-.64-4.57-4.11-4.73v-1.1c1.85.11,5.26.16,8.35.16,3.6,0,7.25-.11,8.65-.11,10.23,0,15.23,3.52,15.23,9.56,0,4.46-2.71,9.53-12.35,10.63h.03c6.66.56,9.59,2.69,10.55,7.25l1.23,5.67c.62,2.93,1.24,3.95,2.61,3.95.94,0,1.53-.43,2.23-1.26l.75.67ZM80.1,32.2c6.5,0,7.87-4.08,7.87-9.13,0-5.77-1.83-9.13-6.82-9.13-2.82,0-3.41.94-3.41,4.73v13.54h2.36Z"/>
          <path class="cls-18" d="M136.2,13.94c-3.49.48-4.11,1.93-4.11,7.25v14.58c0,4.78-.54,8.78-2.26,11.66-1.88,3.14-5.53,5.13-11.12,5.13-3.44,0-7.2-.62-9.91-2.79-3.57-2.85-4.32-6.77-4.32-13.83v-17.27c0-4-.62-4.57-4.14-4.73v-1.1c1.88.11,5.21.16,8.62.16s6.66-.05,8.7-.16v1.1c-3.73.16-4.46.73-4.46,4.73v20.76c0,7.36,1.75,11.2,7.6,11.2,7.76,0,10.02-5.88,10.02-14.23v-14.53c0-6.04-.73-7.44-5.34-7.92v-1.1c1.42.11,3.97.16,5.94.16,1.75,0,3.65-.05,4.78-.16v1.1Z"/>
          <path class="cls-18" d="M140.45,37.3c.46,7.33,2.98,13.8,10.02,13.8,3.84,0,6.82-2.04,6.82-6.15,0-4.51-3.41-7.12-8.24-10.23-5.24-3.33-9.8-6.42-9.8-12.54,0-6.93,5.88-10.04,12.33-10.04,4.3,0,6.31,1.1,8.03,2.12.89.54,1.37.78,1.85.78.73,0,.99-.83,1.24-2.42h1.26c-.19,2.17-.29,4.81-.29,12.54h-1.26c-.38-5.72-3.46-11.71-9.35-11.71-3.52,0-6.04,2.12-6.04,5.61,0,4.43,3.36,6.23,9.51,10.37,5.21,3.46,9.29,6.45,9.29,12.41,0,7.25-6.26,10.71-13.64,10.71-4.57,0-6.98-1.05-8.84-2.04-.89-.56-1.45-.78-1.88-.78-.73,0-.99.83-1.21,2.42h-1.26c.16-2.58.21-6.1.21-14.85h1.26Z"/>
          <path class="cls-18" d="M200.86,47.16c1.02,2.63,2.42,3.46,3.46,3.52v1.1c-2.18-.11-5.34-.16-8.35-.16-3.41,0-6.55.05-8.38.16v-1.1c2.63-.11,3.87-.51,3.87-2.01,0-.64-.21-1.5-.64-2.6l-3.3-9.02h-11.95l-1.48,3.81c-1.05,2.69-1.5,4.65-1.5,6.1,0,2.9,1.88,3.65,4.89,3.73v1.1c-2.5-.11-4.57-.16-6.85-.16-1.61,0-3.12.05-4.22.16v-1.1c1.61-.3,3.22-1.72,4.78-5.77l12.52-32.17c.59.05,1.23.08,1.91.08s1.32-.03,1.91-.08l13.35,34.43ZM181.66,21.14l-5.69,14.8h11.14l-5.45-14.8Z"/>
          <path class="cls-18" d="M224.11,13.94c-3.73.16-4.46.73-4.46,4.73v27.93c0,3.44.56,3.92,3.46,3.92h2.69c5.08,0,8.94-4.94,10.02-12.27h1.26c-.11,1.26-.16,2.96-.16,4.83,0,1.72.05,5.26.38,8.7-3.73-.16-8.89-.16-12.6-.16s-11.92,0-17.91.16v-1.1c3.49-.16,4.11-.73,4.11-4.73v-27.29c0-4-.64-4.57-4.11-4.73v-1.1c1.85.11,5.16.16,8.67.16,3.2,0,6.61-.05,8.65-.16v1.1Z"/>
          <path class="cls-18" d="M270.81,38.81c-.11,1.18-.16,2.82-.16,4.62,0,1.64.05,5.05.38,8.35-3.73-.16-8.89-.16-12.6-.16s-11.92,0-17.91.16v-1.1c3.49-.16,4.11-.73,4.11-4.73v-27.29c0-4-.64-4.57-4.11-4.73v-1.1c5.99.16,14.23.16,17.91.16,3.36,0,8.11,0,11.49-.16-.27,3.25-.38,6.55-.38,8.14,0,1.45.05,2.85.16,3.73h-1.26c-1.1-8.06-3.97-10.61-9.02-10.61h-2.26c-3.2,0-3.79.48-3.79,3.92v13.62h1.77c4.4,0,5.96-4.27,6.55-7.25h1.26c-.16,2.34-.19,3.92-.19,5.18,0,1.02.03,1.83.03,2.63,0,1.8.05,3.63.32,7.82h-1.26c-.56-3.87-2.31-7.28-6.71-7.28h-1.77v13.86c0,3.44.59,3.92,3.79,3.92h2.71c4.92,0,8.3-2.85,9.67-11.71h1.26ZM251.93,8.65c5.24-4.27,6.39-6.88,8.92-8.22.54-.29,1.13-.43,1.72-.43,1.1,0,2.2.54,2.74,1.58.21.4.29.83.29,1.26,0,1.1-.64,2.17-1.83,2.82-2.47,1.37-5.32,1.32-11.44,3.65l-.4-.67Z"/>
          <path class="cls-18" d="M311.06,13.94c-3.52.48-4.14,1.93-4.14,7.25v30.7c-.4-.03-.86-.03-1.32-.03-.48,0-.97,0-1.5.03l-23.85-30.24v21.11c0,6.04.48,7.44,5.34,7.92v1.1c-1.42-.11-3.97-.16-5.96-.16-1.72,0-3.63.05-4.78.16v-1.1c3.52-.48,4.14-1.93,4.14-7.25v-24.76c0-4-.64-4.57-4.14-4.73v-1.1c1.15.11,3.06.16,4.78.16s3.46-.05,4.75-.16l21.27,26.24v-17.21c0-6.04-.48-7.44-5.34-7.92v-1.1c1.42.11,3.97.16,5.96.16,1.72,0,3.63-.05,4.78-.16v1.1Z"/>
        </g>
      </g>
      <g>
        <text class="cls-11" transform="translate(137.34 73.53)"><tspan class="cls-6" x="0" y="0">P</tspan><tspan x="14.92" y="0">o</tspan><tspan class="cls-7" x="28.46" y="0">s</tspan><tspan x="39.29" y="0">e</tspan><tspan class="cls-17" x="52.35" y="0">s</tspan><tspan class="cls-10" x="63.1" y="0">i</tspan><tspan class="cls-14" x="68.99" y="0">ó</tspan><tspan class="cls-5" x="82.38" y="0">n </tspan><tspan class="cls-8" x="102.56" y="0">d</tspan><tspan x="116.82" y="0">e </tspan><tspan class="cls-15" x="135.68" y="0">P</tspan><tspan class="cls-1" x="150.6" y="0">a</tspan><tspan x="162.91" y="0">z</tspan></text>
        <text class="cls-11" transform="translate(137.34 73.53)"><tspan class="cls-6" x="0" y="0">P</tspan><tspan x="14.92" y="0">o</tspan><tspan class="cls-7" x="28.46" y="0">s</tspan><tspan x="39.29" y="0">e</tspan><tspan class="cls-17" x="52.35" y="0">s</tspan><tspan class="cls-10" x="63.1" y="0">i</tspan><tspan class="cls-14" x="68.99" y="0">ó</tspan><tspan class="cls-5" x="82.38" y="0">n </tspan><tspan class="cls-8" x="102.56" y="0">d</tspan><tspan x="116.82" y="0">e </tspan><tspan class="cls-15" x="135.68" y="0">P</tspan><tspan class="cls-1" x="150.6" y="0">a</tspan><tspan x="162.91" y="0">z</tspan></text>
      </g>
    </g>
  </g>
</svg>