<?xml version="1.0" encoding="UTF-8"?>
<svg id="Capa_2" data-name="Capa 2" xmlns="http://www.w3.org/2000/svg" viewBox="0 0 312.64 79.1">
  <defs>
    <style>
      .cls-1, .cls-2 {
        font-family: PlayfairDisplaySC-Bold, 'Playfair Display SC';
        font-size: 55px;
        font-weight: 700;
      }

      .cls-1, .cls-3 {
        fill: #fff;
      }

      .cls-4 {
        letter-spacing: -.02em;
      }

      .cls-5 {
        letter-spacing: 0em;
      }

      .cls-2 {
        fill: #4089e2;
      }

      .cls-6 {
        letter-spacing: -.02em;
      }

      .cls-7 {
        letter-spacing: 0em;
      }

      .cls-8 {
        letter-spacing: -.02em;
      }

      .cls-9 {
        letter-spacing: 0em;
      }

      .cls-10 {
        letter-spacing: 0em;
      }

      .cls-11 {
        letter-spacing: 0em;
      }

      .cls-12 {
        letter-spacing: 0em;
      }

      .cls-3 {
        font-family: Montserrat-SemiBold, Montserrat;
        font-size: 21px;
        font-weight: 600;
      }

      .cls-13 {
        letter-spacing: -.03em;
      }

      .cls-14 {
        letter-spacing: .02em;
      }

      .cls-15 {
        letter-spacing: 0em;
      }

      .cls-16 {
        letter-spacing: -.02em;
      }

      .cls-17 {
        letter-spacing: -.01em;
      }

      .cls-18 {
        letter-spacing: 0em;
      }

      .cls-19 {
        letter-spacing: -.01em;
      }
    </style>
  </defs>
  <g id="Capa_2-2" data-name="Capa 2">
    <g>
      <g>
        <text class="cls-2" transform="translate(8.67 51.78)"><tspan x="0" y="0">J</tspan><tspan class="cls-5" x="20.03" y="0">E</tspan><tspan class="cls-13" x="54.35" y="0">R</tspan><tspan class="cls-6" x="90.65" y="0">U</tspan><tspan class="cls-19" x="127.29" y="0">S</tspan><tspan class="cls-14" x="158.59" y="0">A</tspan><tspan class="cls-11" x="196.26" y="0">L</tspan><tspan class="cls-17" x="229.99" y="0">É</tspan><tspan x="264.28" y="0">N</tspan></text>
        <text class="cls-1" transform="translate(8.67 51.78)"><tspan x="0" y="0">J</tspan><tspan class="cls-5" x="20.03" y="0">E</tspan><tspan class="cls-13" x="54.35" y="0">R</tspan><tspan class="cls-6" x="90.65" y="0">U</tspan><tspan class="cls-19" x="127.29" y="0">S</tspan><tspan class="cls-14" x="158.59" y="0">A</tspan><tspan class="cls-11" x="196.26" y="0">L</tspan><tspan class="cls-17" x="229.99" y="0">É</tspan><tspan x="264.28" y="0">N</tspan></text>
      </g>
      <g>
        <text class="cls-3" transform="translate(137.34 73.53)"><tspan class="cls-8" x="0" y="0">P</tspan><tspan x="14.92" y="0">o</tspan><tspan class="cls-9" x="28.46" y="0">s</tspan><tspan x="39.29" y="0">e</tspan><tspan class="cls-18" x="52.35" y="0">s</tspan><tspan class="cls-12" x="63.1" y="0">i</tspan><tspan class="cls-15" x="68.99" y="0">ó</tspan><tspan class="cls-7" x="82.38" y="0">n </tspan><tspan class="cls-10" x="102.56" y="0">d</tspan><tspan x="116.82" y="0">e </tspan><tspan class="cls-16" x="135.68" y="0">P</tspan><tspan class="cls-4" x="150.6" y="0">a</tspan><tspan x="162.91" y="0">z</tspan></text>
        <text class="cls-3" transform="translate(137.34 73.53)"><tspan class="cls-8" x="0" y="0">P</tspan><tspan x="14.92" y="0">o</tspan><tspan class="cls-9" x="28.46" y="0">s</tspan><tspan x="39.29" y="0">e</tspan><tspan class="cls-18" x="52.35" y="0">s</tspan><tspan class="cls-12" x="63.1" y="0">i</tspan><tspan class="cls-15" x="68.99" y="0">ó</tspan><tspan class="cls-7" x="82.38" y="0">n </tspan><tspan class="cls-10" x="102.56" y="0">d</tspan><tspan x="116.82" y="0">e </tspan><tspan class="cls-16" x="135.68" y="0">P</tspan><tspan class="cls-4" x="150.6" y="0">a</tspan><tspan x="162.91" y="0">z</tspan></text>
      </g>
    </g>
  </g>
</svg>