<?xml version="1.0" encoding="UTF-8"?>
<svg id="Capa_2" data-name="Capa 2" xmlns="http://www.w3.org/2000/svg" viewBox="0 0 693.53 717.64">
  <defs>
    <style>
      .cls-1 { fill: #021a54; }
      .cls-2, .cls-3 { fill: #faf2e7; }
      .cls-3 { font-family: Now-Bold, Now; font-size: 86.42px; font-weight: 700; }
    </style>
  </defs>
  <g id="Capa_1-2" data-name="Capa 1">
    <g>
      <g>
        <path class="cls-2" d="M291.86,184.04c-7.58-12.27-17.75-23.02-30.24-31.92-2.05-1.46-4.46-2.23-6.97-2.23-.27,0-.53.03-.79.05-1.01-2.51-2.85-4.68-5.34-6.05-12.43-6.85-26.56-12.23-42.21-16.1,5.1-3.63,6.32-9.51,3.6-17.52-.94-2.77-2-5.9-1.69-9.72.34-4.15,1.99-6.36,5.4-10.58,3.77-4.67,8.93-11.06,9.27-21.07.44-13.24-7.74-23.75-12.66-28.84-6.34-6.56-12.21-9.89-17.45-9.89-2.49,0-4.89.71-6.94,2.05-.77.5-1.76,1.27-2.7,2.35-3.14-9.82-9.24-17.52-13.45-21.99-4.44-4.7-13.1-12.58-21.25-12.58-2.41,0-4.75.64-6.77,1.84-9.8,5.87-5.2,16.8-3.69,20.39,2,4.76,4.74,11.27,3.1,18.2-.84,3.54-2.27,5.02-5.13,7.98-2.11,2.18-4.65,4.81-7.05,8.5-2.64-7.53-7.43-13.43-10.75-16.86-6.34-6.56-12.21-9.89-17.45-9.89-2.49,0-4.89.71-6.94,2.05-2.81,1.84-8.76,7.28-3.42,18.19.97,1.98,2.06,4.22,2.31,7.12.39,4.51-1.63,7.65-5.52,13.26-4.2,6.06-9.96,14.35-9.19,25.94.88,13.19,10.8,26.15,20.44,31.29-.7.2-1.4.39-2.09.59-10.45,3.08-24.75,7.29-39.47,15.05l-.23.12c-2.26,1.26-3.99,3.17-5.04,5.4-.2-.01-.4-.02-.6-.02-2.44,0-4.78.73-6.79,2.11-12.86,8.82-23.12,19.71-30.51,32.34-17.94,30.64-14.95,51.9-9.28,64.33,1.03,2.26,2.22,4.39,3.59,6.43-.79,1.33-1.31,2.41-1.56,2.94-3.07,6.41-3.1,12.13-3.11,14.87-.05,8.86,2.63,16.15,4.89,20.72,2.35,4.75,7.24,12.44,12.45,18.16.03.03.07.07.11.11.04.3-.06.86-.1,1.07l-.03.15c-1.88,10.7-2.19,65.85,1.91,99.61,1.59,13.13,3.58,29.48,10.26,49.24.28.82.59,1.73.94,2.73l.09.26c2.25,6.51,5.64,16.34,8.97,30.02,2.8,11.51,3.03,15.43,3.11,16.73.27,4.44.06,8.37-3.01,27.37-.56,3.5-1.26,7.67-2.07,12.41-1.03,6,.63,12.11,4.55,16.76,3.92,4.65,9.65,7.31,15.73,7.31h193.71c5.91,0,11.54-2.54,15.44-6.96,3.9-4.42,5.73-10.32,4.99-16.18-1.28-10.19-2.72-20.71-4.3-31.26-1.62-10.9-3.43-22.11-5.39-33.33,2.85-3.71,5.52-7.55,7.97-11.44,5.96-9.46,13.37-21.24,16.12-37.73,2.07-12.48,4.42-26.62-4.97-37.29-1.13-1.29-2.33-2.38-3.38-3.35-.54-.49-1.03-.94-1.47-1.38.91-1.7,1.42-3.63,1.43-5.67.05-13.67.1-27.34.16-41,0,0,.11-27.99.16-41.7,1.56-1.51,2.92-3.04,4.13-4.42.99-1.12,1.85-2.09,2.69-2.91,5.14-5.03,10.27-13.45,12.45-20.46,2.52-8.09,2.11-17.2-1.18-26.33,2.06-3.64,3.66-7.47,4.79-11.44,7.3-25.7-6.65-48.27-12.6-57.91Z"/>
        <text class="cls-3" transform="translate(184.61 689.33)"><tspan x="0" y="0">COFFEE</tspan></text>
      </g>
    </g>
  </g>
</svg>
