<?xml version="1.0" encoding="UTF-8"?>
<svg id="Capa_2" data-name="Capa 2" xmlns="http://www.w3.org/2000/svg" viewBox="0 0 681.54 705.64">
  <defs>
    <style>
      .cls-1 {
        fill: #021a54;
      }

      .cls-2 {
        font-family: Now-Bold, Now;
        font-size: 86.42px;
        font-weight: 700;
        fill: #021a54;
      }
    </style>
  </defs>
  <g id="Capa_1-2" data-name="Capa 1">
    <g>
      <g>
        <path class="cls-1" d="M253.82,384.23c-.77-1.96-.64-2.38-1.72-5.92,0,0-2.11-6.91-5.35-13.28-5.58-10.95-17.92-20.9-19.93-22.5-2.37-13.42-5.77-24.05-8.57-31.5-5.3-14.11-7.99-15.63-9.86-15.86-4.78-.6-9.57,6.53-17.14,17.79-3.79,5.62-6.61,10.61-8.57,14.35-7.38-.45-16.67-.36-27.22,1.29-9.18,1.44-17.04,3.71-23.36,6-4.22-5.15-10.67-12.61-19.28-21-12.62-12.3-15.44-12.54-17.14-12.21-8.01,1.51-10.98,19.06-13.66,34.84-1.38,8.15-3.18,19.26-1.77,33.94.77,8.03,1.83,19.17,7.5,31.93,4.45,10.04,7.64,20.6,11.57,30.86.43,1.13,2.05,4.38.64,6.64-.64,1.02-1.87,1.81-3.11,1.82-.88.01-2.8-.37-5.25-4.61-14.32-24.83-19.07-53.35-19.07-53.35-4.76-28.62-7.14-42.93-7.28-46.07-2.14-48.25-2.15-49.29-2.15-49.29,0-.45-.01-4.83-1.27-10.85-.39-1.86-.9-3.87-1.56-5.98-.12-.38-.25-.78-.38-1.17,0,0-2.85-8.44-10.07-15-.76-.69-2.04-1.74-3.86-1.93-1.47-.15-3.79.22-5.03,1.82-1.37,1.76-.5,3.84-.67,6.62-.07,1.02-.27,2.14-.77,3.36-.19.48-.45,1.01-.86,1.47-.21.25-.48.48-.81.66-1.15.63-2.65.48-3.62-.05-1.39-.75-2.3-2.61-2.59-4.74h-.01c-.25-1.8-.06-3.81.65-5.5.72-1.73,2.69-4.82,3.85-6.64.66-1.02,1.08-1.64.97-2.46-.27-1.98-3.41-3.32-5.76-3.54-.21-.02-4.16-.33-6.99,2.57-1.09,1.12-1.67,2.37-2.04,3.61-.24.78-.38,1.56-.53,2.29-.24,1.2-.31,2.23-.31,3.15-.01,2.97.77,4.63-.55,6.38-1.16,1.53-3.41,2.45-4.82,1.82-2.37-1.05-2.11-6.36-1.61-9,.23-1.21.61-2.39.96-3.33.32-.87.63-1.53.76-1.81.55-1.18,1.06-2.05,1.46-2.74.67-1.12,1.04-1.76.79-2.51-.48-1.39-2.79-2.13-4.61-2.04-.52.03-1.02.13-1.5.28-1.64.52-3.03,1.69-4.13,2.99-1.59,1.85-2.6,3.95-2.94,4.66-1.86,3.88-1.92,7.36-1.93,9.75-.04,6.82,2.14,12.29,3.64,15.32,2.05,4.14,6.39,10.82,10.5,15.33.46.5,1.47,1.58,2.25,3.32,1.66,3.69.92,7.29.75,8.25-1.51,8.58-2.01,63.05,2,96.07,1.57,12.93,3.43,28.26,9.72,46.86,2.07,6.13,6.25,17.44,10.28,34,2.93,12.04,3.3,16.65,3.43,18.85.34,5.7-.01,10.62-3.14,30-.57,3.53-1.27,7.74-2.09,12.52-.9,5.25,3.13,10.05,8.46,10.05h193.71c5.17,0,9.17-4.52,8.53-9.65-1.27-10.14-2.69-20.47-4.26-30.99-1.75-11.78-3.63-23.29-5.6-34.51-.42-2.41.2-4.88,1.71-6.8,2.37-3.02,5.23-6.92,8.18-11.62,5.78-9.18,12.09-19.22,14.43-33.28,1.82-10.95,3.5-21.02-2.14-27.43-2.62-2.98-7.22-5.62-9.86-12.3ZM172.67,396.69c-3.61,9.43-14.72,11.21-16.43,11.48-8.33,1.33-17.79-1.92-22.78-9.21-1.02-1.49-4.26-6.38-3.43-12.86,1.07-8.37,8.07-12.8,9.21-13.5,9.38-5.71,23.52-2.88,30.22,6.21.78,1.07,6.55,9.17,3.21,17.88ZM203.29,401.62c-.46,1.34-1.24,2.16-1.83,2.76-.97,1-2.99,3.07-5.93,3.04-2.31-.02-3.92-1.32-5.07-2.25-.98-.79-2.58-2.08-3-4.28-.13-.65-.31-1.63.11-2.58,1.18-2.68,6.18-2.65,8.67-2.63,2.91,0,6.03.03,7.09,1.99.81,1.48.13,3.47-.04,3.95ZM238.24,389.42c-1,1.79-5.17,8.49-13.28,9.43-8.35.96-14.02-4.98-15.22-6.32-5.79-6.48-4.8-14.45-4.6-15.86.21-1.44.79-5.17,3.64-8.78.6-.77,5.12-6.3,12.86-6.75,9.94-.58,15.76,7.79,16.07,8.25,4.27,6.37,3.76,14.31.53,20.03Z"/>
        <path class="cls-1" d="M157.89,377.1c-.21-.12-3.22-1.85-6.09-.64-4.8,2.02-4.47,10.22-4.41,11.57.09,2.2.36,8.95,5.05,10.97,2.29,1,5.34.73,7.38-.9,2.82-2.25,2.58-6.22,2.35-10.07-.21-3.65-.51-8.69-4.28-10.93Z"/>
        <path class="cls-1" d="M225.3,370.22c-.59-.53-2.01-1.78-3.88-1.69-1.94.1-3.27,1.6-3.7,2.09-4.72,5.33-.32,17.86,3.39,19.22,1.55.57,2.99.33,2.99.33,0,0,1.15-.19,2.19-.88,3.07-2.04,4.53-14.18-.99-19.07Z"/>
        <path class="cls-1" d="M239.05,270.32c-6.63,3.18-13.05,5.7-19.45,7.7.35,1.9.49,3.94.28,6.08-.26,2.55-.9,4.05-.29,6.71.65,2.82,1.97,3.78,3.27,6.72,1.21,2.73,1.43,4.97,1.73,8.28.18,2.05.36,5.33.52,9.65h0c2.85,8.53,4.87,16.71,6.29,24.36,5.47,4.13,13.61,11.46,19.8,22.94,3.04,5.65,4.9,10.97,6.07,15.41.1-27.67.22-55.33.32-83,.01-1.39.23-3.49,1.42-5.57.76-1.33,1.63-2.13,2.08-2.57,2.46-2.34,4.51-5.06,6.93-7.43,3.74-3.66,7.77-10.26,9.39-15.45,2.13-6.84.82-13.62-1.03-18.73-9.92,11.74-24.72,18.84-37.33,24.9Z"/>
        <polygon class="cls-1" points="257.27 378.17 257.27 378.17 257.27 378.17 257.27 378.17"/>
        <path class="cls-1" d="M117.03,144.67c-2.78,1.89-8.25,5.56-15.34,10.82,9.18,3.71,19.54,8.81,30.34,16.04,2.92,1.95,6.01,4.16,9.2,6.63h0c8.34-6.79,18.73-13.9,31.79-20.09,2.32-1.1,4.58-2.1,6.8-3.02-11.42-8.54-18.4-12.67-22.15-14.81-6.12-3.49-11.8-6.34-16.68-8.6-7.91,3.39-16,7.65-23.96,13.04Z"/>
        <path class="cls-1" d="M183.46,140.24c4.55,2.76,9.16,5.58,13.82,8.87,8.75-2.38,17.31-3.91,26.61-5.58,2.27-.41,4.56-.79,6.85-1.14-23.39-12.9-48.74-17.54-63.39-19.49,0,0,0,0,0,0-3.77.92-7.7,2.01-11.74,3.3,8.37,3.43,17.89,7.99,27.86,14.04Z"/>
        <path class="cls-1" d="M269.66,178.34c-7.29-11.81-16.71-21.12-27-28.46-9.8,2.47-20.82,5.69-32.22,10.01,0,0,0,0,0,0,1.95,1.86,3.9,3.86,5.86,6.04,14.27,15.87,23.71,35.21,21.16,37.17-2.31,1.78-12.89-11.93-42.29-36-.22-.18-.42-.35-.64-.52-8.82,4.1-17.63,8.94-26.08,14.66-4.82,3.27-9.22,6.31-13.22,9.13,0,0,0,0,0,0,4.75,4.67,9.51,9.93,14.08,15.87,8.99,11.7,17.99,26.97,15.86,28.71-1.87,1.53-10.99-8.44-28.29-22.71-3.71-3.06-8.86-7.28-15.21-12.09-11.7,8.65-17.22,13.38-17.22,13.38-14.23,12.2-24.81,23.24-26.86,21.58-2.03-1.65,5.93-14.66,7.72-17.58,7.36-12.02,15.06-19.91,17.71-22.57,1.48-1.48,3.07-3.08,4.81-4.76-6.92-4.72-14.69-9.63-23.23-14.39-1.98-1.1-8.38-4.63-17.5-8.93-3.95,3.25-8.1,6.8-12.36,10.64-17.06,15.39-26.46,26.84-28.36,25.43-2.08-1.55,5.61-18,16.93-32.29,2.95-3.72,6-7.11,9.13-10.23-6.22-2.55-13.03-5.09-20.13-7.34-4.66-1.48-9.19-2.79-13.34-3.94-10.2,7-19.75,16.2-26.95,28.51-3.7,6.32-18.55,31.72-8.71,53.29,1.38,3.03,3.1,5.64,5.23,8.08,1.81-1,3.54-1.39,5.01-1.47.19,0,.38,0,.58,0,3.13,0,6.72,1.29,8.42,4.14,3.22-2.27,6.71-2.55,8.23-2.55.56,0,.91.04.99.04,4.48.43,9.59,3.06,10.24,7.84.08.56.08,1.08.04,1.57,1.04-.3,2.14-.46,3.28-.46.4,0,.78.02,1.13.06,3.59.36,5.94,2.5,6.71,3.2,8.09,7.34,11.31,16.7,11.45,17.1.58,1.72,1.07,3.4,1.46,5h.01c2.95,1.06,5.18,1.77,6.5,2.17,5.61,1.71,27.52,8.09,73.43,6.29,29.36-1.16,50.74-2,72.2-8.75,6.15-1.93,12.31-4.35,18.66-7.4,13.03-6.25,28.07-13.47,37.23-25.57,2.99-3.95,5.36-8.43,6.82-13.57,5.85-20.6-6.18-40.09-11.27-48.33Z"/>
        <path class="cls-1" d="M84.84,149.66c11.9-9.06,24.22-15.23,35.33-20.7,2.23-1.1,4.46-2.19,6.7-3.26-.31-.12-.6-.22-.84-.31-3.29-1.21-6.46-2.27-9.49-3.22,0,0,0,0-.01,0-12.37,1.51-22.19,3.99-28.78,5.93-9.94,2.93-23.63,6.96-37.28,14.15,0,0,0,0-.01,0,7.86,1.06,16.33,2.61,25.01,4.84,2.64.68,5.81,1.5,9.38,2.55Z"/>
        <path class="cls-1" d="M170.02,83.92c.88,13.2,14.61,23.66,17.05,22.29,1.81-1.02-3.66-7.98-2.79-18.64,1.27-15.44,14.22-18.61,14.64-31.07.49-14.51-16.49-27.54-18.5-26.23-1.16.76,3.55,5.68,4.29,14.23,1.5,17.42-15.72,24.06-14.69,39.43Z"/>
        <path class="cls-1" d="M77.94,83.92c.88,13.2,14.61,23.66,17.05,22.29,1.81-1.02-3.66-7.98-2.79-18.64,1.27-15.44,14.22-18.61,14.64-31.07.49-14.51-16.49-27.54-18.5-26.23-1.16.76,3.55,5.68,4.29,14.23,1.5,17.42-15.72,24.06-14.69,39.43Z"/>
        <path class="cls-1" d="M144.21,104.71c2.79-2.09-4.29-10.39-4.71-22.07-.76-20.84,20.56-26.83,21.64-45.86,1.17-20.49-22.13-38.54-25.29-36.64-2.49,1.49,8.83,14.57,4.92,31.07-3.19,13.47-12.75,13.22-17.49,28.21-3.77,11.93-2.14,26.05,5.28,35.65,4.98,6.44,13.11,11.54,15.64,9.64Z"/>
      </g>
      <text class="cls-2" transform="translate(172.63 677.33)"><tspan x="0" y="0">COFFEE</tspan></text>
      <g>
        <g>
          <path class="cls-1" d="M345.95,316.94c-8.99-1.86-15.2-5.89-18.3-12.1-4.34-8.06-4.96-13.65-5.58-51.49-.31-20.47,0-49.93.93-66.06,2.17-53.66,6.51-71.33,18.3-77.54,4.03-1.86,6.82-2.48,17.99-2.79,11.79-.31,14.27,0,19.54,1.86,5.89,2.17,12.72,7.75,12.72,10.55,0,.62,2.48-.31,5.89-2.17,12.1-6.51,25.74-8.99,40.32-7.13,22.33,2.79,35.67,12.1,45.28,31.64,10.86,21.4,11.17,53.66,1.24,73.2-4.65,9.3-10.86,16.44-18.3,21.09l-6.82,4.34,6.51,6.2c13.34,13.03,19.23,26.36,17.06,37.22-3.41,16.44-22.33,32.88-37.53,33.19-14.58,0-26.98-11.48-42.8-39.7l-4.34-7.44-.31,14.27c-.31,16.44-1.86,20.47-9.31,26.67-6.51,5.27-13.03,7.13-27.91,6.82-6.82,0-13.34-.31-14.58-.62ZM422.55,191.33c5.27-4.34,7.75-10.24,7.75-17.99,0-8.68-2.79-15.82-7.75-18.61-4.65-2.79-7.75-2.79-12.41,0-10.24,5.89-11.48,25.74-2.17,35.67,4.03,4.65,9.61,4.96,14.58.93Z"/>
          <path class="cls-1" d="M571.02,315.7c-34.12-8.06-61.1-37.22-71.03-75.99-2.17-8.99-7.44-36.29,3.72-68.23,5.89-16.75,17.37-33.81,29.46-44.04,17.37-14.27,34.43-20.47,55.21-20.47,24.19,0,42.18,7.75,61.1,26.05,28.53,27.91,39.39,73.51,26.98,114.45-10.23,34.43-36.6,60.79-67.92,68.23-10.86,2.48-26.98,2.48-37.53,0ZM598.31,243.43c12.41-4.65,19.23-20.78,17.99-41.25-.62-11.79-2.79-18.61-7.44-24.19-9.3-11.17-26.67-10.86-35.36.93-8.68,11.17-10.24,33.81-4.03,49.62,5.27,13.03,17.37,19.23,28.84,14.89Z"/>
        </g>
        <g>
          <path class="cls-1" d="M404.78,564.44c-19.19-2.02-30.64-6.4-41.07-15.82-19.19-18.18-22.22-54.54-5.05-62.62,6.4-3.03,19.86-2.69,38.04,1.68,17.51,4.04,21.55,4.04,24.24,1.35,2.36-2.69,2.36-5.39-.34-9.76-2.02-2.69-6.73-5.39-22.56-12.79-31.65-14.81-42.08-22.89-49.83-38.38-5.39-11.11-7.41-19.53-6.73-30.97,2.69-36.7,25.25-56.9,67.34-60.94,20.54-1.68,38.38,1.01,52.52,8.08,8.75,4.38,18.52,14.48,21.21,21.21,3.7,10.44,1.35,28.28-5.05,36.7-6.06,7.74-17.84,8.75-37.03,2.69-7.07-2.36-15.82-4.38-19.86-4.71-6.4-.34-7.74-.34-10.1,2.02-3.37,3.03-4.04,10.1-1.01,14.14,1.01,1.35,11.11,6.73,22.89,12.12,25.25,11.45,36.7,18.52,48.48,29.63,12.79,12.12,17.51,22.89,17.51,40.74-.34,18.52-5.72,32.32-17.51,44.44-12.12,12.12-24.58,17.84-45.45,20.87-11.78,1.68-16.5,1.68-30.64.34Z"/>
          <path class="cls-1" d="M547.52,564.44c-24.58-2.36-31.65-8.08-34.68-26.93-1.35-10.77-1.35-141.4.34-159.92.67-7.41,2.02-15.49,2.69-17.84,3.03-7.07,9.76-12.79,18.52-16.5,20.54-8.08,70.7-10.1,96.63-3.7,21.55,5.39,26.93,12.12,26.93,33.33,0,11.78-2.02,19.53-6.73,24.24-6.4,6.06-11.11,7.07-40.74,7.07-26.26,0-26.6,0-28.62,2.36-2.69,3.37-3.03,12.46-.67,15.82,2.02,2.69,13.47,3.37,27.61,1.68,11.11-1.35,16.83-.34,20.2,3.37,5.05,5.39,5.05,33.33,0,38.72-3.7,4.04-10.44,4.71-24.58,3.37-20.2-2.02-25.92.34-25.92,11.45s6.73,12.46,41.07,6.06c21.88-4.04,26.93-3.7,33.67,2.69,5.39,5.05,8.08,13.8,8.75,28.62,1.01,21.55-3.37,32.99-14.81,39.05-11.78,6.4-16.16,6.73-57.23,7.07-20.54.34-39.73,0-42.42,0Z"/>
        </g>
      </g>
    </g>
  </g>
</svg>
